<svg xmlns="http://www.w3.org/2000/svg">
<defs>
<font id="SVN-DancingScript" horiz-adv-x="1292" >
  <font-face 
    font-family="SVN-Dancing Script"
    font-weight="400"
    font-stretch="normal"
    units-per-em="2048"
    panose-1="2 4 6 3 5 5 6 2 2 4"
    ascent="1638"
    descent="-410"
    x-height="610"
    cap-height="1473"
    bbox="-403 -573 4553 2199"
    underline-thickness="109"
    underline-position="-143"
    unicode-range="U+0020-U+2122"
  />
<missing-glyph horiz-adv-x="4653" 
d="M788 1681v510h343v-61h-274v-157h236v-61h-236v-231h-69zM1253 1865q0 -72 30 -106.5t76 -34.5t77 34.5t31 106.5q0 69 -31 104.5t-77 35.5t-76 -35.5t-30 -104.5zM1189 1865q0 104 56 151q45 42 114 42q37 0 68.5 -13t54.5 -37t36 -59t13 -79q0 -52 -12.5 -89t-35.5 -61
t-54.5 -35t-69.5 -11q-78 0 -124 48.5t-46 142.5zM1608 1681v369h58v-53q41 61 115 61q56 0 85 -27t37 -63q2 -10 3.5 -24.5t1.5 -36.5v-226h-64v223q0 54 -19.5 77.5t-57.5 23.5q-20 0 -37.5 -6t-30 -20t-20 -37.5t-7.5 -58.5v-202h-64zM2149 1679l-25.5 -3.5t-21.5 -1.5
l-44 8t-27 13t-13.5 31t-3.5 62v214h-45v48h45v90l64 38v-128h63v-48h-63v-217q0 -18 1.5 -28t5.5 -15t10.5 -6t16.5 -1h29zM2444 1851q4 -56 40 -86t106 -30q62 0 94.5 23t32.5 61q0 24 -12 41t-44 31q-10 4 -33 10t-57 14t-59 16t-39 16q-40 18 -57 45.5t-17 65.5
q0 29 12.5 54.5t36 45t56.5 30.5t75 11q45 0 80.5 -11.5t60.5 -31.5t39 -47.5t16 -60.5l-69 -3q-11 93 -124 93q-62 0 -88 -22.5t-26 -54.5q0 -27 18 -45q11 -11 35 -19t66 -18q82 -16 112 -32q46 -18 66.5 -50t20.5 -72q0 -34 -14 -61.5t-39 -47.5t-60 -31t-78 -11
q-100 0 -157.5 45t-57.5 130zM3022 1681l-193 510h74l130 -372q8 -22 14 -42l12 -40q6 22 14 42l16 40l140 372h69l-202 -510h-74zM3356 1681v510h72l257 -398v398h69v-510h-74l-255 396v-396h-69zM128 1098q0 -70 29 -104t71 -34t71.5 33t29.5 99q0 78 -30.5 113.5
t-72.5 35.5t-70 -34.5t-28 -108.5zM327 917v45q-37 -53 -104 -53q-35 0 -64 14t-50 39t-33 60t-12 78q0 42 10.5 77.5t30.5 61.5t48.5 40.5t64.5 14.5q34 0 59.5 -14.5t43.5 -38.5v186h64v-510h-58zM725 917v53q-23 -29 -52 -45t-65 -16q-56 0 -85 25.5t-37 65.5

<glyph glyph-name=".notdef" horiz-adv-x="4653" 
d="M788 1681v510h343v-61h-274v-157h236v-61h-236v-231h-69zM1253 1865q0 -72 30 -106.5t76 -34.5t77 34.5t31 106.5q0 69 -31 104.5t-77 35.5t-76 -35.5t-30 -104.5zM1189 1865q0 104 56 151q45 42 114 42q37 0 68.5 -13t54.5 -37t36 -59t13 -79q0 -52 -12.5 -89t-35.5 -61
t-54.5 -35t-69.5 -11q-78 0 -124 48.5t-46 142.5zM1608 1681v369h58v-53q41 61 115 61q56 0 85 -27t37 -63q2 -10 3.5 -24.5t1.5 -36.5v-226h-64v223q0 54 -19.5 77.5t-57.5 23.5q-20 0 -37.5 -6t-30 -20t-20 -37.5t-7.5 -58.5v-202h-64zM2149 1679l-25.5 -3.5t-21.5 -1.5
l-44 8t-27 13t-13.5 31t-3.5 62v214h-45v48h45v90l64 38v-128h63v-48h-63v-217q0 -18 1.5 -28t5.5 -15t10.5 -6t16.5 -1h29zM2444 1851q4 -56 40 -86t106 -30q62 0 94.5 23t32.5 61q0 24 -12 41t-44 31q-10 4 -33 10t-57 14t-59 16t-39 16q-40 18 -57 45.5t-17 65.5
q0 29 12.5 54.5t36 45t56.5 30.5t75 11q45 0 80.5 -11.5t60.5 -31.5t39 -47.5t16 -60.5l-69 -3q-11 93 -124 93q-62 0 -88 -22.5t-26 -54.5q0 -27 18 -45q11 -11 35 -19t66 -18q82 -16 112 -32q46 -18 66.5 -50t20.5 -72q0 -34 -14 -61.5t-39 -47.5t-60 -31t-78 -11
q-100 0 -157.5 45t-57.5 130zM3022 1681l-193 510h74l130 -372q8 -22 14 -42l12 -40q6 22 14 42l16 40l140 372h69l-202 -510h-74zM3356 1681v510h72l257 -398v398h69v-510h-74l-255 396v-396h-69zM128 1098q0 -70 29 -104t71 -34t71.5 33t29.5 99q0 78 -30.5 113.5
t-72.5 35.5t-70 -34.5t-28 -108.5zM327 917v45q-37 -53 -104 -53q-35 0 -64 14t-50 39t-33 60t-12 78q0 42 10.5 77.5t30.5 61.5t48.5 40.5t64.5 14.5q34 0 59.5 -14.5t43.5 -38.5v186h64v-510h-58zM725 917v53q-23 -29 -52 -45t-65 -16q-56 0 -85 25.5t-37 65.5
q-2 8 -2.5 21.5t-0.5 33.5v231h64v-207q0 -24 0.5 -40t2.5 -26q5 -24 23 -37.5t48 -13.5q46 0 72 28.5t26 96.5v199h64v-369h-58zM669 1360h-48l-79 99h82zM878 917v369h59v-53q40 61 114 61q56 0 85 -27t37 -63q2 -10 3.5 -24.5t1.5 -36.5v-226h-63v223q0 54 -19.5 77.5
t-57.5 23.5q-20 0 -37.5 -6t-30.5 -20t-20.5 -37.5t-7.5 -58.5v-202h-64zM1311 1106q0 -72 28 -104t70 -32t71.5 32t29.5 104q0 66 -29.5 100.5t-71.5 34.5t-70 -34.5t-28 -100.5zM1324 883q2 -16 6.5 -27.5t14.5 -17.5q20 -16 61 -16q42 0 65 15.5t31 45.5q5 22 5 79
q-22 -22 -46.5 -33.5t-54.5 -11.5q-39 0 -68.5 14.5t-49.5 40t-30.5 59t-10.5 72.5q0 40 11 74.5t31 60.5t49.5 41t67.5 15q62 0 107 -53v45h58v-318q1 -63 -9 -100t-31 -57.5t-52.5 -28.5t-74.5 -13q-64 0 -104.5 29t-38.5 93zM1921 1103q0 -69 16 -95q28 -48 80 -48
q21 0 39.5 8.5t32.5 26t22.5 43.5t8.5 62q0 72 -29 108t-69 36q-42 0 -71.5 -35.5t-29.5 -105.5zM1924 917h-61v510h63v-183q18 26 43.5 38t57.5 12q34 0 62.5 -14t49.5 -39t33 -59.5t12 -75.5q0 -48 -13 -85t-34.5 -61.5t-50.5 -37.5t-61 -13q-34 0 -58.5 13.5t-42.5 39.5
v-45zM2500 1103q-18 -8 -44 -13.5t-60 -10.5q-27 -5 -44 -10t-27 -12.5t-13.5 -17t-3.5 -23.5q0 -26 18.5 -42.5t56.5 -16.5q34 0 63 14.5t43 44.5q8 21 8 63zM2502 962q-34 -29 -65.5 -41t-69.5 -12q-62 0 -93.5 29t-31.5 75q0 44 26 69t62 37q10 2 24 4t31 4q76 12 112 24
q2 6 2.5 10t0.5 6q0 37 -19 53q-26 21 -72 21t-66.5 -15.5t-28.5 -53.5l-64 8q12 56 50.5 85t114.5 29q37 0 62 -6.5t41 -17.5t24.5 -26t12.5 -32q2 -10 4 -24t2 -34v-85q0 -43 0.5 -68.5t2 -41t5 -24.5t10.5 -18h-64q-6 11 -8.5 21t-4.5 24zM2407 1406q21 0 24 2
q17 4 21 13q0 10 -11 14q-16 8 -48 8q-6 0 -13.5 -0.5t-17.5 -2.5l-3 35q6 2 18 2h30q22 -2 39.5 -6t31.5 -10q27 -11 32 -37q0 -36 -64 -40v-18h-39v40zM2656 917v369h58v-53q41 61 115 61q56 0 85 -27t37 -63q2 -10 3.5 -24.5t1.5 -36.5v-226h-64v223q0 54 -19.5 77.5
t-57.5 23.5q-20 0 -37.5 -6t-30 -20t-20 -37.5t-7.5 -58.5v-202h-64zM3089 1106q0 -72 28 -104t70 -32t71 32t29 104q0 66 -29 100.5t-71 34.5t-70 -34.5t-28 -100.5zM3102 883q3 -34 21 -45q19 -16 61 -16t65 15.5t31 45.5q2 10 3.5 30t1.5 49q-22 -22 -46.5 -33.5
t-54.5 -11.5q-39 0 -68.5 14.5t-49.5 40t-30.5 59t-10.5 72.5q0 40 10.5 74.5t31 60.5t50 41t67.5 15q62 0 106 -53v45h59v-318q1 -63 -9.5 -100t-31.5 -57.5t-52.5 -28.5t-74.5 -13q-64 0 -104.5 29t-38.5 93zM3640 917v369h59v-53q18 26 45.5 43.5t65.5 17.5
q42 0 67.5 -17t36.5 -47q43 64 116 64q114 0 114 -125v-252h-63v231q0 51 -15.5 72t-51.5 21q-38 0 -64 -26.5t-26 -84.5v-213h-63v239q0 42 -15 63.5t-49 21.5q-44 0 -68.5 -30.5t-24.5 -102.5v-191h-64zM4473 1103q-17 -8 -43 -13.5t-60 -10.5q-27 -5 -44 -10t-27 -12.5
t-13.5 -17t-3.5 -23.5q0 -26 18.5 -42.5t56.5 -16.5q34 0 63 14.5t43 44.5q8 21 8 63zM4476 962q-34 -29 -65.5 -41t-69.5 -12q-62 0 -93.5 29t-31.5 75q0 44 26 69t62 37q10 2 23.5 4t31.5 4q76 12 112 24q2 6 2 10v6q0 38 -18 53q-26 21 -72 21t-66.5 -15.5t-28.5 -53.5
l-64 8q12 56 50.5 85t114.5 29q37 0 62 -6.5t41 -17.5t24.5 -26t12.5 -32q2 -10 3.5 -24t1.5 -34v-85q0 -43 0.5 -68.5t2 -41t5.5 -24.5t11 -18h-64q-6 11 -8.5 21t-4.5 24zM4288 1350q-2 32 17.5 53t51.5 21q10 0 25 -5.5t33 -15.5q21 -8 32 -8q10 0 17 7.5t9 21.5h46
q-4 -74 -69 -74q-11 0 -26 4t-33 12q-12 6 -20 9.5t-14 3.5q-29 0 -24 -29h-45zM1364 535h69v-294q0 -54 -10 -95.5t-33.5 -70t-61.5 -43t-94 -14.5q-55 0 -93 12.5t-61.5 39.5t-34 69t-10.5 102v294h69v-291q0 -47 6.5 -78t21.5 -50t39 -26.5t58 -7.5q36 0 61.5 7.5
t42 25.5t24 49.5t7.5 79.5v291zM1539 26v369h58v-53q20 29 48.5 45t66.5 16q55 0 84.5 -27.5t37.5 -63.5q2 -10 3.5 -24t1.5 -37v-225h-64v223q0 54 -19.5 77.5t-57.5 23.5q-20 0 -37.5 -6t-30 -20.5t-20 -38t-7.5 -57.5v-202h-64zM1934 26v369h64v-369h-64zM1934 464v71h64
v-71h-64zM2396 153q-10 -64 -53 -99.5t-101 -35.5q-78 0 -122.5 49t-44.5 139q0 94 44.5 145.5t120.5 51.5q62 0 98 -30.5t50 -86.5l-64 -8q-10 34 -31 54t-51 20q-48 0 -75.5 -34.5t-27.5 -108.5t27 -107.5t74 -33.5q77 0 92 93zM2489 209q0 -72 30 -106.5t76 -34.5
t77.5 34.5t31.5 106.5q0 70 -31.5 105.5t-77.5 35.5t-76 -35.5t-30 -105.5zM2425 209q0 103 56 151q47 43 114 43q37 0 68.5 -13t54.5 -37.5t36 -59.5t13 -79q0 -52 -12.5 -89t-35.5 -61t-54.5 -35t-69.5 -11q-78 0 -124 48.5t-46 142.5zM2884 206q0 -69 29.5 -103.5
t71.5 -34.5t71.5 33.5t29.5 99.5q0 78 -31 113.5t-73 35.5q-41 0 -69.5 -35t-28.5 -109zM3083 26v45q-37 -53 -103 -53q-35 0 -64 14t-50 39t-33 60t-12 78q0 42 10.5 77.5t30.5 61.5t48 40.5t64 14.5q35 0 60.5 -15t43.5 -38v185h64v-509h-59zM3497 244q-2 23 -9 41t-17 30
q-34 37 -80 37t-76.5 -30t-32.5 -78h215zM3558 137q-16 -58 -58 -88.5t-106 -30.5q-82 0 -130 49t-48 139q0 94 47 145.5t125 51.5q39 0 71 -13.5t54.5 -39t35 -61t12.5 -80.5q0 -2 -0.5 -6t-2.5 -10h-278q2 -62 34 -93.5t80 -31.5q38 0 62 17.5t38 59.5z" />
    <glyph glyph-name="nonmarkingreturn" horiz-adv-x="571" 
 />
    <glyph glyph-name="dieresis" unicode="&#xa8;" horiz-adv-x="1024" 
 />
    <glyph glyph-name="ugrave" horiz-adv-x="582" 
 />
    <glyph glyph-name="uacute" horiz-adv-x="580" 
 />
    <glyph glyph-name="yacute" horiz-adv-x="629" 
 />
    <glyph glyph-name="Ccaron" unicode="&#x10c;" horiz-adv-x="1274" 
 />
    <glyph glyph-name="ccaron" unicode="&#x10d;" horiz-adv-x="922" 
 />
    <glyph glyph-name="space" unicode=" " horiz-adv-x="530" 
 />
    <glyph glyph-name="exclam" unicode="!" horiz-adv-x="604" 
d="M0 49q0 37 42 66.5t91 29.5q70 0 70 -63q0 -37 -38 -69.5t-83 -32.5q-82 0 -82 69zM125 221q0 101 111 387l79 203l78 193q49 120 84 188t77 141.5t78 107.5t66 34q23 0 40.5 -18.5t17.5 -43.5q0 -82 -242 -554t-364 -646z" />
    <glyph glyph-name="quotedbl" unicode="&#x22;" horiz-adv-x="553" 
d="M309 1270q0 65 41 137t88 72q27 0 45.5 -21.5t18.5 -58.5q-43 -41 -68.5 -85t-66.5 -134q-58 28 -58 90zM545 1264q0 67 39 141t88 74q28 0 45.5 -21.5t17.5 -58.5q-16 -15 -29.5 -31t-22.5 -28.5t-21 -36.5l-19 -35l-22 -43q-17 -31 -21 -45q-55 28 -55 84z" />
    <glyph glyph-name="numbersign" unicode="#" horiz-adv-x="1475" 
d="M39 307q8 160 463 170l8 47q6 37 10 51q-33 0 -272 -18l-135 -10q10 158 440 168q27 129 69 355t58 302q6 27 12 43.5t35 34.5t78 29q-8 -37 -27 -144l-53 -291l-59 -325q153 -4 249 -8q35 166 80 407.5t47 253.5q5 27 13 43.5t36.5 34.5t77.5 29q-10 -39 -30 -150
l-52 -295q-32 -182 -61 -329q47 -3 143.5 -8l176 -9t139.5 -4q-51 -43 -102.5 -65.5t-80 -25.5t-73.5 -3q-47 0 -121 -1t-102 -1q-2 -15 -12.5 -60t-12.5 -65q369 -19 426 -19q-51 -43 -101.5 -65.5t-78 -25.5t-72.5 -3q-133 0 -197 -2q-71 -375 -143 -527.5t-217 -152.5
q117 139 238 674h-244q-33 -158 -52.5 -244t-51 -182t-63.5 -141t-80 -76t-112 -31q115 137 238 670q-14 0 -297 -21zM618 477q127 0 246 -6l25 115q-172 0 -250 -4z" />
    <glyph glyph-name="dollar" unicode="$" horiz-adv-x="1157" 
d="M27 201q0 133 97 205.5t218 72.5q-133 -135 -133 -282q0 -93 63.5 -149t178.5 -71q59 211 135 555q-72 39 -111 64t-90 69t-74.5 97t-23.5 121q0 168 132 296t326 158q0 47 38 88t98 50q-25 -111 -29 -132q246 -6 246 -223q0 -168 -105 -340q-45 8 -70.5 37t-25.5 64
q0 32 37 142t37 153q0 88 -133 90l-111 -604q72 -37 115 -63t94 -70t75.5 -101t24.5 -129q0 -178 -138 -287.5t-343 -128.5q-82 -215 -248 -215q64 82 111 215q-168 15 -279.5 95.5t-111.5 222.5zM446 932q0 -125 181 -217q86 446 102 538q-127 -30 -205 -124.5t-78 -196.5z
M586 -20q129 16 202.5 85.5t73.5 172.5q0 77 -44 132.5t-126 104.5q-74 -389 -106 -495z" />
    <glyph glyph-name="percent" unicode="%" horiz-adv-x="1516" 
d="M180 -178q150 145 476.5 704t437.5 848q12 33 73.5 67t114.5 34q-25 -101 -277.5 -582t-390.5 -694q-120 -187 -221.5 -282t-212.5 -95zM223 928q0 153 89 298.5t225 145.5q88 0 143 -61.5t55 -161.5q0 -150 -92 -302.5t-227 -152.5q-92 0 -142.5 67.5t-50.5 166.5z
M369 924q0 -123 59 -123q68 0 119 119.5t51 238.5q0 111 -57 111q-76 0 -124 -118t-48 -228zM930 229q0 156 88 300.5t225 144.5q88 0 142.5 -61.5t54.5 -161.5q0 -93 -37 -195t-113 -180t-168 -78q-94 0 -143 66.5t-49 164.5zM1073 221q0 -117 60 -117q67 0 119.5 119
t52.5 238q0 112 -60 112q-78 0 -125 -119.5t-47 -232.5z" />
    <glyph glyph-name="ampersand" unicode="&#x26;" horiz-adv-x="1382" 
d="M35 203q0 188 149.5 345t372.5 187q-147 131 -147 307q0 172 126 301.5t320 129.5q123 0 187.5 -58.5t64.5 -169.5q0 -117 -55.5 -220t-114.5 -103q-51 0 -98 84q176 143 176 268q0 59 -35 94t-102 35q-134 0 -209.5 -109.5t-75.5 -267.5q0 -215 149 -332
q-213 -32 -348 -180.5t-135 -310.5q0 -111 66.5 -197t199.5 -86q215 0 391.5 186.5t206.5 421.5q-67 -4 -278 -41q2 175 231 175q66 0 174.5 -17.5t175.5 -17.5q-28 -62 -52.5 -78.5t-55.5 -16.5q-27 0 -62.5 -1t-52.5 -1q-28 -282 -244.5 -495t-486.5 -213
q-194 0 -316 110.5t-122 270.5z" />
    <glyph glyph-name="quotesingle" unicode="'" horiz-adv-x="319" 
d="M309 1270q0 65 41 137t88 72q25 0 45.5 -20.5t20.5 -47.5l-2 -12q-62 -60 -115 -174l-20 -45q-58 28 -58 90z" />
    <glyph glyph-name="parenleft" unicode="(" horiz-adv-x="604" 
d="M158 393q0 230 71.5 440.5t175 346t212 215.5t188.5 80q-248 -193 -372 -491t-124 -613q0 -322 113 -490q-21 -41 -57 -59q-86 47 -146.5 210t-60.5 361z" />
    <glyph glyph-name="parenright" unicode=")" horiz-adv-x="645" 
d="M-70 -109q238 158 387.5 426.5t149.5 612.5q0 153 -38 285.5t-144 269.5q116 -31 217.5 -195t101.5 -403q0 -174 -47 -345t-118.5 -297t-154.5 -224.5t-158 -148.5t-126 -50q-29 0 -70 69z" />
    <glyph glyph-name="asterisk" unicode="*" horiz-adv-x="852" 
d="M260 1206q182 6 236 11q-93 137 -93 208q0 27 21.5 49.5t21.5 26.5q23 -39 54.5 -98.5t50 -91t39.5 -60.5q69 213 217 246q-21 -59 -72 -159.5t-59 -118.5q194 0 297 -82l-277 -23q35 -47 50.5 -72.5t33 -83t19.5 -131.5q-80 86 -203 260q-64 -114 -118 -173.5
t-128 -63.5q29 41 53.5 83t54 100.5t40.5 78.5q-101 0 -161.5 18.5t-76.5 75.5z" />
    <glyph glyph-name="plus" unicode="+" horiz-adv-x="903" 
d="M27 279q41 122 335 129v84q0 116 80 237q25 -197 29 -321q143 -2 365 -21q-119 -84 -258 -84h-105q-2 -145 -27.5 -227t-95.5 -90q17 133 17 317q-170 0 -340 -24z" />
    <glyph glyph-name="comma" unicode="," horiz-adv-x="442" 
d="M10 -90q0 65 41 138t88 73q27 0 46.5 -20.5t19.5 -47.5q-17 -18 -31 -37.5l-22.5 -32t-23.5 -39t-18.5 -33.5t-21.5 -46t-22 -45q-56 33 -56 90z" />
    <glyph glyph-name="hyphen" unicode="-" horiz-adv-x="1038" 
d="M113 291q12 43 55 70.5t100.5 39t95 15.5t74.5 4q185 0 443 -14q-21 -48 -93.5 -79.5t-156.5 -31.5q-23 0 -111 6t-145 6q-139 0 -262 -16z" />
    <glyph glyph-name="period" unicode="." horiz-adv-x="496" 
d="M57 57q0 35 44 72t85 37q68 0 68 -64q0 -32 -29.5 -77t-77.5 -45q-45 0 -67.5 23.5t-22.5 53.5z" />
    <glyph glyph-name="slash" unicode="/" horiz-adv-x="727" 
d="M-129 -332q223 215 803 1706q12 35 77.5 67t139.5 32q-51 -136 -604 -1424q-76 -178 -190.5 -279.5t-225.5 -101.5z" />
    <glyph glyph-name="zero" unicode="0" horiz-adv-x="1352" 
d="M129 379q0 170 54.5 359.5t148.5 354t242.5 273.5t318.5 109q203 0 323.5 -149.5t120.5 -420.5q0 -186 -59 -378.5t-160.5 -349.5t-249 -256t-309.5 -99q-209 0 -319.5 156.5t-110.5 400.5zM334 344q0 -194 67.5 -309t186.5 -115q147 0 280 177t208 422t75 466
q0 186 -62.5 296t-195.5 110q-129 0 -240.5 -111t-178 -276.5t-103.5 -340t-37 -319.5z" />
    <glyph glyph-name="one" unicode="1" horiz-adv-x="803" 
d="M-70 -63q19 0 51.5 -3.5t55.5 -3.5q69 0 213 21q53 121 104.5 350t99.5 500.5t66 353.5q-176 -117 -229 -117q-60 0 -60 84q68 33 207.5 136.5t255.5 214.5q27 -25 27 -80q0 -35 -19.5 -108t-25.5 -114q-39 -249 -65.5 -399.5t-89 -388.5t-138.5 -414q49 4 72 4
q186 0 219 -145q-101 12 -189 12q-65 0 -188 -9t-150 -9q-127 0 -217 115z" />
    <glyph glyph-name="two" unicode="2" horiz-adv-x="1227" 
d="M-12 14q0 109 172 109q84 0 223 -27q203 176 373 474t170 538q0 139 -60.5 211t-160.5 72q-132 0 -203.5 -111t-71.5 -254q0 -88 39 -178l-39 4q-158 16 -158 197q0 170 130 298t325 128q178 0 275.5 -113t97.5 -291q0 -242 -172 -527.5t-408 -475.5q305 -68 422 -68
q49 0 85 13.5t106 49.5q-33 -126 -89.5 -183.5t-146.5 -57.5q-47 0 -117.5 17.5t-117 33.5t-144.5 53l-125 47q-141 -84 -243 -84q-72 0 -117 35t-45 90zM80 8q4 -35 65 -35q50 0 125 43q-77 25 -129 25q-61 0 -61 -33z" />
    <glyph glyph-name="three" unicode="3" horiz-adv-x="1110" 
d="M39 127q0 88 48 157.5t134 69.5q29 0 72 -8q-37 -31 -61.5 -87t-24.5 -112q0 -90 63.5 -160.5t157.5 -70.5q125 0 224.5 121t99.5 299q0 131 -64.5 235.5t-212.5 143.5q164 69 266.5 215.5t102.5 279.5q0 93 -53.5 137t-131.5 44q-90 0 -158.5 -53.5t-68.5 -141.5
q0 -66 41 -141q-12 -27 -42 -49.5t-58 -22.5q-43 0 -70 56.5t-27 123.5q0 140 123 226t285 86q141 0 244.5 -78t103.5 -211q0 -129 -93 -261t-234 -186q149 -51 219.5 -161.5t70.5 -231.5q0 -201 -168 -362.5t-415 -161.5q-187 0 -280 93t-93 212z" />
    <glyph glyph-name="four" unicode="4" horiz-adv-x="1040" 
d="M6 442q0 33 16.5 65t33 50t53.5 51q596 555 819 867q51 -25 51 -72q0 -49 -41 -113q-47 -192 -135 -684q155 0 237 23q-118 -160 -262 -160q-80 -453 -80 -647q-92 6 -142 35.5t-50 74.5q0 33 90 539q-74 8 -143 8q-74 0 -248 -11t-199 -26zM244 610q80 6 184 6
q76 0 199 -4q63 301 108 451l-233 -211q-183 -166 -258 -242z" />
    <glyph glyph-name="five" unicode="5" horiz-adv-x="1051" 
d="M18 125q0 90 47.5 159.5t133.5 69.5q30 0 73 -8q-86 -70 -86 -205q0 -92 53.5 -158.5t157.5 -66.5q152 0 245 134t93 300q0 135 -69.5 223.5t-208.5 88.5q-76 0 -215 -27q14 100 57 266t96 350l62 213q116 -28 235 -28q125 0 340 41q15 -58 15 -78q0 -82 -82 -120
t-193 -38q-57 0 -134 12.5t-99 12.5q-31 0 -68 -107.5t-71.5 -256t-43.5 -171.5q88 17 168 17q215 0 329 -110t114 -292q0 -221 -159 -372.5t-409 -151.5q-196 0 -288.5 91t-92.5 212z" />
    <glyph glyph-name="six" unicode="6" horiz-adv-x="1212" 
d="M119 344q0 172 57 365.5t156.5 366.5t258.5 286t339 113q98 0 158.5 -33t60.5 -99q0 -81 -123 -114q4 41 4 67q0 50 -22.5 76.5t-83.5 26.5q-121 0 -232.5 -112.5t-186.5 -271.5t-120 -345q145 110 340 110q176 0 293 -103.5t117 -305.5q0 -236 -155 -392.5t-402 -156.5
q-234 0 -346.5 142t-112.5 380zM336 297q0 -64 11 -123t37 -120.5t79 -99.5t125 -38q147 0 240.5 141.5t93.5 321.5q0 151 -75 227t-200 76q-160 0 -235.5 -109.5t-75.5 -275.5z" />
    <glyph glyph-name="seven" unicode="7" horiz-adv-x="899" 
d="M139 578q0 49 30 82.5t85 50t113.5 22.5t138.5 6q35 54 141 234l182 301q-49 0 -155.5 -6t-153.5 -6q-244 0 -244 110q0 43 35 101q232 -41 398 -41q231 0 397 53q-270 -348 -461 -754q72 -8 160 -8q80 0 133 14q-104 -139 -201 -139h-153q-176 -401 -176 -549
q0 -63 32 -86q-34 -72 -88.5 -106.5t-95.5 -34.5q-35 0 -61.5 27.5t-26.5 78.5q0 146 262 670q-147 -4 -291 -20z" />
    <glyph glyph-name="eight" unicode="8" horiz-adv-x="1149" 
d="M88 172q0 57 20.5 111.5t48 94.5t81 88t89 75.5t104.5 76t99 72.5q-75 76 -118 129t-82 138t-39 173q0 170 118.5 256.5t282.5 86.5q154 0 248 -79t94 -229q0 -135 -74.5 -241.5t-214.5 -210.5q93 -92 140 -144.5t90 -138.5t43 -174q0 -190 -160 -312t-375 -122
q-202 0 -298.5 107.5t-96.5 242.5zM246 174q0 -111 76.5 -177.5t179.5 -66.5q119 0 216 90.5t97 225.5q0 98 -52 180t-155 186q-88 -61 -136 -98t-109.5 -95.5t-89 -118.5t-27.5 -126zM483 1155q0 -166 187 -362q215 180 215 370q0 107 -53.5 166.5t-135.5 59.5
q-80 0 -146.5 -58.5t-66.5 -175.5z" />
    <glyph glyph-name="nine" unicode="9" horiz-adv-x="1225" 
d="M197 942q0 236 146 384.5t388 148.5q246 0 361.5 -160t115.5 -412q0 -139 -32.5 -288.5t-99 -291t-157 -253t-215 -180t-264.5 -68.5q-100 0 -162.5 34.5t-62.5 100.5q0 82 119 117q0 -176 110 -176q121 0 227.5 111.5t174 271t106.5 346.5q-141 -109 -336 -109
q-182 0 -300.5 110.5t-118.5 313.5zM408 936q0 -158 77.5 -239t212.5 -81q146 0 218.5 92.5t72.5 256.5q0 69 -13 135.5t-41 132t-83 106.5t-129 41q-141 0 -228 -134t-87 -310z" />
    <glyph glyph-name="colon" unicode=":" horiz-adv-x="514" 
d="M66 47q0 37 42 66.5t91 29.5q67 0 67 -63q0 -35 -36.5 -67.5t-82.5 -32.5q-32 0 -56.5 17t-24.5 50zM180 535q0 36 43 66t90 30q68 0 68 -64q0 -35 -37 -67.5t-82 -32.5q-33 0 -57.5 17.5t-24.5 50.5z" />
    <glyph glyph-name="semicolon" unicode=";" horiz-adv-x="512" 
d="M47 -88q0 70 43 147.5t94 77.5q27 0 48.5 -21.5t23.5 -47.5q-80 -91 -152 -248q-57 30 -57 92zM180 539q0 36 41 66t90 30q72 0 72 -64q0 -34 -38 -68t-83 -34q-82 0 -82 70z" />
    <glyph glyph-name="less" unicode="&#x3c;" horiz-adv-x="672" 
d="M61 338q109 39 217.5 129t182.5 195q10 -9 19 -33.5t9 -40.5q0 -121 -325 -287q119 -80 336 -158q-49 -53 -86 -53q-76 0 -204 91t-149 157z" />
    <glyph glyph-name="equal" unicode="=" horiz-adv-x="1059" 
d="M127 422q37 100 383 100q176 0 379 -22q-121 -82 -250 -82h-199q-166 0 -297 -21zM131 242q41 100 383 100q176 0 379 -23q-119 -81 -250 -81h-197q-165 0 -296 -21z" />
    <glyph glyph-name="greater" unicode="&#x3e;" horiz-adv-x="690" 
d="M135 588q0 33 23 67q69 -88 190 -181t230 -134q-17 -66 -141 -158t-199 -92q-41 0 -91 53q207 74 328 158q-336 166 -340 287z" />
    <glyph glyph-name="question" unicode="?" horiz-adv-x="946" 
d="M242 1018q0 182 126 319.5t326 137.5q142 0 224.5 -74t82.5 -209q0 -84 -32.5 -159t-83.5 -134l-105 -117q-53 -59 -105 -136t-77 -161q-12 -43 -24.5 -118.5t-30.5 -122.5q-54 26 -70 47.5t-16 66.5q0 88 40 172t97 154l115 141q57 70 97 158t40 182q0 109 -44 168.5
t-114 59.5q-110 0 -205.5 -123t-95.5 -285q0 -65 23 -139q-95 14 -131.5 57t-36.5 115zM373 47q0 39 43 68.5t90 29.5q72 0 72 -59q0 -41 -38 -73.5t-85 -32.5q-35 0 -58.5 17t-23.5 50z" />
    <glyph glyph-name="at" unicode="@" horiz-adv-x="1255" 
d="M27 188q0 242 189.5 431.5t485.5 189.5q226 0 347.5 -111.5t121.5 -267.5t-110.5 -288t-259.5 -132q-154 0 -154 152q-151 -178 -262 -178q-57 0 -97 38.5t-40 108.5q0 96 68.5 214t181 204t221.5 86q74 0 121 -38t47 -99q0 -70 -82 -80q51 -19 51 -49q0 -21 -47 -103
t-47 -121q0 -51 61 -51q95 0 174.5 101.5t79.5 220.5q0 123 -94 215t-278 92q-250 0 -413 -167t-163 -374q0 -147 94 -251.5t293 -104.5q248 0 447 180l28 -37q-198 -217 -495 -217q-230 0 -349.5 126t-119.5 310zM383 125q0 -53 31 -53q61 0 215.5 161.5t154.5 243.5
q0 29 -2 46.5t-17 32.5t-44 15q-111 0 -224.5 -164.5t-113.5 -281.5z" />
    <glyph glyph-name="A" unicode="A" 
d="M0 -51q0 151 301 614q-123 8 -301 8q49 134 238 134q41 0 151 -13q229 332 428 559.5t264 227.5q54 0 140 -80q-68 -51 -194 -490.5t-126 -687.5q0 -162 72 -162q110 0 272 306l37 -39q-65 -174 -167.5 -279.5t-213.5 -105.5q-180 0 -180 317q0 100 27 254
q-105 16 -293 39q-191 -338 -361 -729q-94 49 -94 127zM520 668l136 -31.5t112 -24.5q74 353 217 686q-182 -143 -465 -630z" />
    <glyph glyph-name="B" unicode="B" horiz-adv-x="1331" 
d="M84 -2q0 20 22 20q7 0 28.5 -5t66.5 -9t106 -4q352 0 591 137t239 318q0 243 -527 243h-4q-26 0 -77.5 -1t-73.5 -1q-33 -110 -91.5 -330.5t-87.5 -316.5q-61 0 -106 33t-45 80q0 37 20 94l9 25q4 10 41 125l73 221l88 250q52 141 107 275t106 232q-71 -16 -130.5 -42.5
t-91.5 -44t-44 -17.5q-20 0 -51 29.5t-31 50.5q94 39 152.5 58.5t158 38t205.5 18.5q68 0 129.5 -6.5t135 -28t126 -56t88 -97t35.5 -146.5q0 -285 -428 -387q232 -31 336.5 -125t104.5 -205q0 -141 -97.5 -261t-243 -191.5t-300 -110.5t-285.5 -39q-252 0 -254 176z
M475 774q123 4 227.5 26.5t196.5 65.5t144.5 117t52.5 174q0 246 -385 246q-115 -221 -236 -629z" />
    <glyph glyph-name="C" unicode="C" horiz-adv-x="1167" 
d="M66 328q0 264 129 532t332.5 440.5t408.5 172.5q213 0 213 -187q0 -133 -82 -288.5t-170 -155.5q-51 0 -84 63q78 86 150.5 205t72.5 193q0 79 -92 79q-143 0 -305 -174t-268.5 -428t-106.5 -471q0 -164 74 -276.5t223 -112.5q160 0 320.5 129t246.5 309l54 -34
q-117 -222 -290 -362t-380 -140q-219 0 -332.5 148.5t-113.5 357.5z" />
    <glyph glyph-name="D" unicode="D" horiz-adv-x="1407" 
d="M143 -76q17 131 154 576.5t197 599.5q14 37 31.5 73.5t58.5 80.5t84 44q34 0 77 -28q-122 -281 -246 -670t-190 -690q35 -12 103 -12q159 0 312 100t260.5 251.5t173 332t65.5 340.5q0 237 -119 353t-318 116q-200 0 -333.5 -105.5t-133.5 -263.5q0 -55 19 -98
q-164 0 -164 131q0 151 203 285.5t477 134.5q283 0 417 -158t134 -416q0 -213 -88 -414.5t-230.5 -346t-327 -231.5t-368.5 -87q-170 0 -248 102z" />
    <glyph glyph-name="E" unicode="E" horiz-adv-x="1092" 
d="M-8 207q0 184 150.5 341t371.5 187q-147 129 -147 309q0 170 125.5 299.5t318.5 129.5q125 0 192.5 -60.5t67.5 -175.5q0 -117 -58.5 -216t-117.5 -99q-51 0 -98 84q180 147 180 274q0 59 -40 92t-108 33q-131 0 -205.5 -113.5t-74.5 -265.5q0 -215 151 -332
q-213 -32 -348 -180.5t-135 -310.5q0 -111 65.5 -200t200.5 -89q162 0 321 131t247 313l55 -34q-121 -228 -295 -365t-383 -137q-192 0 -314 110.5t-122 274.5z" />
    <glyph glyph-name="F" unicode="F" horiz-adv-x="1069" 
d="M150 610q14 162 301 170q124 344 223 545q-33 4 -74 4q-178 0 -245.5 -54t-67.5 -169q0 -84 41 -184q-178 28 -178 178q0 157 169.5 260.5t423.5 103.5q76 0 218.5 -14t201.5 -14q94 0 207 30q-94 -104 -156.5 -143t-126.5 -39q-32 0 -133.5 14.5t-160.5 18.5
q-56 -131 -185 -539q49 -4 176 -17t207 -16q-47 -63 -113.5 -78.5t-308.5 -19.5l-84 -289q-100 -348 -100 -536q-102 6 -139 48t-37 118q0 202 190 649q-198 -19 -249 -27z" />
    <glyph glyph-name="G" unicode="G" horiz-adv-x="1198" 
d="M66 336q0 192 77.5 398t198.5 368t278.5 266.5t309.5 104.5q125 0 184.5 -69t59.5 -173q0 -113 -57.5 -211t-135.5 -98q-51 0 -86 67q49 35 106.5 131.5t57.5 165.5q0 96 -111 96q-149 0 -312 -176t-268.5 -428t-105.5 -465q0 -180 79 -286.5t196 -106.5q157 0 273 184.5
t134 399.5q-100 20 -219 20q-37 0 -135 -4q35 139 164 139q69 0 204.5 -45t171.5 -53q-90 -278 -113.5 -371.5t-23.5 -187.5q0 -31 3 -94.5t3 -97.5q-139 16 -139 172q0 26 2 41q-166 -201 -375 -201q-180 0 -300.5 138t-120.5 376z" />
    <glyph glyph-name="H" unicode="H" horiz-adv-x="1358" 
d="M147 -178q46 291 213 805q-112 -13 -133 -13q0 115 179 152l169 496q25 73 25 98q0 29 -27 29q-77 0 -156 -127t-79 -228q0 -33 20 -92q-161 0 -161 133q0 135 148.5 267.5t281.5 132.5q114 0 114 -111q0 -37 -16 -90l-150 -492q33 2 103 2q184 0 358 -16
q123 414 201 594q49 115 147 115q-108 -297 -215 -719q17 0 81.5 -3t97.5 -3q-95 -95 -203 -95q-119 -497 -119 -727q0 -53 10 -108q-104 10 -142 50t-38 140q0 176 148 643q-334 -2 -474 -14q-2 -6 -14 -48t-65 -208l-132 -424q-20 -67 -72 -103t-100 -36z" />
    <glyph glyph-name="I" unicode="I" horiz-adv-x="1030" 
d="M-37 -180q6 63 34 103t81 58.5t105.5 24.5t131.5 6q84 181 205 710t148 607q-254 -4 -486 -49q21 102 128.5 147.5t326.5 45.5q246 0 594 -46q-101 -96 -238 -96q-155 0 -221 -2l-12 -61q-4 -25 -75 -413t-103 -519q-62 -246 -148 -328q27 -2 193 -18.5t270 -18.5
q-121 -114 -272 -114h-4q-285 0 -396.5 -6.5t-261.5 -30.5z" />
    <glyph glyph-name="J" unicode="J" horiz-adv-x="901" 
d="M-37 100q0 136 45 244.5t123 108.5q29 0 80 -23q-78 -188 -78 -330q0 -82 34 -129t93 -47q51 0 92 45t82 156q70 199 160 579.5t135 634.5q-250 -6 -438 -47q14 97 101 137.5t267 40.5q201 0 471 -45q-51 -84 -186 -84q-24 0 -67 -1t-52 -1q27 -34 27 -79
q-2 -109 -89 -503.5t-194 -627.5q-137 -305 -356 -305q-250 0 -250 276z" />
    <glyph glyph-name="K" unicode="K" horiz-adv-x="1305" 
d="M88 -141q43 92 88 223l162 465l252 715q24 73 24 88q0 39 -41 39q-90 0 -166.5 -126t-76.5 -227q0 -47 20 -94q-164 0 -164 133t149.5 266.5t282.5 133.5q113 0 113 -119q0 -39 -14 -82l-152 -492q25 15 142 105q370 287 573 594q41 -39 41 -111q0 -231 -756 -715
q109 -168 172.5 -257t193.5 -222t306 -268q-18 -35 -55 -60.5t-72 -25.5q-109 0 -294 242.5t-320 498.5l-187 -602q-10 -35 -33.5 -57.5t-59.5 -31.5t-62.5 -11t-65.5 -2z" />
    <glyph glyph-name="L" unicode="L" horiz-adv-x="1249" 
d="M-131 82q0 102 168 102q100 0 258 -41q33 58 67.5 146t57.5 155l61 191q41 125 58 172q-101 33 -157 94.5t-56 128.5q0 66 48 121t124 55q-41 -53 -41 -139q0 -127 106 -188q43 131 84 226t96.5 185t124 137.5t148.5 47.5q86 0 156.5 -52.5t70.5 -169.5q0 -75 -31.5 -154
t-93 -153t-171 -121t-249.5 -47q-157 -479 -280 -667q397 -119 543 -119q88 0 180 45q-78 -215 -246 -215q-43 0 -94 10t-117 33.5t-110 41t-124.5 53.5t-111.5 48q-111 -117 -238 -117q-100 0 -165.5 62.5t-65.5 128.5zM80 -33q47 0 78.5 19.5t72.5 62.5q-145 53 -215 53
q-73 0 -73 -47q0 -37 41 -62.5t96 -25.5zM721 846q110 8 201.5 93t134.5 184.5t43 179.5q0 92 -68 92q-43 0 -84 -41t-82 -126t-71.5 -167t-73.5 -215z" />
    <glyph glyph-name="M" unicode="M" horiz-adv-x="1651" 
d="M-10 -178q12 37 88 198l246 533l323 704q19 41 19 68q0 45 -60 45q-117 0 -181.5 -102.5t-64.5 -227.5q0 -43 9 -98q-68 0 -107 58.5t-39 127.5q0 129 136.5 238t285.5 109q121 0 180.5 -110t59.5 -398q0 -148 -19.5 -402t-19.5 -325q88 264 273.5 607t299.5 513
q33 51 55.5 70.5t57.5 19.5q29 0 90 -23q-68 -145 -168 -639.5t-100 -767.5q0 -26 1 -47.5t3 -35t8 -31.5l6 -25q2 -6 10 -28l13 -31q-129 0 -170 57.5t-41 208.5q0 205 44 434.5t130 560.5q-129 -184 -282.5 -522t-227.5 -555l-14 -4q-15 -6 -29 -6q-68 0 -89.5 78
t-21.5 248q0 104 8.5 356t8.5 371q0 20 -1 61t-1 59l-127 -299l-113 -262l-90 -217l-80 -184l-70 -141q-36 -72 -63 -111t-57.5 -73t-59.5 -47t-59 -13z" />
    <glyph glyph-name="N" unicode="N" horiz-adv-x="1380" 
d="M115 -178l434 1440q14 57 14 79q0 29 -26 29q-82 0 -152 -116.5t-70 -215.5q0 -49 21 -96q-164 0 -164 133t149.5 266.5t274.5 133.5q35 0 64.5 -12.5t53 -42t42 -58.5t35 -83t26.5 -93t23.5 -112t19.5 -116t19 -124q63 -441 94 -601l74 312l81 348q33 133 76 274.5
t78 200.5q61 109 166 109q-119 -310 -260 -870t-141 -785q-80 0 -127.5 38t-69.5 138q-8 33 -211 1139q-240 -871 -326 -1093t-198 -222z" />
    <glyph glyph-name="O" unicode="O" horiz-adv-x="1341" 
d="M66 336q0 258 128 523t338.5 439.5t430.5 174.5q84 0 139 -58q-33 4 -60 4q-172 0 -352 -172t-295.5 -430t-115.5 -493q0 -177 70.5 -290.5t217.5 -113.5q135 0 259 104.5t206 265.5t131 348t49 357q0 113 -21.5 204t-70.5 91q-65 0 -152 -150.5t-114 -281.5
q-129 27 -129 119q0 110 141.5 253.5t257.5 143.5q58 0 99 -43t60.5 -115.5t27.5 -144.5t8 -149q0 -250 -80 -464t-203 -349.5t-265 -211t-275 -75.5q-185 0 -307.5 140t-122.5 374z" />
    <glyph glyph-name="P" unicode="P" horiz-adv-x="1145" 
d="M70 -61q0 34 26 114l160 490q51 155 141 390.5t189 452.5q-68 -14 -130.5 -41.5t-98 -46t-46.5 -18.5q-18 0 -48 29.5t-30 50.5q275 115 482 115q135 0 262 -43t218 -138.5t91 -220.5q0 -123 -72.5 -216t-172 -141t-224.5 -79t-207 -38t-143 -7h-12l-215 -770
q-64 0 -117 33.5t-53 83.5zM473 655q164 11 304.5 60t239.5 151.5t99 239.5q0 141 -108.5 217t-264.5 80q-122 -238 -270 -748z" />
    <glyph glyph-name="Q" unicode="Q" horiz-adv-x="1491" 
d="M90 412q0 256 107.5 498.5t304 403.5t428.5 161q211 0 333.5 -135.5t122.5 -372.5q0 -252 -130 -527.5t-324 -435.5q160 -80 293 -80q32 0 53.5 4t47.5 13.5t44 13.5q-59 -199 -225 -199q-88 0 -168 43t-178 121q-107 -51 -219 -51q-74 0 -126.5 21.5t-76 53t-32.5 58.5
t-9 51q0 49 41 88t127 39q53 0 115.5 -20.5t103.5 -41t119 -65.5q166 150 267 439.5t101 523.5q0 174 -68.5 274.5t-211.5 100.5q-187 0 -344.5 -174.5t-238.5 -417t-81 -477.5q0 -111 25 -205q-201 0 -201 295zM397 39q0 -41 36 -75t110 -34q80 0 182 50q-150 122 -242 122
h-2q-84 0 -84 -63z" />
    <glyph glyph-name="R" unicode="R" horiz-adv-x="1262" 
d="M63 -61q0 22 29 112q158 479 247 720t255 620q-70 -15 -137.5 -42.5t-105.5 -48t-48 -20.5q-18 0 -50 28.5t-32 51.5q287 115 494 115q98 0 192 -22.5t179 -68t136.5 -124t51.5 -181.5q0 -110 -63.5 -194t-151.5 -129t-205 -75t-199 -38t-157 -10l71 -113l78 -121
l72 -104q57 -84 92 -121l92 -104q60 -66 121 -119t135 -109q-8 -39 -48 -64.5t-77 -25.5q-76 0 -198.5 140.5t-225 308.5t-182.5 329l-201 -710q-63 0 -113.5 33.5t-50.5 85.5zM475 694q164 13 300 58t232.5 141t96.5 227q0 146 -104.5 212.5t-262.5 70.5
q-114 -229 -262 -709z" />
    <glyph glyph-name="S" unicode="S" horiz-adv-x="1161" 
d="M8 197q0 151 94.5 217.5t221.5 66.5q-134 -139 -134 -284q0 -111 85 -189t237 -78q150 0 264.5 74t114.5 203q0 92 -68.5 165.5t-165.5 125.5l-194 106q-96 53 -166 136t-70 188q0 116 71 240t213 215.5t312 91.5q256 0 256 -215q0 -105 -50 -233t-114 -226
q-90 18 -90 104q0 58 58.5 208.5t58.5 205.5q0 39 -23.5 58.5t-84.5 19.5q-181 0 -315 -143.5t-134 -278.5q0 -80 67.5 -144.5t164 -112.5t191.5 -103.5t162.5 -144.5t67.5 -206q0 -201 -171 -321.5t-390 -120.5q-194 0 -331.5 98t-137.5 277z" />
    <glyph glyph-name="T" unicode="T" horiz-adv-x="1106" 
d="M156 1260q8 81 82.5 130.5t185.5 67t274 17.5q166 0 412 -25q215 -20 315 -20q-57 -54 -160.5 -82.5t-183.5 -33.5t-200 -5q-168 -414 -332 -1016q-33 -125 -45 -174t-22.5 -113.5t-10.5 -124.5q0 -28 6 -59q-196 0 -201 158q0 81 72 301q45 135 105.5 293.5t101.5 256.5
l111 265l90 213q-340 -4 -600 -49z" />
    <glyph glyph-name="U" unicode="U" horiz-adv-x="1536" 
d="M68 1098q0 133 122.5 254t290.5 121q238 0 238 -265q0 -153 -123 -549q-117 -370 -117 -505q0 -224 170 -224q105 0 197 93.5t143 207t80 234.5l55 219l56 217q39 146 65 225l62 170q34 93 66 135t61 42q45 0 131 -80q-39 -29 -129 -262.5t-170 -542.5t-80 -498
q0 -125 42 -167t150 -42q-22 -37 -74.5 -60.5t-99.5 -23.5q-76 0 -130 66.5t-54 163.5q0 16 4 106q-170 -313 -436 -313q-137 0 -214 82t-77 229.5t123 526t123 546.5q0 185 -111 185q-96 0 -152.5 -111t-56.5 -207q0 -63 27 -131q-182 0 -182 158z" />
    <glyph glyph-name="V" unicode="V" horiz-adv-x="1370" 
d="M70 1106q0 131 118.5 250t278.5 119q137 0 210 -100.5t73 -278.5q0 -160 -63.5 -386.5t-126 -427t-62.5 -298.5q0 -37 10 -53.5t39 -16.5q84 0 209 123t236.5 298t190.5 384t79 366q0 199 -138 244q27 57 68 87t78 30q59 0 106 -74t47 -192q0 -217 -152.5 -541
t-374.5 -570.5t-394 -246.5q-72 0 -134.5 41t-62.5 141q0 80 61.5 267.5t123 427t61.5 446.5q0 119 -26.5 181.5t-98.5 62.5q-96 0 -146.5 -100.5t-50.5 -213.5q0 -74 31 -133q-96 0 -143 45t-47 119z" />
    <glyph glyph-name="W" unicode="W" horiz-adv-x="1952" 
d="M70 1106q0 131 118.5 250t276.5 119q137 0 211 -102.5t74 -291.5q0 -204 -134 -626q-8 -29 -34.5 -104t-41 -123t-28.5 -117.5t-14 -126.5q0 -39 9 -54.5t36 -15.5q102 0 239.5 172t237.5 386t121 355q71 0 117.5 -41t46.5 -84q0 -38 -76 -215q-150 -348 -150 -495
q0 -43 11.5 -60.5t42.5 -17.5q84 0 207.5 125t234.5 302t190.5 385t79.5 359q0 181 -139 228q70 114 152 114h2q55 0 101 -65.5t46 -183.5q0 -160 -93 -395.5t-228.5 -446.5t-306.5 -362.5t-308 -151.5q-80 0 -132 48t-52 128q0 43 20 104q-223 -280 -401 -280h-2
q-27 0 -54.5 6t-63.5 22.5t-58.5 56.5t-22.5 97q0 84 90 377q8 27 32 100.5t34 106.5l26 98q19 66 27 109l18 102q11 59 15 118.5t4 119.5q0 131 -27.5 194.5t-97.5 63.5q-92 0 -144.5 -92.5t-52.5 -208.5q0 -93 31 -150q-96 0 -143 45t-47 119z" />
    <glyph glyph-name="X" unicode="X" horiz-adv-x="1446" 
d="M92 -229q8 86 29.5 127t77.5 96q235 246 471 532q-19 160 -28 326t-12 253t-12.5 162.5t-33 104.5t-70.5 29q-92 0 -145.5 -99.5t-53.5 -211.5q0 -72 27 -132q-182 0 -182 156q0 133 123 250t276 117q68 0 119 -27t80.5 -77t48 -104t27 -131t10.5 -134.5t3 -135t3 -114.5
q276 372 455 733q18 -12 37.5 -46t19.5 -63q0 -79 -142.5 -293.5t-365.5 -486.5q35 -661 197 -661q61 0 145 105.5t215 326.5l45 -37q-137 -270 -235.5 -385t-221.5 -115q-84 0 -144 49t-94 139.5t-51.5 173.5t-27.5 193q-174 -205 -342 -381t-248 -239z" />
    <glyph glyph-name="Y" unicode="Y" horiz-adv-x="1446" 
d="M66 1098q0 133 121.5 255t291.5 122q117 0 178.5 -63.5t61.5 -162.5q0 -71 -57 -276q-74 -264 -74 -373q0 -192 143 -192h2q131 0 244 140t184 351l41 135l49 158q21 65 48.5 136t58.5 109t61 38q62 0 140 -78q-107 -164 -160 -325t-178 -677q-31 -127 -59.5 -219
t-82 -204.5t-116 -184.5t-160.5 -121t-217 -49q-131 0 -213 53.5t-82 149.5q0 65 41 115.5t114 66.5q-22 -100 -22 -139q0 -174 186 -174q115 0 198 67.5t128 183t71.5 224t48 241t38.5 183.5q-181 -291 -428 -291q-129 0 -190.5 71.5t-61.5 190.5q0 103 65.5 348.5
t65.5 333.5q0 148 -111 148q-100 0 -155.5 -105.5t-55.5 -228.5q0 -49 25 -115q-182 0 -182 158z" />
    <glyph glyph-name="Z" unicode="Z" horiz-adv-x="1393" 
d="M-16 68q0 51 41 83.5t133 32.5q98 0 288 -51q175 174 385 510q-129 -6 -337 -35q8 174 323 174q33 0 94 -4q158 269 230 451q-70 20 -164 55q-287 105 -414 105q-225 0 -225 -275q8 -70 18 -88q-151 27 -151 162q0 139 107.5 213t312.5 74q159 0 399 -64.5t342 -64.5
q68 0 102 8q-71 -72 -129 -101q-98 -229 -254 -489q205 -16 234 -16q-49 -66 -100.5 -81.5t-202.5 -19.5q-221 -348 -432 -551q346 -104 489 -104q92 0 184 45q-45 -119 -103 -167t-150 -48q-50 0 -103 10t-120.5 34.5t-102.5 39t-116 51.5t-93 43q-154 -111 -272 -111
q-95 0 -154 56.5t-59 122.5zM51 55q0 -35 38 -66.5t91 -31.5q51 0 170 90q-157 62 -217 62q-82 0 -82 -54z" />
    <glyph glyph-name="bracketleft" unicode="[" horiz-adv-x="897" 
d="M98 -133q15 24 28 79.5t58 297.5l140 772q41 237 117.5 331.5t162.5 94.5q17 0 70 -3t86 -3q139 0 227 49q-4 -125 -64.5 -163t-170.5 -38q-54 0 -222 33q-65 -193 -159.5 -737.5t-114.5 -616.5q227 2 316.5 9.5t185.5 33.5q0 -96 -66.5 -140t-214.5 -44q-166 0 -379 45z
" />
    <glyph glyph-name="backslash" unicode="\" horiz-adv-x="1237" 
d="M354 1483q54 0 103 -34t65 -75q60 -153 160 -565l188 -756q86 -344 129 -395q-61 10 -108 47t-89 118t-74 170t-74 255l-79 321l-98 418z" />
    <glyph glyph-name="bracketright" unicode="]" horiz-adv-x="936" 
d="M29 -180q12 176 241 176q41 0 132.5 -7t119.5 -9q68 192 175.5 771.5t113.5 606.5q-379 0 -555 -47q0 98 65.5 133t202.5 35q174 0 383 -43q-10 -119 -69.5 -517.5t-106.5 -639.5l-18 -95q-6 -37 -31 -106.5t-51.5 -110.5t-73.5 -74.5t-104 -33.5q-299 0 -424 -39z" />
    <glyph glyph-name="asciicircum" unicode="^" horiz-adv-x="430" 
d="M2 950q0 56 91 116t142.5 60t123 -77.5t71.5 -139.5q0 -53 -51 -78q-47 80 -146 168q-112 -36 -204 -98q-27 17 -27 49z" />
    <glyph glyph-name="underscore" unicode="_" horiz-adv-x="1817" 
d="M-4 -150q16 113 177 153t474 40q215 0 514 -18.5t387 -20.5q-194 -127 -348 -127q-162 0 -406.5 10.5t-287.5 10.5q-189 0 -281 -9.5t-229 -38.5z" />
    <glyph glyph-name="grave" unicode="`" horiz-adv-x="283" 
d="M-8 1063q2 39 21.5 59.5t43.5 20.5q58 0 142 -94.5t84 -137.5q0 -18 -14.5 -40.5t-37.5 -32.5q-100 118 -239 225z" />
    <glyph glyph-name="a" unicode="a" horiz-adv-x="909" 
d="M-53 84q0 119 84 264.5t222 249.5t273 104q90 0 150.5 -46t60.5 -117q0 -95 -116 -99q73 -22 73 -59q0 -25 -58 -124t-58 -148q0 -74 61 -74q57 0 146 80t173 239l39 -39q-75 -170 -188 -273t-227 -103q-82 0 -126 54t-44 124q-93 -111 -158.5 -162t-138.5 -51
q-72 0 -120 47t-48 133zM111 74q0 -66 47 -66q26 0 56 15.5t65 46.5l63 61q31 31 70 80l61 78l59 80l50 67q6 10 16 10h4l4 -2q10 33 10 76q0 107 -86 107q-135 0 -277 -201t-142 -352z" />
    <glyph glyph-name="b" unicode="b" horiz-adv-x="838" 
d="M-23 123q0 192 123 517t281 573.5t248 248.5q39 0 60.5 -43t23.5 -98q0 -98 -64.5 -252t-177.5 -304.5t-233 -219.5q-29 -53 -61 -175t-32 -235q0 -198 107 -198q53 0 114.5 48t100.5 119q-74 41 -114 114t-40 157q0 98 53.5 160.5t133.5 62.5q69 0 110 -52t41 -153
q0 -127 -61 -258q6 0 17 -1t20 -1q153 0 264 227l31 -43q-56 -127 -130.5 -187t-191.5 -60q-29 0 -43 2q-139 -222 -342 -222q-115 0 -176.5 72t-61.5 201zM276 674q123 112 230.5 313t109.5 283q-45 -17 -160.5 -208.5t-179.5 -387.5zM414 365q0 -132 88 -193q37 82 37 174
q0 143 -60 143q-26 0 -45.5 -36.5t-19.5 -87.5z" />
    <glyph glyph-name="c" unicode="c" horiz-adv-x="682" 
d="M-12 156q0 200 143 368t311 168q82 0 122 -41t40 -102.5t-29.5 -113.5t-72.5 -52q-39 0 -64 39q66 45 66 153q0 35 -39 35q-100 0 -210 -163.5t-110 -303.5q0 -153 144 -153h2q121 0 247 101.5t191 262.5l41 -37q-74 -186 -227.5 -309t-311.5 -123q-110 0 -176.5 69
t-66.5 202z" />
    <glyph glyph-name="d" unicode="d" horiz-adv-x="1006" 
d="M-33 123q0 115 84 261t223.5 257t274.5 111q100 0 100 -66q0 -33 -24 -47q-17 23 -72 23q-104 0 -203.5 -96.5t-153 -214.5t-53.5 -199q0 -86 66 -86q88 0 215 149.5t221 392.5l80 203l80 193q49 118 84 187t77 142.5t76.5 107.5t65.5 34q22 0 39.5 -17.5t17.5 -44.5
q0 -43 -73 -196l-158 -328q-86 -172 -160 -385t-74 -363q0 -49 9.5 -66.5t31.5 -17.5q70 0 160 82t158 221l39 -32q-68 -168 -186.5 -274.5t-235.5 -106.5q-150 0 -150 178q0 47 17 133q-101 -145 -207.5 -232t-194.5 -87q-67 0 -120.5 47t-53.5 137z" />
    <glyph glyph-name="e" unicode="e" horiz-adv-x="698" 
d="M-35 158q0 186 173 383.5t358 197.5q149 0 149 -137q0 -147 -159.5 -262t-356.5 -135q-4 -21 -4 -47q0 -21 3 -39.5t16.5 -50t49 -51t89.5 -19.5q125 0 255 101.5t210 252.5l40 -33q-81 -184 -234 -296.5t-316 -112.5q-129 0 -201 69.5t-72 178.5zM152 281
q118 14 250.5 118.5t132.5 212.5q0 39 -35 39q-90 0 -196.5 -118.5t-151.5 -251.5z" />
    <glyph glyph-name="f" unicode="f" horiz-adv-x="676" 
d="M-135 -377q0 156 89 463t217 616.5t292 541t295 231.5q86 0 86 -105q0 -170 -171 -395t-388 -369l-33 -82q43 -18 51 -71q14 -84 23.5 -125t30 -90.5t51 -68.5t75.5 -19q68 0 122 49t118 153l45 -33q-61 -124 -142 -187.5t-153 -63.5q-70 0 -145 55q-2 -166 -49.5 -328
t-124 -265t-156.5 -103q-49 0 -91 43t-42 153zM55 -446q56 0 122.5 206.5t66.5 362.5q0 102 -60 209q-161 -475 -161 -688q0 -90 32 -90zM344 750q174 161 283.5 321t109.5 221q0 17 -16 17q-72 0 -172 -155t-205 -404z" />
    <glyph glyph-name="g" unicode="g" horiz-adv-x="825" 
d="M-37 -442q0 49 28.5 97t61.5 80t101.5 72.5t103.5 57.5l117 57q51 129 82 256q-166 -209 -312 -209q-82 0 -130 57.5t-48 151.5q0 205 188.5 369t379.5 164q63 0 97 -22.5t34 -55.5q0 -21 -12.5 -37t-20.5 -18q-37 36 -88 36h-4q-152 0 -279 -154.5t-127 -289.5
q0 -84 64 -84q55 0 136 71.5t161 184.5q22 115 53 165t88 50q27 0 59 -8q0 -53 -45 -213t-108 -332q102 43 197.5 134t136.5 210l36 -37q-45 -129 -160.5 -233.5t-236.5 -159.5q-203 -491 -414 -491q-57 0 -98 33.5t-41 97.5zM55 -422q0 -57 39 -57q41 0 106.5 75.5
t135.5 229.5q-133 -66 -207 -124t-74 -124z" />
    <glyph glyph-name="h" unicode="h" horiz-adv-x="1012" 
d="M10 154q0 184 114 499.5t265.5 562t245.5 246.5q41 0 64.5 -45t23.5 -100q0 -152 -150.5 -410t-328.5 -362q-70 -185 -70 -348q0 -9 1 -23t1 -20q4 6 25.5 63t52.5 120.5t76 132.5t112.5 113t145.5 44q94 0 137 -60.5t43 -142.5q0 -72 -43 -178.5t-43 -147.5
q0 -65 53 -65h2q68 0 167.5 98t162.5 231l33 -34q-76 -168 -183.5 -272.5t-230.5 -104.5q-76 0 -118 40t-42 103q0 41 30 147.5t30 149.5q0 86 -74 86q-70 0 -130 -87t-96 -190.5t-87.5 -190.5t-104.5 -87q-43 0 -63.5 65.5t-20.5 166.5zM287 676q123 112 230.5 313
t107.5 281q-43 -17 -157 -204t-181 -390z" />
    <glyph glyph-name="i" unicode="i" horiz-adv-x="500" 
d="M-16 121q0 82 43 216t116.5 246.5t145.5 112.5q26 0 43.5 -15t17.5 -44q0 -27 -52 -112t-105.5 -192.5t-53.5 -185.5q0 -63 22.5 -85.5t69.5 -22.5q162 0 322 313l31 -33q-72 -180 -182.5 -280t-237.5 -100q-86 0 -133 51t-47 131zM303 942q0 47 52.5 83t111.5 36
q88 0 88 -76q0 -43 -47 -83t-102 -40q-44 0 -73.5 20.5t-29.5 59.5z" />
    <glyph glyph-name="j" unicode="j" horiz-adv-x="465" 
d="M-403 -453q0 101 114.5 208.5t288.5 176.5q74 183 117 416l-35 -55q-25 -39 -37 -62l-35 56q35 63 81 184t82 183.5t81 62.5q27 0 45 -21.5t18 -54.5q0 -55 -42 -247.5t-105 -381.5q74 41 118 72t107.5 97.5t116.5 158.5l37 -25q-37 -75 -78 -132.5t-89 -99.5t-79 -63.5
t-89 -54.5t-77 -45q-80 -213 -185.5 -353t-225.5 -140q-60 0 -94.5 32.5t-34.5 87.5zM-322 -440q0 -35 25 -35q41 0 110.5 80t139.5 221q-133 -68 -204 -138.5t-71 -127.5zM182 946q0 49 54.5 86t113.5 37q84 0 84 -72q0 -51 -45 -90t-104 -39q-41 0 -72 20.5t-31 57.5z" />
    <glyph glyph-name="k" unicode="k" horiz-adv-x="946" 
d="M4 90q0 178 77 425t179 451.5t211 350t168 145.5q35 0 58.5 -43t23.5 -106q0 -146 -121 -332t-303 -293q-109 -256 -127 -493q221 507 455 507q82 0 143 -58t61 -142q0 -76 -57 -134.5t-120.5 -82t-116.5 -25.5q53 -240 161 -240q74 0 156 97.5t149 247.5l29 -35
q-57 -166 -163.5 -287t-217.5 -121q-80 0 -138 70.5t-81.5 154.5t-23.5 156q264 59 264 182q0 37 -23.5 59.5t-66.5 22.5q-197 0 -394 -526q-22 -61 -42.5 -82.5t-59.5 -21.5q-80 0 -80 153zM356 827q101 88 184 212t85 231q-33 -15 -113 -144t-156 -299z" />
    <glyph glyph-name="l" unicode="l" horiz-adv-x="502" 
d="M4 156q0 188 130 510.5t288 565.5t233 243q35 0 59.5 -54.5t26.5 -109.5q0 -94 -70.5 -267.5t-203.5 -368t-279 -308.5q-22 -121 -22 -187v-6q0 -141 88 -141q72 0 152.5 95t144.5 230l49 -26q-90 -187 -198.5 -290t-225.5 -103q-172 0 -172 217zM225 494
q164 178 293 431t129 363q-26 0 -104 -118.5t-170 -310t-148 -365.5z" />
    <glyph glyph-name="m" unicode="m" horiz-adv-x="1352" 
d="M-72 0q123 494 131 524q7 23 44.5 40.5t68.5 17.5t50.5 -18.5t19.5 -49.5q0 -33 -29 -147q229 313 399 313q129 0 129 -172q0 -59 -34 -164q143 211 297 211q73 0 107 -44t34 -110q0 -57 -35 -168.5t-35 -142.5q0 -55 51 -55q129 0 277 319l35 -43q-60 -153 -153 -263.5
t-214 -110.5q-76 0 -117 45t-41 114q0 47 29 141.5t29 129.5q0 61 -47 61q-45 0 -104.5 -65.5t-160.5 -215.5q-26 -36 -64 -107t-48 -87q-37 0 -80 14.5t-43 38.5q0 14 67.5 195.5t67.5 255.5q0 61 -43 61q-84 0 -230.5 -185.5t-219.5 -387.5q-37 0 -87.5 20.5t-50.5 34.5z
" />
    <glyph glyph-name="n" unicode="n" horiz-adv-x="969" 
d="M-78 29q0 2 37 92t69.5 202.5t32.5 190.5q45 49 107 49q72 0 72 -61q0 -56 -35 -183q209 279 387 279q82 0 127 -56.5t45 -133.5q0 -68 -40 -167.5t-40 -140.5q0 -59 49 -59q68 0 146.5 93t142.5 220l35 -28q-162 -367 -367 -367q-78 0 -121 39t-43 102q0 41 29 133.5
t29 137.5q0 80 -72 80q-57 0 -121.5 -46.5t-133.5 -136.5t-105 -145l-97 -154q-88 0 -133 60z" />
    <glyph glyph-name="o" unicode="o" horiz-adv-x="762" 
d="M-25 127q0 135 78 264t168 129q25 0 64 -16q12 94 66.5 155.5t152.5 61.5q82 0 121 -46t39 -120q0 -141 -136 -348q25 -12 58 -12q57 0 122.5 37.5t100.5 115.5l37 -26q-43 -99 -116 -150t-150 -51q-48 0 -103 18q-170 -205 -342 -205q-86 0 -123 55.5t-37 137.5z
M139 133q0 -94 70 -94q74 0 197 145q-117 103 -123 301q-39 -20 -91.5 -142t-52.5 -210zM399 451q0 -48 16.5 -108t43.5 -93q119 170 119 305q0 90 -58 90q-43 0 -82 -57.5t-39 -136.5z" />
    <glyph glyph-name="p" unicode="p" horiz-adv-x="846" 
d="M-197 -522q127 368 170 560.5t105 678.5q2 20 5 27.5t13 13.5t31 6q59 0 90 -32t31 -77q0 -49 -29 -192q152 233 334 233q100 0 165.5 -68.5t65.5 -177t-60 -226.5t-179 -204t-258 -86q-64 0 -104 16.5t-40 37t50 20.5q182 4 306 136t124 282q0 66 -29 109t-86 43
q-94 0 -190.5 -104.5t-143.5 -211.5q-29 -100 -63 -239l-56 -234q-22 -92 -50 -182t-57.5 -135t-62.5 -45q-24 0 -52 18t-30 33z" />
    <glyph glyph-name="q" unicode="q" horiz-adv-x="854" 
d="M-29 115q0 121 86 265t228.5 247.5t281.5 103.5q78 0 131.5 -32.5t53.5 -82.5q0 -55 -43 -77q41 -9 41 -54q0 -36 -74 -164t-105 -262q195 25 334 287l37 -33q-137 -276 -371 -315q35 -100 35 -215q0 -154 -45 -255t-119 -101q-88 0 -88 161q0 99 26 263.5t66 306.5
q-186 -232 -305 -232q-61 0 -115.5 48.5t-54.5 140.5zM141 141q0 -39 17.5 -64.5t50.5 -25.5q37 0 83 35t102.5 108.5t92.5 127.5l101 149q49 76 80 76q0 45 -31 71.5t-82 26.5q-82 0 -162 -57.5t-133 -139t-86 -165.5t-33 -142zM477 -397q0 -43 8 -43q33 0 33 235
q0 58 -6 96q-35 -167 -35 -288z" />
    <glyph glyph-name="r" unicode="r" horiz-adv-x="743" 
d="M0 266q94 168 166 371q-21 20 -21 55q0 53 33 100.5t64 47.5q20 0 33.5 -24.5t13.5 -41.5q0 -8 -11.5 -40t-11.5 -36q2 -18 37 -43.5t76 -50t74.5 -73t33.5 -107.5q0 -66 -53 -180.5t-53 -147.5q0 -47 51 -47q90 0 200.5 101.5t155.5 199.5l50 -37q-64 -143 -196 -254.5
t-263 -111.5q-76 0 -123 40t-47 107q0 60 58.5 189t58.5 176q0 78 -103 131q-80 -197 -192 -383z" />
    <glyph glyph-name="s" unicode="s" horiz-adv-x="719" 
d="M-41 176q0 72 25.5 109t65.5 53t44 20q131 136 199 281v20q0 150 92 150q45 0 49 -41q0 -6 -5 -29.5t-5 -44.5q0 -55 59.5 -222t59.5 -265q0 -35 -8 -84q139 35 241 231l25 -18q-84 -244 -285 -275q-33 -81 -106.5 -123t-169.5 -42q-144 0 -212.5 82.5t-68.5 197.5z
M72 172q0 -74 41 -130t112 -56q90 0 131 80q-80 16 -147.5 62t-108.5 99q-28 -6 -28 -55zM131 301q35 -59 98.5 -107.5t143.5 -66.5q6 18 6 63q0 43 -8.5 95.5t-14.5 82t-24.5 100.5t-22.5 89q-100 -174 -178 -256z" />
    <glyph glyph-name="t" unicode="t" horiz-adv-x="590" 
d="M-14 121q0 160 112 467q-53 10 -71 18v64q49 -6 98 -11q92 232 197.5 398t171.5 166q22 0 39.5 -16.5t17.5 -43.5q0 -37 -39 -109.5t-110.5 -193.5t-114.5 -207q235 0 375 15v-68q-244 -25 -412 -25q-107 -251 -107 -411q0 -84 27 -119t84 -35q102 0 209.5 93.5
t187.5 252.5l29 -20q-84 -191 -217 -310.5t-277 -119.5q-94 0 -147 54t-53 161z" />
    <glyph glyph-name="u" unicode="u" horiz-adv-x="903" 
d="M-2 152q0 116 67.5 287t118.5 171q43 0 97 -53q-43 -63 -89.5 -182t-46.5 -205q0 -123 62 -123q53 0 131 101.5t132 206t99 204.5q123 -20 123 -70q0 -4 -32.5 -76.5t-64.5 -166.5t-32 -152q0 -71 53 -71h2q68 0 167.5 91t170.5 236l31 -24q-69 -166 -192 -276.5
t-238 -110.5q-39 0 -66.5 15t-42 35.5t-22.5 55.5t-9 59.5t-1 63.5q-45 -70 -78 -112t-84 -79.5t-98 -37.5q-68 0 -113 63.5t-45 149.5z" />
    <glyph glyph-name="v" unicode="v" horiz-adv-x="840" 
d="M16 166q0 57 9 244q2 65 14 85.5t63 20.5q48 0 58 -17.5t10 -80.5q0 -41 -5 -131t-5 -135q0 -70 7 -96.5t30 -26.5q65 0 158.5 130t162.5 287q4 132 30.5 183t76.5 51q45 0 66.5 -28.5t21.5 -61.5q0 -19 -33 -86.5t-33 -167.5q0 -143 88 -143q82 0 160 151l23 -18
q-87 -203 -218 -203q-125 0 -174 190q-215 -393 -374 -393q-136 0 -136 246z" />
    <glyph glyph-name="w" unicode="w" 
d="M-2 152q0 118 68.5 289t117.5 171q19 0 52.5 -18.5t42.5 -40.5q-43 -61 -88.5 -180t-45.5 -205q0 -121 64 -121q104 0 293 367q24 125 40.5 155.5t47.5 30.5q82 0 82 -59q0 -6 -10 -37q-46 -146 -46 -371q0 -104 37 -104q54 0 141 119.5t160 271.5q0 260 113 260
q45 0 67.5 -29.5t22.5 -58.5q0 -10 -27 -70q-40 -82 -40 -182q0 -152 90 -152q77 0 157 156l39 -31q-78 -186 -213 -186q-127 0 -188 170q-215 -375 -379 -375q-113 0 -121 205q0 10 2 63.5t4 75.5q-180 -327 -321 -327h-2q-68 0 -114 62t-46 151z" />
    <glyph glyph-name="x" unicode="x" horiz-adv-x="881" 
d="M16 295q17 29 42.5 85t46 95t50 79t72.5 61.5t99 21.5q77 0 120 -44t68 -130q217 217 272 217q17 0 37.5 -14.5t30.5 -38.5q-39 0 -128 -76t-196 -193q2 -14 7.5 -60t11.5 -84t17.5 -79t31.5 -65.5t49 -24.5q64 0 151 102.5t134 202.5l33 -31q-58 -149 -165.5 -261.5
t-215.5 -112.5q-146 0 -187 252q-125 -142 -250 -299q-16 -19 -34 -19q-17 0 -27 13.5t-10 27.5q0 80 305 404q-10 61 -15.5 89.5t-15.5 61.5t-24.5 44t-36.5 11q-27 0 -51.5 -16t-49 -50t-44 -65.5t-47 -82t-46.5 -78.5z" />
    <glyph glyph-name="y" unicode="y" horiz-adv-x="819" 
d="M-41 -440q0 49 28.5 96t61.5 80t101.5 72.5t105.5 56.5l111 55q34 88 98 320q-158 -224 -295 -224q-68 0 -121 41t-53 129q0 111 69.5 279t118.5 168q21 0 62 -21.5t49 -46.5q-39 -53 -85 -178t-46 -197q0 -75 57 -75h2q115 0 271 247q2 5 9 47t15 70.5t37 56t70 27.5
q8 0 65 -8q-2 -51 -48 -223t-107 -336q233 96 329 346l35 -29q-78 -256 -391 -395q-207 -491 -410 -491q-57 0 -98 33.5t-41 99.5zM39 -440q0 -58 39 -58q43 0 112.5 87t137.5 241q-289 -145 -289 -270z" />
    <glyph glyph-name="z" unicode="z" horiz-adv-x="678" 
d="M84 -186l143 84q90 53 146 90q-6 133 -172 252q112 30 180 116t68 170q0 97 -84 97q-35 0 -71 -21.5t-64.5 -53.5t-61.5 -84t-57 -99l-56 -113l-39 33q78 213 163 325.5t216 112.5q88 0 145.5 -48t57.5 -136q0 -95 -65.5 -181t-165.5 -137q88 -69 133 -168
q166 127 227 287l27 -33q-62 -180 -234 -307q8 -37 8 -68q0 -184 -156.5 -344.5t-355.5 -160.5q-155 0 -155 116q0 56 26.5 102t84 91t112.5 78zM-68 -440q0 -56 56 -56q92 0 224 117t157 285q-45 -29 -121 -74l-123 -70q-45 -26 -95 -63t-74 -71t-24 -68z" />
    <glyph glyph-name="braceleft" unicode="{" horiz-adv-x="623" 
d="M127 -31q0 70 74.5 248t74.5 268q0 123 -106 205q98 8 145 93t56 198l18 227q8 111 57.5 189t149.5 78q127 0 127 -80q0 -29 -16 -60q-58 31 -80 31q-19 0 -34 -11.5t-26.5 -37t-19.5 -49t-15 -68.5l-10 -72q-4 -28 -10 -81q-14 -121 -23.5 -181.5t-38 -126t-73.5 -82.5
q43 -49 43 -139q0 -125 -75 -311.5t-75 -253.5q0 -53 62 -53q35 0 65 20q-6 -98 -110 -98q-84 0 -122 42t-38 105z" />
    <glyph glyph-name="bar" unicode="|" horiz-adv-x="602" 
d="M160 -270q55 145 91 524t60.5 737.5t48.5 438.5q82 -33 82 -181q-2 -219 -16 -593.5t-31 -542.5q-33 -383 -235 -383z" />
    <glyph glyph-name="braceright" unicode="}" horiz-adv-x="616" 
d="M8 -72q0 27 4 43q56 -37 88 -37q52 0 76.5 90.5t42.5 249.5q14 119 24.5 184.5t43 144.5t82.5 112q-47 55 -47 139q0 96 70.5 280.5t70.5 215.5q0 43 -45 43q-31 0 -64 -23q-2 6 -2 19q0 45 35 74.5t102 29.5q127 0 127 -96q0 -45 -73.5 -222.5t-73.5 -287.5
q0 -137 102 -199q-102 -24 -151 -123.5t-58 -222.5l-16 -240q-8 -118 -55 -199t-148 -81q-135 0 -135 106z" />
    <glyph glyph-name="asciitilde" unicode="~" horiz-adv-x="977" 
d="M121 326q88 100 176 100q43 0 190.5 -40t198.5 -40q23 0 121 16q-109 -110 -191 -110q-47 0 -190 44t-194.5 44t-110.5 -14z" />
    <glyph glyph-name="Euro" unicode="&#x20ac;" horiz-adv-x="1493" 
d="M61 313q2 148 234 162l10 68q-96 -4 -207 -27q0 141 242 162q104 321 341 558t476 237q213 0 213 -189q0 -129 -82 -285.5t-170 -156.5q-51 0 -84 63q78 86 150.5 204t72.5 195.5t-92 77.5q-161 0 -338.5 -213t-271.5 -493l152 -14q133 -15 217 -17q-50 -65 -112 -79.5
t-296 -18.5l-14 -70q55 -4 177 -17.5t206 -15.5q-49 -65 -110.5 -78.5t-289.5 -17.5q0 -90 9.5 -156.5t34 -133t80 -102.5t139.5 -36q165 0 341.5 131t260.5 307l55 -34q-115 -215 -304.5 -358.5t-402.5 -143.5q-110 0 -192 42t-129 114.5t-70.5 161.5t-25.5 196
q-183 -17 -220 -23z" />
    <glyph glyph-name="ellipsis" unicode="&#x2026;" horiz-adv-x="1124" 
d="M57 57q0 35 44 72t85 37q68 0 68 -64q0 -32 -29.5 -77t-77.5 -45q-45 0 -67.5 23.5t-22.5 53.5zM362 57q0 35 44.5 72t85.5 37q67 0 67 -64q0 -32 -29.5 -77t-76.5 -45q-45 0 -68 23.5t-23 53.5zM686 57q0 35 44 72t85 37q68 0 68 -64q0 -32 -30 -77t-77 -45
q-45 0 -67.5 23.5t-22.5 53.5z" />
    <glyph glyph-name="quoteleft" unicode="&#x2018;" horiz-adv-x="375" 
d="M379 1483q10 -35 76.5 -113t66.5 -113q0 -45 -69 -83q-15 22 -59 77.5t-68.5 94t-24.5 65.5t24.5 49.5t53.5 22.5z" />
    <glyph glyph-name="quoteright" unicode="&#x2019;" horiz-adv-x="336" 
d="M293 1253q0 35 66.5 113t76.5 113q29 0 53.5 -22.5t24.5 -49.5t-24.5 -65.5t-68.5 -94t-59 -78.5q-69 39 -69 84z" />
    <glyph glyph-name="quotedblleft" unicode="&#x201c;" horiz-adv-x="629" 
d="M379 1483q10 -35 76.5 -113t66.5 -113q0 -45 -69 -83q-15 22 -59 77.5t-68.5 94t-24.5 65.5t24.5 49.5t53.5 22.5zM633 1483q10 -35 76.5 -113t66.5 -113q0 -45 -69 -83q-15 22 -59 77.5t-68.5 94t-24.5 65.5t24.5 49.5t53.5 22.5z" />
    <glyph glyph-name="quotedblright" unicode="&#x201d;" horiz-adv-x="594" 
d="M295 1257q0 35 66.5 113t76.5 113q29 0 53.5 -22.5t24.5 -49.5t-24.5 -65.5t-68.5 -94t-58 -77.5q-70 40 -70 83zM549 1257q0 35 66.5 113t76.5 113q29 0 53.5 -22.5t24.5 -49.5t-24.5 -65.5t-68.5 -94t-59 -77.5q-69 40 -69 83z" />
    <glyph glyph-name="trademark" unicode="&#x2122;" horiz-adv-x="1190" 
d="M303 1368q2 62 106.5 80t307.5 18h162q55 0 81.5 -46t26.5 -171q0 -67 -8 -166q27 45 75 152.5t86 164t79 56.5q20 0 57 -22q-102 -260 -102 -498q0 -84 18 -133q-74 0 -98.5 23.5t-24.5 88.5q0 93 37 269q-29 -60 -69 -154t-61.5 -128t-47.5 -34q-49 0 -49 121
q0 23 4 119t4 141q-125 -288 -173 -367t-114 -79l127 272q94 201 141 311q-34 3 -114 3q-90 0 -146 -7q-8 -24 -53 -145t-71.5 -214t-26.5 -163q0 -35 8 -57q-123 0 -123 69q0 46 57.5 209.5t120.5 298.5q-41 0 -217 -12z" />
    <glyph glyph-name=".notdef.106" unicode="&#xc0;" 
d="M0 -51q0 151 301 614q-123 8 -301 8q49 134 238 134q41 0 151 -13q229 332 428 559.5t264 227.5q54 0 140 -80q-68 -51 -194 -490.5t-126 -687.5q0 -162 72 -162q110 0 272 306l37 -39q-65 -174 -167.5 -279.5t-213.5 -105.5q-180 0 -180 317q0 100 27 254
q-105 16 -293 39q-191 -338 -361 -729q-94 49 -94 127zM520 668l136 -31.5t112 -24.5q74 353 217 686q-182 -143 -465 -630zM999 1825q2 38 21.5 58.5t44.5 20.5q57 0 141 -94t84 -137q0 -18 -14.5 -41t-36.5 -33q-101 119 -240 226z" />
    <glyph glyph-name=".notdef.107" unicode="&#xc1;" 
d="M0 -51q0 151 301 614q-123 8 -301 8q49 134 238 134q41 0 151 -13q229 332 428 559.5t264 227.5q54 0 140 -80q-68 -51 -194 -490.5t-126 -687.5q0 -162 72 -162q110 0 272 306l37 -39q-65 -174 -167.5 -279.5t-213.5 -105.5q-180 0 -180 317q0 100 27 254
q-105 16 -293 39q-191 -338 -361 -729q-94 49 -94 127zM520 668l136 -31.5t112 -24.5q74 353 217 686q-182 -143 -465 -630zM1028 1666q0 41 76.5 138t134.5 97q53 0 61 -71q-174 -168 -223 -232q-23 11 -36 32.5t-13 35.5z" />
    <glyph glyph-name=".notdef.111" unicode="&#xc2;" 
d="M0 -51q0 151 301 614q-123 8 -301 8q49 134 238 134q41 0 151 -13q229 332 428 559.5t264 227.5q54 0 140 -80q-68 -51 -194 -490.5t-126 -687.5q0 -162 72 -162q110 0 272 306l37 -39q-65 -174 -167.5 -279.5t-213.5 -105.5q-180 0 -180 317q0 100 27 254
q-105 16 -293 39q-191 -338 -361 -729q-94 49 -94 127zM520 668l136 -31.5t112 -24.5q74 353 217 686q-182 -143 -465 -630zM936 1616q0 55 92.5 115.5t145.5 60.5q51 0 123.5 -78t72.5 -139q0 -53 -51 -80q-47 80 -147 170q-94 -31 -209 -106q-27 16 -27 57z" />
    <glyph glyph-name=".notdef.109" unicode="&#xc3;" 
d="M0 -51q0 151 301 614q-123 8 -301 8q49 134 238 134q41 0 151 -13q229 332 428 559.5t264 227.5q54 0 140 -80q-68 -51 -194 -490.5t-126 -687.5q0 -162 72 -162q110 0 272 306l37 -39q-65 -174 -167.5 -279.5t-213.5 -105.5q-180 0 -180 317q0 100 27 254
q-105 16 -293 39q-191 -338 -361 -729q-94 49 -94 127zM520 668l136 -31.5t112 -24.5q74 353 217 686q-182 -143 -465 -630zM915 1656q28 49 75 88.5t91 39.5q47 0 134.5 -44.5t136.5 -44.5q72 0 132 15q-87 -122 -167 -122q-51 0 -143 43t-134 43q-58 0 -125 -18z" />
    <glyph glyph-name="paragraph" unicode="&#xb6;" horiz-adv-x="1405" 
d="M145 688q0 143 102.5 257t246 172.5t305.5 72.5q-6 135 -25 256q41 20 76 20q33 0 53.5 -25.5t28.5 -73.5t10 -84t2 -89q4 0 40 -5t48 -9q-10 194 -20 264q32 22 69 22q74 0 97 -321q77 -23 184 -70q-8 -20 -49 -48t-56 -28q-6 0 -75 33q10 -121 10 -272q0 -758 -23 -830
q-14 -49 -64 -78.5t-110 -29.5q4 12 13.5 178t17.5 429t8 480q0 33 -1 95.5t-1 91.5q-8 2 -22.5 5t-31.5 5t-26 4q17 -287 17 -631q0 -479 -23 -547q-16 -45 -81.5 -77.5t-131.5 -32.5q12 217 35 489q-55 4 -110.5 11.5t-130 22.5t-138 44t-121 67t-90.5 98t-33 134z" />
    <glyph glyph-name="copyright" unicode="&#xa9;" horiz-adv-x="1270" 
d="M180 733q0 174 83 300t200 181.5t246 55.5q94 0 188 -34t174 -96.5t129 -167t49 -231.5q0 -174 -87 -300t-206.5 -181t-250.5 -55q-203 0 -361 139t-164 389zM264 741q0 -198 121 -324t320 -126q200 0 330 126t130 324q0 193 -128 318t-326 125q-197 0 -322 -123
t-125 -320zM530 614v265q0 194 181 194q92 0 141 -52t49 -103q0 -50 -45 -50q-27 0 -39 18.5t-14 42t-23.5 42t-64.5 18.5q-94 0 -94 -110v-265q0 -59 22.5 -84.5t81.5 -25.5q43 0 63.5 18.5t22.5 42t12.5 42t32.5 18.5q49 0 49 -43q0 -68 -49 -114t-133 -46
q-86 0 -139.5 47t-53.5 145z" />
    <glyph glyph-name="registered" unicode="&#xae;" horiz-adv-x="1268" 
d="M180 733q0 174 85 300t204 181.5t248 55.5q131 0 248.5 -56.5t200.5 -180.5t83 -292q0 -172 -88 -299t-210 -182t-251 -55t-244.5 56t-195.5 180t-80 292zM264 735q0 -192 119 -318t317.5 -126t331.5 126t133 326q0 193 -122.5 317t-321.5 124t-328 -124t-129 -325z
M539 1030q0 17 12 29t31 12h133q86 0 144.5 -43t58.5 -139q0 -141 -119 -172l51 -99l49 -90q21 -36 21 -41q6 -12 6 -22q0 -14 -15.5 -27.5t-31.5 -13.5q-31 0 -62 63l-112 222h-66v-242q0 -21 -14.5 -32t-30.5 -11q-19 0 -33 11t-14 32zM635 791h86q104 0 104 98
q0 100 -106 100h-84v-198z" />
    <glyph glyph-name="degree" unicode="&#xb0;" horiz-adv-x="600" 
d="M229 928q0 76 76 149.5t178 73.5q84 0 126 -33t42 -84q0 -78 -77.5 -150.5t-182.5 -72.5q-80 0 -121 33t-41 84zM324 930q0 -53 75 -53q56 0 109 53t53 104q0 49 -78 49q-59 0 -109 -51t-50 -102z" />
    <glyph glyph-name="plusminus" unicode="&#xb1;" horiz-adv-x="993" 
d="M115 150q16 116 385 116q198 0 368 -18q-82 -45 -146.5 -55.5t-219.5 -14.5q-185 -4 -387 -28zM119 580q39 100 307 110v64q0 100 70 190q18 -102 28 -254q123 -2 336 -18q-121 -74 -244 -74h-92q-2 -117 -25.5 -185.5t-95.5 -93.5q23 127 23 279q-176 0 -307 -18z" />
    <glyph glyph-name="onequarter" unicode="&#xbc;" horiz-adv-x="1405" 
d="M106 -178q148 143 473.5 703t438.5 849q12 29 61 56.5t103 27.5q14 0 39 -4q-39 -96 -297 -578.5t-383 -676.5q-121 -187 -223.5 -282t-211.5 -95zM154 707q127 0 172 8q32 80 75 311t45 244q-61 -37 -86 -37q-45 0 -45 53q0 2 39 31l105 74q63 45 104 77q21 -18 21 -47
q0 -53 -107 -555q-20 -100 -43 -139q109 0 129 -96q-86 6 -108 6q-37 0 -92.5 -4t-88.5 -4q-59 0 -120 78zM772 248q0 57 25 78q344 288 446 458q41 -4 43 -43q0 -8 -11 -47t-33.5 -131t-43.5 -207h21q6 0 108 17q-80 -107 -145 -107q-35 -252 -35 -321q-129 6 -129 71
q0 41 43 252q-23 2 -68 2q-131 0 -221 -22zM940 362q12 0 60.5 -1t82.5 -1q23 123 37 168l-57 -51q-35 -35 -70 -64.5t-53 -50.5z" />
    <glyph glyph-name="onehalf" unicode="&#xbd;" horiz-adv-x="1522" 
d="M123 -178q147 145 475 705t438 847q13 33 74 67t115 34q-25 -99 -277 -579t-391 -697q-121 -187 -222.5 -282t-211.5 -95zM158 707q127 0 172 8q32 80 75.5 311t45.5 244q-62 -37 -86 -37q-46 0 -46 53q0 2 39 31l105 74q63 45 104 77q21 -18 21 -47q0 -53 -107 -555
q-20 -100 -43 -139q109 0 129 -96q-86 6 -108 6q-37 0 -92.5 -4t-87.5 -4q-60 0 -121 78zM770 51q0 66 98 66q45 0 107 -13q98 84 178 227.5t80 262.5q0 129 -94 129q-54 0 -86.5 -49t-32.5 -127q0 -39 24 -92h-38q-97 22 -97 106q0 90 70 157.5t176 67.5q86 0 141.5 -57
t55.5 -141q0 -127 -78 -266.5t-195 -237.5q140 -29 181 -29q28 0 114 51q-22 -83 -54 -122t-85 -39q-100 0 -248 73q-69 -41 -121 -41q-41 0 -68.5 20.5t-27.5 53.5zM846 49q0 -6 16 -6q12 0 29 8q-12 2 -28.5 2t-16.5 -4z" />
    <glyph glyph-name="threequarters" unicode="&#xbe;" horiz-adv-x="1501" 
d="M197 791q0 49 27.5 86.5t78.5 37.5q16 0 64 -12q-56 -39 -56 -102q0 -41 28 -74t67 -33q55 0 100 58.5t45 138.5q0 151 -162 188q90 39 149.5 114t59.5 134q0 43 -23.5 66.5t-54.5 23.5q-37 0 -67.5 -29.5t-30.5 -68.5q0 -27 20 -68q-8 -18 -28.5 -32.5t-36.5 -14.5
q-25 0 -41.5 31t-20.5 65q0 78 65.5 124t151.5 46q76 0 131.5 -38.5t55.5 -110.5q0 -61 -40 -128t-104 -99q62 -29 93.5 -83.5t31.5 -111.5q0 -102 -87 -186t-218 -84q-100 0 -149 49t-49 113zM205 -178q131 160 248.5 330t228.5 370l164 299q53 101 159.5 322t110.5 231
q17 37 76 69t115 32q-27 -103 -265.5 -556.5t-406.5 -717.5q-121 -191 -219.5 -285t-210.5 -94zM870 248q0 57 25 78q346 290 434 452l12 6q41 -4 41 -43q0 -14 -10 -52t-31.5 -129t-44.5 -204q27 0 129 17q-79 -107 -145 -107q-35 -252 -35 -321q-129 6 -129 71
q0 41 43 252q-186 0 -289 -20zM1038 362q11 0 58 -1t86 -1q22 123 37 168q-66 -63 -114 -104t-67 -62z" />
    <glyph glyph-name=".notdef.123" unicode="&#xc8;" horiz-adv-x="1092" 
d="M-8 207q0 184 150.5 341t371.5 187q-147 129 -147 309q0 170 125.5 299.5t318.5 129.5q125 0 192.5 -60.5t67.5 -175.5q0 -117 -58.5 -216t-117.5 -99q-51 0 -98 84q180 147 180 274q0 59 -40 92t-108 33q-131 0 -205.5 -113.5t-74.5 -265.5q0 -215 151 -332
q-213 -32 -348 -180.5t-135 -310.5q0 -111 65.5 -200t200.5 -89q162 0 321 131t247 313l55 -34q-121 -228 -295 -365t-383 -137q-192 0 -314 110.5t-122 274.5zM750 1828q2 38 21 58.5t44 20.5q57 0 141 -94t84 -137q0 -18 -14 -41t-37 -33q-100 119 -239 226z" />
    <glyph glyph-name=".notdef.124" unicode="&#xc9;" horiz-adv-x="1092" 
d="M-8 207q0 184 150.5 341t371.5 187q-147 129 -147 309q0 170 125.5 299.5t318.5 129.5q125 0 192.5 -60.5t67.5 -175.5q0 -117 -58.5 -216t-117.5 -99q-51 0 -98 84q180 147 180 274q0 59 -40 92t-108 33q-131 0 -205.5 -113.5t-74.5 -265.5q0 -215 151 -332
q-213 -32 -348 -180.5t-135 -310.5q0 -111 65.5 -200t200.5 -89q162 0 321 131t247 313l55 -34q-121 -228 -295 -365t-383 -137q-192 0 -314 110.5t-122 274.5zM722 1668q0 41 77 138t134 97q54 0 62 -71q-174 -168 -223 -232q-23 11 -36.5 32.5t-13.5 35.5z" />
    <glyph glyph-name=".notdef.128" unicode="&#xca;" horiz-adv-x="1092" 
d="M-8 207q0 184 150.5 341t371.5 187q-147 129 -147 309q0 170 125.5 299.5t318.5 129.5q125 0 192.5 -60.5t67.5 -175.5q0 -117 -58.5 -216t-117.5 -99q-51 0 -98 84q180 147 180 274q0 59 -40 92t-108 33q-131 0 -205.5 -113.5t-74.5 -265.5q0 -215 151 -332
q-213 -32 -348 -180.5t-135 -310.5q0 -111 65.5 -200t200.5 -89q162 0 321 131t247 313l55 -34q-121 -228 -295 -365t-383 -137q-192 0 -314 110.5t-122 274.5zM614 1633q0 55 92.5 115.5t145.5 60.5q51 0 124 -78t73 -139q0 -53 -52 -80q-47 80 -147 170q-94 -31 -209 -106
q-27 16 -27 57z" />
    <glyph glyph-name=".notdef.104" unicode="&#xcc;" horiz-adv-x="1030" 
d="M-37 -180q6 63 34 103t81 58.5t105.5 24.5t131.5 6q84 181 205 710t148 607q-254 -4 -486 -49q21 102 128.5 147.5t326.5 45.5q246 0 594 -46q-101 -96 -238 -96q-155 0 -221 -2l-12 -61q-4 -25 -75 -413t-103 -519q-62 -246 -148 -328q27 -2 193 -18.5t270 -18.5
q-121 -114 -276 -114q-285 0 -396.5 -6.5t-261.5 -30.5zM603 1828q2 38 21.5 58.5t43.5 20.5q58 0 142 -94t84 -137q0 -18 -14.5 -41t-37.5 -33q-100 119 -239 226z" />
    <glyph glyph-name=".notdef.103" unicode="&#xcd;" horiz-adv-x="1030" 
d="M-37 -180q6 63 34 103t81 58.5t105.5 24.5t131.5 6q84 181 205 710t148 607q-254 -4 -486 -49q21 102 128.5 147.5t326.5 45.5q246 0 594 -46q-101 -96 -238 -96q-155 0 -221 -2l-12 -61q-4 -25 -75 -413t-103 -519q-62 -246 -148 -328q27 -2 193 -18.5t270 -18.5
q-121 -114 -276 -114q-285 0 -396.5 -6.5t-261.5 -30.5zM652 1669q0 41 76.5 138t134.5 97q53 0 61 -71q-174 -168 -223 -232q-23 11 -36 32.5t-13 35.5z" />
    <glyph glyph-name=".notdef.099" unicode="&#xd2;" horiz-adv-x="1341" 
d="M66 336q0 258 128 523t338.5 439.5t430.5 174.5q84 0 139 -58q-33 4 -60 4q-172 0 -352 -172t-295.5 -430t-115.5 -493q0 -177 70.5 -290.5t217.5 -113.5q135 0 259 104.5t206 265.5t131 348t49 357q0 113 -21.5 204t-70.5 91q-65 0 -152 -150.5t-114 -281.5
q-129 27 -129 119q0 110 141.5 253.5t257.5 143.5q58 0 99 -43t60.5 -115.5t27.5 -144.5t8 -149q0 -250 -80 -464t-203 -349.5t-265 -211t-275 -75.5q-185 0 -307.5 140t-122.5 374zM860 1826q2 38 21.5 58.5t44.5 20.5q57 0 141 -94t84 -137q0 -18 -14.5 -41t-36.5 -33
q-101 119 -240 226z" />
    <glyph glyph-name=".notdef.098" unicode="&#xd3;" horiz-adv-x="1341" 
d="M66 336q0 258 128 523t338.5 439.5t430.5 174.5q84 0 139 -58q-33 4 -60 4q-172 0 -352 -172t-295.5 -430t-115.5 -493q0 -177 70.5 -290.5t217.5 -113.5q135 0 259 104.5t206 265.5t131 348t49 357q0 113 -21.5 204t-70.5 91q-65 0 -152 -150.5t-114 -281.5
q-129 27 -129 119q0 110 141.5 253.5t257.5 143.5q58 0 99 -43t60.5 -115.5t27.5 -144.5t8 -149q0 -250 -80 -464t-203 -349.5t-265 -211t-275 -75.5q-185 0 -307.5 140t-122.5 374zM914 1667q0 41 77 138t134 97q53 0 62 -71q-175 -168 -224 -232q-22 11 -35.5 32.5
t-13.5 35.5z" />
    <glyph glyph-name=".notdef.094" unicode="&#xd4;" horiz-adv-x="1341" 
d="M66 336q0 258 128 523t338.5 439.5t430.5 174.5q84 0 139 -58q-33 4 -60 4q-172 0 -352 -172t-295.5 -430t-115.5 -493q0 -177 70.5 -290.5t217.5 -113.5q135 0 259 104.5t206 265.5t131 348t49 357q0 113 -21.5 204t-70.5 91q-65 0 -152 -150.5t-114 -281.5
q-129 27 -129 119q0 110 141.5 253.5t257.5 143.5q58 0 99 -43t60.5 -115.5t27.5 -144.5t8 -149q0 -250 -80 -464t-203 -349.5t-265 -211t-275 -75.5q-185 0 -307.5 140t-122.5 374zM825 1630q0 55 92.5 115.5t145.5 60.5q51 0 123.5 -78t72.5 -139q0 -53 -51 -80
q-47 80 -147 170q-94 -31 -209 -106q-27 16 -27 57z" />
    <glyph glyph-name=".notdef.096" unicode="&#xd5;" horiz-adv-x="1341" 
d="M66 336q0 258 128 523t338.5 439.5t430.5 174.5q84 0 139 -58q-33 4 -60 4q-172 0 -352 -172t-295.5 -430t-115.5 -493q0 -177 70.5 -290.5t217.5 -113.5q135 0 259 104.5t206 265.5t131 348t49 357q0 113 -21.5 204t-70.5 91q-65 0 -152 -150.5t-114 -281.5
q-129 27 -129 119q0 110 141.5 253.5t257.5 143.5q58 0 99 -43t60.5 -115.5t27.5 -144.5t8 -149q0 -250 -80 -464t-203 -349.5t-265 -211t-275 -75.5q-185 0 -307.5 140t-122.5 374zM768 1656q28 49 75 88.5t91 39.5q47 0 134.5 -44.5t136.5 -44.5q72 0 132 15
q-87 -122 -167 -122q-51 0 -143 43t-134 43q-58 0 -125 -18z" />
    <glyph glyph-name="multiply" unicode="&#xd7;" horiz-adv-x="829" 
d="M119 94q0 84 168 266q-140 144 -140 224q0 22 19 59q78 -98 194 -213q140 131 273 229q-8 -65 -35 -119.5t-47.5 -79t-62.5 -61.5t-46 -41l101 -92q92 -88 123 -225q-152 111 -295 240l-6 6q-132 -123 -226 -248q-20 33 -20 55z" />
    <glyph glyph-name=".notdef.088" unicode="&#xd9;" horiz-adv-x="1536" 
d="M68 1098q0 133 122.5 254t290.5 121q238 0 238 -265q0 -153 -123 -549q-117 -370 -117 -505q0 -224 170 -224q105 0 197 93.5t143 207t80 234.5l55 219l56 217q39 146 65 225l62 170q34 93 66 135t61 42q45 0 131 -80q-39 -29 -129 -262.5t-170 -542.5t-80 -498
q0 -125 42 -167t150 -42q-22 -37 -74.5 -60.5t-99.5 -23.5q-76 0 -130 66.5t-54 163.5q0 16 4 106q-170 -313 -436 -313q-137 0 -214 82t-77 229.5t123 526t123 546.5q0 185 -111 185q-96 0 -152.5 -111t-56.5 -207q0 -63 27 -131q-182 0 -182 158zM858 1826q2 38 21.5 58.5
t44.5 20.5q57 0 141 -94t84 -137q0 -18 -14.5 -41t-36.5 -33q-100 119 -240 226z" />
    <glyph glyph-name=".notdef.087" unicode="&#xda;" horiz-adv-x="1536" 
d="M68 1098q0 133 122.5 254t290.5 121q238 0 238 -265q0 -153 -123 -549q-117 -370 -117 -505q0 -224 170 -224q105 0 197 93.5t143 207t80 234.5l55 219l56 217q39 146 65 225l62 170q34 93 66 135t61 42q45 0 131 -80q-39 -29 -129 -262.5t-170 -542.5t-80 -498
q0 -125 42 -167t150 -42q-22 -37 -74.5 -60.5t-99.5 -23.5q-76 0 -130 66.5t-54 163.5q0 16 4 106q-170 -313 -436 -313q-137 0 -214 82t-77 229.5t123 526t123 546.5q0 185 -111 185q-96 0 -152.5 -111t-56.5 -207q0 -63 27 -131q-182 0 -182 158zM920 1668q0 41 77 138
t134 97q53 0 62 -71q-174 -168 -224 -232q-22 11 -35.5 32.5t-13.5 35.5z" />
    <glyph glyph-name=".notdef.070" unicode="&#xdd;" horiz-adv-x="1446" 
d="M66 1098q0 133 121.5 255t291.5 122q117 0 178.5 -63.5t61.5 -162.5q0 -71 -57 -276q-74 -264 -74 -373q0 -192 145 -192q131 0 244 140t184 351l41 135l49 158q21 65 48.5 136t58.5 109t61 38q62 0 140 -78q-107 -164 -160 -325t-178 -677q-31 -127 -59.5 -219
t-82 -204.5t-116 -184.5t-160.5 -121t-217 -49q-131 0 -213 53.5t-82 149.5q0 65 41 115.5t114 66.5q-22 -100 -22 -139q0 -174 186 -174q115 0 198 67.5t128 183t71.5 224t48 241t38.5 183.5q-181 -291 -428 -291q-129 0 -190.5 71.5t-61.5 190.5q0 103 65.5 348.5
t65.5 333.5q0 148 -111 148q-100 0 -155.5 -105.5t-55.5 -228.5q0 -49 25 -115q-182 0 -182 158zM954 1667q0 41 77 138t134 97q54 0 62 -71q-174 -168 -223 -232q-23 11 -36.5 32.5t-13.5 35.5z" />
    <glyph glyph-name=".notdef.066" unicode="&#xe0;" horiz-adv-x="909" 
d="M-53 84q0 119 84 264.5t222 249.5t273 104q90 0 150.5 -46t60.5 -117q0 -95 -116 -99q73 -22 73 -61q0 -23 -58 -122t-58 -148q0 -74 61 -74q57 0 146 80t173 239l39 -39q-75 -170 -188 -273t-227 -103q-82 0 -126 54t-44 124q-93 -111 -158.5 -162t-138.5 -51
q-72 0 -120 47t-48 133zM111 74q0 -66 47 -66q26 0 56 15.5t65 46.5l63 61q31 31 70 80l61 78l59 80l50 67q6 10 16 10h4l4 -2q10 33 10 76q0 107 -86 107q-135 0 -277 -201t-142 -352zM386 1026q2 39 21.5 59.5t43.5 20.5q57 0 141 -94.5t84 -137.5q0 -18 -14 -40.5
t-37 -32.5q-100 118 -239 225z" />
    <glyph glyph-name=".notdef.065" unicode="&#xe1;" horiz-adv-x="909" 
d="M-53 84q0 119 84 264.5t222 249.5t273 104q90 0 150.5 -46t60.5 -117q0 -95 -116 -99q73 -22 73 -61q0 -23 -58 -122t-58 -148q0 -74 61 -74q57 0 146 80t173 239l39 -39q-75 -170 -188 -273t-227 -103q-82 0 -126 54t-44 124q-93 -111 -158.5 -162t-138.5 -51
q-72 0 -120 47t-48 133zM111 74q0 -66 47 -66q26 0 56 15.5t65 46.5l63 61q31 31 70 80l61 78l59 80l50 67q6 10 16 10h4l4 -2q10 33 10 76q0 107 -86 107q-135 0 -277 -201t-142 -352zM481 868q0 41 77 138.5t134 97.5q53 0 62 -72q-175 -168 -224 -231q-22 10 -35.5 31.5
t-13.5 35.5z" />
    <glyph glyph-name=".notdef.061" unicode="&#xe2;" horiz-adv-x="909" 
d="M-53 84q0 119 84 264.5t222 249.5t273 104q90 0 150.5 -46t60.5 -117q0 -95 -116 -99q73 -22 73 -61q0 -23 -58 -122t-58 -148q0 -74 61 -74q57 0 146 80t173 239l39 -39q-75 -170 -188 -273t-227 -103q-82 0 -126 54t-44 124q-93 -111 -158.5 -162t-138.5 -51
q-72 0 -120 47t-48 133zM111 74q0 -66 47 -66q26 0 56 15.5t65 46.5l63 61q31 31 70 80l61 78l59 80l50 67q6 10 16 10h4l4 -2q10 33 10 76q0 107 -86 107q-135 0 -277 -201t-142 -352zM387 841q0 56 92.5 116t145.5 60q51 0 123.5 -77.5t72.5 -139.5q0 -53 -51 -80
q-47 80 -147 170q-94 -30 -209 -106q-27 16 -27 57z" />
    <glyph glyph-name=".notdef.063" unicode="&#xe3;" horiz-adv-x="909" 
d="M-53 84q0 119 84 264.5t222 249.5t273 104q90 0 150.5 -46t60.5 -117q0 -95 -116 -99q73 -22 73 -61q0 -23 -58 -122t-58 -148q0 -74 61 -74q57 0 146 80t173 239l39 -39q-75 -170 -188 -273t-227 -103q-82 0 -126 54t-44 124q-93 -111 -158.5 -162t-138.5 -51
q-72 0 -120 47t-48 133zM111 74q0 -66 47 -66q26 0 56 15.5t65 46.5l63 61q31 31 70 80l61 78l59 80l50 67q6 10 16 10h4l4 -2q10 33 10 76q0 107 -86 107q-135 0 -277 -201t-142 -352zM315 867q28 49 75 88.5t91 39.5q47 0 134.5 -44.5t136.5 -44.5q72 0 132 15
q-87 -122 -167 -122q-51 0 -143 43t-134 43q-58 0 -125 -18z" />
    <glyph glyph-name=".notdef.049" unicode="&#xe8;" horiz-adv-x="698" 
d="M-35 158q0 186 173 383.5t358 197.5q149 0 149 -137q0 -147 -159.5 -262t-356.5 -135q-4 -21 -4 -47q0 -21 3 -39.5t16.5 -50t49 -51t89.5 -19.5q125 0 255 101.5t210 252.5l40 -33q-81 -184 -234 -296.5t-316 -112.5q-129 0 -201 69.5t-72 178.5zM152 281
q118 14 250.5 118.5t132.5 212.5q0 39 -35 39q-90 0 -196.5 -118.5t-151.5 -251.5zM303 1027q2 39 21.5 59.5t43.5 20.5q57 0 141 -94.5t84 -137.5q0 -18 -14 -40.5t-37 -32.5q-100 118 -239 225z" />
    <glyph glyph-name=".notdef.048" unicode="&#xe9;" horiz-adv-x="698" 
d="M-35 158q0 186 173 383.5t358 197.5q149 0 149 -137q0 -147 -159.5 -262t-356.5 -135q-4 -21 -4 -47q0 -21 3 -39.5t16.5 -50t49 -51t89.5 -19.5q125 0 255 101.5t210 252.5l40 -33q-81 -184 -234 -296.5t-316 -112.5q-129 0 -201 69.5t-72 178.5zM152 281
q118 14 250.5 118.5t132.5 212.5q0 39 -35 39q-90 0 -196.5 -118.5t-151.5 -251.5zM346 868q0 41 77 138.5t134 97.5q53 0 61 -72q-174 -168 -223 -231q-22 10 -35.5 31.5t-13.5 35.5z" />
    <glyph glyph-name=".notdef.044" unicode="&#xea;" horiz-adv-x="698" 
d="M-35 158q0 186 173 383.5t358 197.5q149 0 149 -137q0 -147 -159.5 -262t-356.5 -135q-4 -21 -4 -47q0 -21 3 -39.5t16.5 -50t49 -51t89.5 -19.5q125 0 255 101.5t210 252.5l40 -33q-81 -184 -234 -296.5t-316 -112.5q-129 0 -201 69.5t-72 178.5zM152 281
q118 14 250.5 118.5t132.5 212.5q0 39 -35 39q-90 0 -196.5 -118.5t-151.5 -251.5zM292 880q0 56 92.5 116t145.5 60q51 0 123.5 -77.5t72.5 -139.5q0 -53 -51 -80q-47 80 -147 170q-94 -30 -209 -106q-27 16 -27 57z" />
    <glyph glyph-name=".notdef.038" unicode="&#xec;" horiz-adv-x="500" 
d="M-16 121q0 82 43 216t116.5 246.5t145.5 112.5q26 0 43.5 -15t17.5 -44q0 -27 -52 -112t-105.5 -192.5t-53.5 -185.5q0 -63 22.5 -85.5t69.5 -22.5q162 0 322 313l31 -33q-72 -180 -182.5 -280t-237.5 -100q-86 0 -133 51t-47 131zM138 1025q2 39 21.5 59.5t44.5 20.5
q57 0 141 -94t84 -137q0 -19 -14 -41.5t-37 -32.5q-100 119 -240 225z" />
    <glyph glyph-name=".notdef.037" unicode="&#xed;" horiz-adv-x="500" 
d="M-16 121q0 82 43 216t116.5 246.5t145.5 112.5q26 0 43.5 -15t17.5 -44q0 -27 -52 -112t-105.5 -192.5t-53.5 -185.5q0 -63 22.5 -85.5t69.5 -22.5q162 0 322 313l31 -33q-72 -180 -182.5 -280t-237.5 -100q-86 0 -133 51t-47 131zM198 870q0 41 76.5 138t134.5 97
q53 0 61 -71q-174 -168 -223 -232q-23 10 -36 31.5t-13 36.5z" />
    <glyph glyph-name=".notdef.033" unicode="&#xf2;" horiz-adv-x="762" 
d="M-25 127q0 135 78 264t168 129q25 0 64 -16q12 94 66.5 155.5t152.5 61.5q82 0 121 -46t39 -120q0 -141 -136 -348q25 -12 58 -12q57 0 122.5 37.5t100.5 115.5l37 -26q-43 -99 -116 -150t-150 -51q-48 0 -103 18q-170 -205 -342 -205q-86 0 -123 55.5t-37 137.5z
M139 133q0 -94 70 -94q74 0 197 145q-117 103 -123 301q-39 -20 -91.5 -142t-52.5 -210zM399 451q0 -48 16.5 -108t43.5 -93q119 170 119 305q0 90 -58 90q-43 0 -82 -57.5t-39 -136.5zM336 1028q2 39 21.5 59.5t43.5 20.5q58 0 142 -94.5t84 -137.5q0 -18 -14.5 -40.5
t-36.5 -33.5q-101 119 -240 226z" />
    <glyph glyph-name=".notdef.032" unicode="&#xf3;" horiz-adv-x="762" 
d="M-25 127q0 135 78 264t168 129q25 0 64 -16q12 94 66.5 155.5t152.5 61.5q82 0 121 -46t39 -120q0 -141 -136 -348q25 -12 58 -12q57 0 122.5 37.5t100.5 115.5l37 -26q-43 -99 -116 -150t-150 -51q-48 0 -103 18q-170 -205 -342 -205q-86 0 -123 55.5t-37 137.5z
M139 133q0 -94 70 -94q74 0 197 145q-117 103 -123 301q-39 -20 -91.5 -142t-52.5 -210zM399 451q0 -48 16.5 -108t43.5 -93q119 170 119 305q0 90 -58 90q-43 0 -82 -57.5t-39 -136.5zM369 868q0 41 76.5 138.5t134.5 97.5q53 0 61 -72q-174 -168 -223 -231
q-22 10 -35.5 31.5t-13.5 35.5z" />
    <glyph glyph-name=".notdef.028" unicode="&#xf4;" horiz-adv-x="762" 
d="M-25 127q0 135 78 264t168 129q25 0 64 -16q12 94 66.5 155.5t152.5 61.5q82 0 121 -46t39 -120q0 -141 -136 -348q25 -12 58 -12q57 0 122.5 37.5t100.5 115.5l37 -26q-43 -99 -116 -150t-150 -51q-48 0 -103 18q-170 -205 -342 -205q-86 0 -123 55.5t-37 137.5z
M139 133q0 -94 70 -94q74 0 197 145q-117 103 -123 301q-39 -20 -91.5 -142t-52.5 -210zM399 451q0 -48 16.5 -108t43.5 -93q119 170 119 305q0 90 -58 90q-43 0 -82 -57.5t-39 -136.5zM298 869q0 56 92.5 116t145.5 60q51 0 124 -77.5t73 -139.5q0 -53 -52 -80
q-47 80 -147 170q-94 -30 -209 -106q-27 16 -27 57z" />
    <glyph glyph-name=".notdef.030" unicode="&#xf5;" horiz-adv-x="762" 
d="M-25 127q0 135 78 264t168 129q25 0 64 -16q12 94 66.5 155.5t152.5 61.5q82 0 121 -46t39 -120q0 -141 -136 -348q25 -12 58 -12q57 0 122.5 37.5t100.5 115.5l37 -26q-43 -99 -116 -150t-150 -51q-48 0 -103 18q-170 -205 -342 -205q-86 0 -123 55.5t-37 137.5z
M139 133q0 -94 70 -94q74 0 197 145q-117 103 -123 301q-39 -20 -91.5 -142t-52.5 -210zM399 451q0 -48 16.5 -108t43.5 -93q119 170 119 305q0 90 -58 90q-43 0 -82 -57.5t-39 -136.5zM246 867q28 49 75 88.5t91 39.5q47 0 134.5 -44.5t136.5 -44.5q72 0 132 15
q-87 -122 -167 -122q-51 0 -143 43t-134 43q-58 0 -125 -18z" />
    <glyph glyph-name="divide" unicode="&#xf7;" horiz-adv-x="1006" 
d="M53 238q23 81 129.5 105t298.5 24q144 0 396 -21q-70 -47 -156 -65.5t-254 -18.5q-221 0 -414 -24zM295 37q0 37 43 66.5t90 29.5q70 0 70 -63q0 -35 -38 -68t-81 -33q-35 0 -59.5 17.5t-24.5 50.5zM414 547q0 37 43 66.5t90 29.5q69 0 69 -63q0 -35 -36.5 -68t-81.5 -33
q-35 0 -59.5 17.5t-24.5 50.5z" />
    <glyph glyph-name=".notdef.022" unicode="&#xf9;" horiz-adv-x="903" 
d="M-2 152q0 116 67.5 287t118.5 171q43 0 97 -53q-43 -63 -89.5 -182t-46.5 -205q0 -123 62 -123q53 0 131 101.5t132 206t99 204.5q123 -20 123 -70q0 -4 -32.5 -76.5t-64.5 -166.5t-32 -152q0 -71 55 -71q68 0 167.5 91t170.5 236l31 -24q-69 -166 -192 -276.5
t-238 -110.5q-39 0 -66.5 15t-42 35.5t-22.5 55.5t-9 59.5t-1 63.5q-45 -70 -78 -112t-84 -79.5t-98 -37.5q-68 0 -113 63.5t-45 149.5zM289 931q2 39 21.5 59.5t43.5 20.5q58 0 141.5 -94t83.5 -137q0 -19 -14 -41.5t-37 -32.5q-100 119 -239 225z" />
    <glyph glyph-name=".notdef.021" unicode="&#xfa;" horiz-adv-x="903" 
d="M-2 152q0 116 67.5 287t118.5 171q43 0 97 -53q-43 -63 -89.5 -182t-46.5 -205q0 -123 62 -123q53 0 131 101.5t132 206t99 204.5q123 -20 123 -70q0 -4 -32.5 -76.5t-64.5 -166.5t-32 -152q0 -71 55 -71q68 0 167.5 91t170.5 236l31 -24q-69 -166 -192 -276.5
t-238 -110.5q-39 0 -66.5 15t-42 35.5t-22.5 55.5t-9 59.5t-1 63.5q-45 -70 -78 -112t-84 -79.5t-98 -37.5q-68 0 -113 63.5t-45 149.5zM362 772q0 41 77 138.5t134 97.5q54 0 62 -72q-174 -168 -223 -231q-23 10 -36.5 31.5t-13.5 35.5z" />
    <glyph glyph-name=".notdef.004" unicode="&#xfd;" horiz-adv-x="819" 
d="M-41 -440q0 49 28.5 96t61.5 80t101.5 72.5t105.5 56.5l111 55q34 88 98 320q-158 -224 -295 -224q-68 0 -121 41t-53 129q0 111 69.5 279t118.5 168q21 0 62 -21.5t49 -46.5q-39 -53 -85 -178t-46 -197q0 -75 59 -75q115 0 271 247q2 5 9 47t15 70.5t37 56t70 27.5
q8 0 65 -8q-2 -51 -48 -223t-107 -336q233 96 329 346l35 -29q-78 -256 -391 -395q-207 -491 -410 -491q-57 0 -98 33.5t-41 99.5zM39 -440q0 -58 39 -58q43 0 112.5 87t137.5 241q-289 -145 -289 -270zM375 793q0 41 77 138.5t134 97.5q54 0 62 -72q-174 -168 -223 -231
q-23 10 -36.5 31.5t-13.5 35.5z" />
    <glyph glyph-name="Dslash" unicode="&#x110;" horiz-adv-x="1409" 
d="M57 543q60 114 291 129q88 282 146 428q14 37 31.5 73.5t58.5 80.5t84 44q34 0 77 -28q-116 -262 -223 -594q123 0 375 -21q-123 -84 -260 -84h-148q-116 -364 -180 -661q47 -6 78 -6q213 0 408.5 150.5t311.5 384t116 474.5q0 238 -118 358t-321 120
q-200 0 -332.5 -105.5t-132.5 -263.5q0 -55 19 -98q-164 0 -164 131q0 149 203 284.5t473 135.5q285 0 420 -162t135 -422q0 -213 -88 -414t-230.5 -343t-325.5 -227t-368 -85q-172 0 -250 102q52 254 172 645q-79 -2 -258 -26z" />
    <glyph glyph-name="dcroat" unicode="&#x111;" horiz-adv-x="1006" 
d="M-33 123q0 115 84 261t223.5 257t274.5 111q100 0 100 -66q0 -33 -24 -47q-17 23 -72 23q-104 0 -203.5 -96.5t-153 -214.5t-53.5 -199q0 -86 66 -86q88 0 215 149.5t221 392.5l80 203l80 193q49 118 84 187t77 142.5t76.5 107.5t65.5 34q22 0 39.5 -17.5t17.5 -44.5
q0 -43 -73 -196l-158 -328q-86 -172 -160 -385t-74 -363q0 -49 9.5 -66.5t31.5 -17.5q70 0 160 82t158 221l39 -32q-68 -168 -186.5 -274.5t-235.5 -106.5q-150 0 -150 178q0 47 17 133q-101 -145 -207.5 -232t-194.5 -87q-67 0 -120.5 47t-53.5 137zM486 920q12 43 55 70.5
t100.5 39t95 15.5t74.5 4q185 0 443 -14q-21 -48 -93.5 -79.5t-156.5 -31.5q-23 0 -111 6t-145 6q-139 0 -262 -16z" />
    <glyph glyph-name=".notdef.117" unicode="&#x102;" 
d="M0 -51q0 151 301 614q-123 8 -301 8q49 134 238 134q41 0 151 -13q229 332 428 559.5t264 227.5q54 0 140 -80q-68 -51 -194 -490.5t-126 -687.5q0 -162 72 -162q110 0 272 306l37 -39q-65 -174 -167.5 -279.5t-213.5 -105.5q-180 0 -180 317q0 100 27 254
q-105 16 -293 39q-191 -338 -361 -729q-94 49 -94 127zM520 668l136 -31.5t112 -24.5q74 353 217 686q-182 -143 -465 -630zM956 1781q2 53 56 78q33 -127 151 -141q86 0 196 98q41 -14 40 -47q-3 -57 -79.5 -113.5t-177 -51.5t-144.5 64t-42 113z" />
    <glyph glyph-name=".notdef.055" unicode="&#x103;" horiz-adv-x="909" 
d="M-53 84q0 119 84 264.5t222 249.5t273 104q90 0 150.5 -46t60.5 -117q0 -95 -116 -99q73 -22 73 -59q0 -25 -58 -124t-58 -148q0 -74 61 -74q57 0 146 80t173 239l39 -39q-75 -170 -188 -273t-227 -103q-82 0 -126 54t-44 124q-93 -111 -158.5 -162t-138.5 -51
q-72 0 -120 47t-48 133zM111 74q0 -66 47 -66q26 0 56 15.5t65 46.5l63 61q31 31 70 80l61 78l59 80l50 67q6 10 16 10h4l4 -2q10 33 10 76q0 107 -86 107q-135 0 -277 -201t-142 -352zM410 982q2 53 56 78q33 -127 151 -141q86 0 196 98q41 -14 40 -47q-3 -57 -79.5 -113.5
t-177 -51.5t-144.5 64t-42 113z" />
    <glyph glyph-name=".notdef.101" unicode="&#x128;" horiz-adv-x="1030" 
d="M-37 -180q6 63 34 103t81 58.5t105.5 24.5t131.5 6q84 181 205 710t148 607q-254 -4 -486 -49q21 102 128.5 147.5t326.5 45.5q246 0 594 -46q-101 -96 -238 -96q-155 0 -221 -2l-12 -61q-4 -25 -75 -413t-103 -519q-62 -246 -148 -328q27 -2 193 -18.5t270 -18.5
q-121 -114 -272 -114h-4q-285 0 -396.5 -6.5t-261.5 -30.5zM501 1656q28 49 75 88.5t91 39.5q47 0 134.5 -44.5t136.5 -44.5q72 0 132 15q-87 -122 -167 -122q-51 0 -143 43t-134 43q-58 0 -125 -18z" />
    <glyph glyph-name=".notdef.035" unicode="&#x129;" horiz-adv-x="500" 
d="M-16 121q0 82 43 216t116.5 246.5t145.5 112.5q26 0 43.5 -15t17.5 -44q0 -27 -52 -112t-105.5 -192.5t-53.5 -185.5q0 -63 22.5 -85.5t69.5 -22.5q162 0 322 313l31 -33q-72 -180 -182.5 -280t-237.5 -100q-86 0 -133 51t-47 131zM54 850q28 49 75 88.5t91 39.5
q47 0 134.5 -44.5t136.5 -44.5q72 0 132 15q-87 -122 -167 -122q-51 0 -143 43t-134 43q-58 0 -125 -18z" />
    <glyph glyph-name=".notdef.085" unicode="&#x168;" horiz-adv-x="1536" 
d="M68 1098q0 133 122.5 254t290.5 121q238 0 238 -265q0 -153 -123 -549q-117 -370 -117 -505q0 -224 170 -224q105 0 197 93.5t143 207t80 234.5l55 219l56 217q39 146 65 225l62 170q34 93 66 135t61 42q45 0 131 -80q-39 -29 -129 -262.5t-170 -542.5t-80 -498
q0 -125 42 -167t150 -42q-22 -37 -74.5 -60.5t-99.5 -23.5q-76 0 -130 66.5t-54 163.5q0 16 4 106q-170 -313 -436 -313q-137 0 -214 82t-77 229.5t123 526t123 546.5q0 185 -111 185q-96 0 -152.5 -111t-56.5 -207q0 -63 27 -131q-182 0 -182 158zM768 1656q28 49 75 88.5
t91 39.5q47 0 134.5 -44.5t136.5 -44.5q72 0 132 15q-87 -122 -167 -122q-51 0 -143 43t-134 43q-58 0 -125 -18z" />
    <glyph glyph-name=".notdef.019" unicode="&#x169;" horiz-adv-x="903" 
d="M-2 152q0 116 67.5 287t118.5 171q43 0 97 -53q-43 -63 -89.5 -182t-46.5 -205q0 -123 62 -123q53 0 131 101.5t132 206t99 204.5q123 -20 123 -70q0 -4 -32.5 -76.5t-64.5 -166.5t-32 -152q0 -71 53 -71h2q68 0 167.5 91t170.5 236l31 -24q-69 -166 -192 -276.5
t-238 -110.5q-39 0 -66.5 15t-42 35.5t-22.5 55.5t-9 59.5t-1 63.5q-45 -70 -78 -112t-84 -79.5t-98 -37.5q-68 0 -113 63.5t-45 149.5zM214 767q28 49 75 88.5t91 39.5q47 0 134.5 -44.5t136.5 -44.5q72 0 132 15q-87 -122 -167 -122q-51 0 -143 43t-134 43q-58 0 -125 -18
z" />
    <glyph glyph-name=".notdef.077" unicode="&#x1a0;" horiz-adv-x="1341" 
d="M66 336q0 258 128 523t338.5 439.5t430.5 174.5q84 0 139 -58q-33 4 -60 4q-172 0 -352 -172t-295.5 -430t-115.5 -493q0 -177 70.5 -290.5t217.5 -113.5q135 0 259 104.5t206 265.5t131 348t49 357q0 113 -21.5 204t-70.5 91q-65 0 -152 -150.5t-114 -281.5
q-129 27 -129 119q0 110 141.5 253.5t257.5 143.5q58 0 99 -43t60.5 -115.5t27.5 -144.5t8 -149q0 -250 -80 -464t-203 -349.5t-265 -211t-275 -75.5q-185 0 -307.5 140t-122.5 374zM1343 1221q-70 -36 -143 22q6 10 42.5 61.5t42.5 60.5t30 47.5t34.5 57.5t25.5 52.5
t27 69.5q33 16 70 0.5t53 -52.5q29 -70 -36 -172.5t-146 -146.5z" />
    <glyph glyph-name=".notdef.011" unicode="&#x1a1;" horiz-adv-x="762" 
d="M-25 127q0 135 78 264t168 129q25 0 64 -16q12 94 66.5 155.5t152.5 61.5q82 0 121 -46t39 -120q0 -141 -136 -348q25 -12 58 -12q57 0 122.5 37.5t100.5 115.5l37 -26q-43 -99 -116 -150t-150 -51q-48 0 -103 18q-170 -205 -342 -205q-86 0 -123 55.5t-37 137.5z
M139 133q0 -94 70 -94q74 0 197 145q-117 103 -123 301q-39 -20 -91.5 -142t-52.5 -210zM399 451q0 -48 16.5 -108t43.5 -93q119 170 119 305q0 90 -58 90q-43 0 -82 -57.5t-39 -136.5zM694 422q-48 -25 -92 15q4 8 32.5 43.5t33 42l23 33t27 40.5l21.5 37t23 47
q22 12 46 1.5t32 -37.5q13 -48 -38 -119.5t-108 -102.5z" />
    <glyph glyph-name=".notdef.083" unicode="&#x1af;" horiz-adv-x="1536" 
d="M68 1098q0 133 122.5 254t290.5 121q238 0 238 -265q0 -153 -123 -549q-117 -370 -117 -505q0 -224 170 -224q105 0 197 93.5t143 207t80 234.5l55 219l56 217q39 146 65 225l62 170q34 93 66 135t61 42q45 0 131 -80q-39 -29 -129 -262.5t-170 -542.5t-80 -498
q0 -125 42 -167t150 -42q-22 -37 -74.5 -60.5t-99.5 -23.5q-76 0 -130 66.5t-54 163.5q0 16 4 106q-170 -313 -436 -313q-137 0 -214 82t-77 229.5t123 526t123 546.5q0 185 -111 185q-96 0 -152.5 -111t-56.5 -207q0 -63 27 -131q-182 0 -182 158zM1601 1221
q-70 -36 -143 22q6 10 42.5 61.5t42.5 60.5t30 47.5t34.5 57.5t25.5 52.5t27 69.5q33 16 70 0.5t53 -52.5q29 -70 -36 -172.5t-146 -146.5z" />
    <glyph glyph-name=".notdef.017" unicode="&#x1b0;" horiz-adv-x="903" 
d="M-2 152q0 116 67.5 287t118.5 171q43 0 97 -53q-43 -63 -89.5 -182t-46.5 -205q0 -123 62 -123q53 0 131 101.5t132 206t99 204.5q123 -20 123 -70q0 -4 -32.5 -76.5t-64.5 -166.5t-32 -152q0 -71 53 -71h2q68 0 167.5 91t170.5 236l31 -24q-69 -166 -192 -276.5
t-238 -110.5q-39 0 -66.5 15t-42 35.5t-22.5 55.5t-9 59.5t-1 63.5q-45 -70 -78 -112t-84 -79.5t-98 -37.5q-68 0 -113 63.5t-45 149.5zM712 422q-48 -25 -92 15q4 8 32.5 43.5t33 42l23 33t27 40.5l21.5 37t23 47q22 12 46 1.5t32 -37.5q13 -48 -38 -119.5t-108 -102.5z
" />
    <glyph glyph-name="acute" unicode="&#xb4;" horiz-adv-x="289" 
d="M190 907q0 41 77 138.5t134 97.5q54 0 62 -72q-174 -168 -223 -231q-23 10 -36.5 31.5t-13.5 35.5z" />
    <glyph glyph-name=".notdef.110" unicode="&#x1ea0;" 
d="M0 -51q0 151 301 614q-123 8 -301 8q49 134 238 134q41 0 151 -13q229 332 428 559.5t264 227.5q54 0 140 -80q-68 -51 -194 -490.5t-126 -687.5q0 -162 72 -162q110 0 272 306l37 -39q-65 -174 -167.5 -279.5t-213.5 -105.5q-180 0 -180 317q0 100 27 254
q-105 16 -293 39q-191 -338 -361 -729q-94 49 -94 127zM520 668l136 -31.5t112 -24.5q74 353 217 686q-182 -143 -465 -630zM298 -319q0 37 47.5 76.5t91.5 39.5q72 0 72 -68q0 -35 -32 -83.5t-82 -48.5q-49 0 -73 25.5t-24 58.5z" />
    <glyph glyph-name=".notdef.062" unicode="&#x1ea1;" horiz-adv-x="909" 
d="M-53 84q0 119 84 264.5t222 249.5t273 104q90 0 150.5 -46t60.5 -117q0 -95 -116 -99q73 -22 73 -59q0 -25 -58 -124t-58 -148q0 -74 61 -74q57 0 146 80t173 239l39 -39q-75 -170 -188 -273t-227 -103q-82 0 -126 54t-44 124q-93 -111 -158.5 -162t-138.5 -51
q-72 0 -120 47t-48 133zM111 74q0 -66 47 -66q26 0 56 15.5t65 46.5l63 61q31 31 70 80l61 78l59 80l50 67q6 10 16 10h4l4 -2q10 33 10 76q0 107 -86 107q-135 0 -277 -201t-142 -352zM126 -286q0 37 47.5 76.5t91.5 39.5q72 0 72 -68q0 -35 -32 -83.5t-82 -48.5
q-49 0 -73 25.5t-24 58.5z" />
    <glyph glyph-name=".notdef.108" unicode="&#x1ea2;" 
d="M0 -51q0 151 301 614q-123 8 -301 8q49 134 238 134q41 0 151 -13q229 332 428 559.5t264 227.5q54 0 140 -80q-68 -51 -194 -490.5t-126 -687.5q0 -162 72 -162q110 0 272 306l37 -39q-65 -174 -167.5 -279.5t-213.5 -105.5q-180 0 -180 317q0 100 27 254
q-105 16 -293 39q-191 -338 -361 -729q-94 49 -94 127zM520 668l136 -31.5t112 -24.5q74 353 217 686q-182 -143 -465 -630zM1071 1786q5 18 10 30.5t12.5 24t18 22t27.5 24.5q69 57 149 57q60 0 86 -31.5t9 -89.5q-11 -34 -33.5 -64t-49.5 -54l-51 -42q-12 -10 -16 -14
t-6 -8t-4.5 -10t-11.5 -21q-2 -3 -1 -2t1.5 2.5t0.5 0t-3 -8.5q-4 -8 -7.5 -12.5l-7 -9l-8 -10t-10.5 -14.5q-17 9 -27 11t-15 4.5t-6 8t1 22.5q1 5 1 8t1.5 7.5t5.5 12l12 21.5q9 9 20 17l18.5 16.5t18.5 17.5q26 23 48 52t32 59q8 31 2.5 47.5t-22.5 16.5q-30 0 -71 -37
q-11 -10 -16.5 -17t-9 -13.5t-6 -14.5t-5.5 -21q-4 -11 -5.5 -29.5l-3.5 -44.5q-56 8 -72.5 29.5t-5.5 56.5z" />
    <glyph glyph-name=".notdef.064" unicode="&#x1ea3;" horiz-adv-x="909" 
d="M-53 84q0 119 84 264.5t222 249.5t273 104q90 0 150.5 -46t60.5 -117q0 -95 -116 -99q73 -22 73 -59q0 -25 -58 -124t-58 -148q0 -74 61 -74q57 0 146 80t173 239l39 -39q-75 -170 -188 -273t-227 -103q-82 0 -126 54t-44 124q-93 -111 -158.5 -162t-138.5 -51
q-72 0 -120 47t-48 133zM111 74q0 -66 47 -66q26 0 56 15.5t65 46.5l63 61q31 31 70 80l61 78l59 80l50 67q6 10 16 10h4l4 -2q10 33 10 76q0 107 -86 107q-135 0 -277 -201t-142 -352zM466 1033q5 18 10 30.5t12.5 24t18 22t27.5 24.5q69 57 149 57q60 0 86 -31.5t9 -89.5
q-11 -34 -33.5 -64t-49.5 -54l-51 -42q-12 -10 -16 -14t-6 -8t-4.5 -10t-11.5 -21q-2 -3 -1 -2t1.5 2.5t0.5 0t-3 -8.5q-4 -8 -7.5 -12.5l-7 -9l-8 -10t-10.5 -14.5q-17 9 -27 11t-15 4.5t-6 8t1 22.5q1 5 1 8t1.5 7.5t5.5 12l12 21.5q9 9 20 17l18.5 16.5t18.5 17.5
q26 23 48 52t32 59q8 31 2.5 47.5t-22.5 16.5q-30 0 -71 -37q-11 -10 -16.5 -17t-9 -13.5t-6 -14.5t-5.5 -21q-4 -11 -5.5 -29.5l-3.5 -44.5q-56 8 -72.5 29.5t-5.5 56.5z" />
    <glyph glyph-name=".notdef.119" unicode="&#x1eae;" 
d="M0 -51q0 151 301 614q-123 8 -301 8q49 134 238 134q41 0 151 -13q229 332 428 559.5t264 227.5q54 0 140 -80q-68 -51 -194 -490.5t-126 -687.5q0 -162 72 -162q110 0 272 306l37 -39q-65 -174 -167.5 -279.5t-213.5 -105.5q-180 0 -180 317q0 100 27 254
q-105 16 -293 39q-191 -338 -361 -729q-94 49 -94 127zM520 668l136 -31.5t112 -24.5q74 353 217 686q-182 -143 -465 -630zM956 1781q2 53 56 78q33 -127 151 -141q86 0 196 98q41 -14 40 -47q-3 -57 -79.5 -113.5t-177 -51.5t-144.5 64t-42 113zM1122 1882q0 41 76.5 138
t134.5 97q53 0 61 -71q-174 -168 -223 -232q-23 11 -36 32.5t-13 35.5z" />
    <glyph glyph-name=".notdef.053" unicode="&#x1eaf;" horiz-adv-x="909" 
d="M-53 84q0 119 84 264.5t222 249.5t273 104q90 0 150.5 -46t60.5 -117q0 -95 -116 -99q73 -22 73 -59q0 -25 -58 -124t-58 -148q0 -74 61 -74q57 0 146 80t173 239l39 -39q-75 -170 -188 -273t-227 -103q-82 0 -126 54t-44 124q-93 -111 -158.5 -162t-138.5 -51
q-72 0 -120 47t-48 133zM111 74q0 -66 47 -66q26 0 56 15.5t65 46.5l63 61q31 31 70 80l61 78l59 80l50 67q6 10 16 10h4l4 -2q10 33 10 76q0 107 -86 107q-135 0 -277 -201t-142 -352zM410 982q2 53 56 78q33 -127 151 -141q86 0 196 98q41 -14 40 -47q-3 -57 -79.5 -113.5
t-177 -51.5t-144.5 64t-42 113zM574 1085q0 41 76.5 138t134.5 97q53 0 61 -71q-174 -168 -223 -232q-23 11 -36 32.5t-13 35.5z" />
    <glyph glyph-name=".notdef.118" unicode="&#x1eb0;" 
d="M0 -51q0 151 301 614q-123 8 -301 8q49 134 238 134q41 0 151 -13q229 332 428 559.5t264 227.5q54 0 140 -80q-68 -51 -194 -490.5t-126 -687.5q0 -162 72 -162q110 0 272 306l37 -39q-65 -174 -167.5 -279.5t-213.5 -105.5q-180 0 -180 317q0 100 27 254
q-105 16 -293 39q-191 -338 -361 -729q-94 49 -94 127zM520 668l136 -31.5t112 -24.5q74 353 217 686q-182 -143 -465 -630zM956 1781q2 53 56 78q33 -127 151 -141q86 0 196 98q41 -14 40 -47q-3 -57 -79.5 -113.5t-177 -51.5t-144.5 64t-42 113zM996 2048q2 38 21.5 58.5
t44.5 20.5q57 0 141 -94t84 -137q0 -18 -14.5 -41t-36.5 -33q-101 119 -240 226z" />
    <glyph glyph-name=".notdef.054" unicode="&#x1eb1;" horiz-adv-x="909" 
d="M-53 84q0 119 84 264.5t222 249.5t273 104q90 0 150.5 -46t60.5 -117q0 -95 -116 -99q73 -22 73 -59q0 -25 -58 -124t-58 -148q0 -74 61 -74q57 0 146 80t173 239l39 -39q-75 -170 -188 -273t-227 -103q-82 0 -126 54t-44 124q-93 -111 -158.5 -162t-138.5 -51
q-72 0 -120 47t-48 133zM111 74q0 -66 47 -66q26 0 56 15.5t65 46.5l63 61q31 31 70 80l61 78l59 80l50 67q6 10 16 10h4l4 -2q10 33 10 76q0 107 -86 107q-135 0 -277 -201t-142 -352zM410 982q2 53 56 78q33 -127 151 -141q86 0 196 98q41 -14 40 -47q-3 -57 -79.5 -113.5
t-177 -51.5t-144.5 64t-42 113zM425 1237q2 38 21.5 58.5t44.5 20.5q57 0 141 -94t84 -137q0 -18 -14.5 -41t-36.5 -33q-101 119 -240 226z" />
    <glyph glyph-name=".notdef.120" unicode="&#x1eb2;" 
d="M0 -51q0 151 301 614q-123 8 -301 8q49 134 238 134q41 0 151 -13q229 332 428 559.5t264 227.5q54 0 140 -80q-68 -51 -194 -490.5t-126 -687.5q0 -162 72 -162q110 0 272 306l37 -39q-65 -174 -167.5 -279.5t-213.5 -105.5q-180 0 -180 317q0 100 27 254
q-105 16 -293 39q-191 -338 -361 -729q-94 49 -94 127zM520 668l136 -31.5t112 -24.5q74 353 217 686q-182 -143 -465 -630zM956 1781q2 53 56 78q33 -127 151 -141q86 0 196 98q41 -14 40 -47q-3 -57 -79.5 -113.5t-177 -51.5t-144.5 64t-42 113zM1088 2030q5 18 10 30.5
t12.5 24t18 22t27.5 24.5q69 57 149 57q60 0 86 -31.5t9 -89.5q-11 -34 -33.5 -64t-49.5 -54l-51 -42q-12 -10 -16 -14t-6 -8t-4.5 -10t-11.5 -21q-2 -3 -1 -2t1.5 2.5t0.5 0t-3 -8.5q-4 -8 -7.5 -12.5l-7 -9l-8 -10t-10.5 -14.5q-17 9 -27 11t-15 4.5t-6 8t1 22.5q1 5 1 8
t1.5 7.5t5.5 12l12 21.5q9 9 20 17l18.5 16.5t18.5 17.5q26 23 48 52t32 59q8 31 2.5 47.5t-22.5 16.5q-30 0 -71 -37q-11 -10 -16.5 -17t-9 -13.5t-6 -14.5t-5.5 -21q-4 -11 -5.5 -29.5l-3.5 -44.5q-56 8 -72.5 29.5t-5.5 56.5z" />
    <glyph glyph-name=".notdef.052" unicode="&#x1eb3;" horiz-adv-x="909" 
d="M-53 84q0 119 84 264.5t222 249.5t273 104q90 0 150.5 -46t60.5 -117q0 -95 -116 -99q73 -22 73 -59q0 -25 -58 -124t-58 -148q0 -74 61 -74q57 0 146 80t173 239l39 -39q-75 -170 -188 -273t-227 -103q-82 0 -126 54t-44 124q-93 -111 -158.5 -162t-138.5 -51
q-72 0 -120 47t-48 133zM111 74q0 -66 47 -66q26 0 56 15.5t65 46.5l63 61q31 31 70 80l61 78l59 80l50 67q6 10 16 10h4l4 -2q10 33 10 76q0 107 -86 107q-135 0 -277 -201t-142 -352zM410 982q2 53 56 78q33 -127 151 -141q86 0 196 98q41 -14 40 -47q-3 -57 -79.5 -113.5
t-177 -51.5t-144.5 64t-42 113zM545 1255q5 18 10 30.5t12.5 24t18 22t27.5 24.5q69 57 149 57q60 0 86 -31.5t9 -89.5q-11 -34 -33.5 -64t-49.5 -54l-51 -42q-12 -10 -16 -14t-6 -8t-4.5 -10t-11.5 -21q-2 -3 -1 -2t1.5 2.5t0.5 0t-3 -8.5q-4 -8 -7.5 -12.5l-7 -9l-8 -10
t-10.5 -14.5q-17 9 -27 11t-15 4.5t-6 8t1 22.5q1 5 1 8t1.5 7.5t5.5 12l12 21.5q9 9 20 17l18.5 16.5t18.5 17.5q26 23 48 52t32 59q8 31 2.5 47.5t-22.5 16.5q-30 0 -71 -37q-11 -10 -16.5 -17t-9 -13.5t-6 -14.5t-5.5 -21q-4 -11 -5.5 -29.5l-3.5 -44.5q-56 8 -72.5 29.5
t-5.5 56.5z" />
    <glyph glyph-name=".notdef.121" unicode="&#x1eb4;" 
d="M0 -51q0 151 301 614q-123 8 -301 8q49 134 238 134q41 0 151 -13q229 332 428 559.5t264 227.5q54 0 140 -80q-68 -51 -194 -490.5t-126 -687.5q0 -162 72 -162q110 0 272 306l37 -39q-65 -174 -167.5 -279.5t-213.5 -105.5q-180 0 -180 317q0 100 27 254
q-105 16 -293 39q-191 -338 -361 -729q-94 49 -94 127zM520 668l136 -31.5t112 -24.5q74 353 217 686q-182 -143 -465 -630zM956 1781q2 53 56 78q33 -127 151 -141q86 0 196 98q41 -14 40 -47q-3 -57 -79.5 -113.5t-177 -51.5t-144.5 64t-42 113zM981 1950q28 49 75 88.5
t91 39.5q47 0 134.5 -44.5t136.5 -44.5q72 0 132 15q-87 -122 -167 -122q-51 0 -143 43t-134 43q-58 0 -125 -18z" />
    <glyph glyph-name=".notdef.051" unicode="&#x1eb5;" horiz-adv-x="909" 
d="M-53 84q0 119 84 264.5t222 249.5t273 104q90 0 150.5 -46t60.5 -117q0 -95 -116 -99q73 -22 73 -59q0 -25 -58 -124t-58 -148q0 -74 61 -74q57 0 146 80t173 239l39 -39q-75 -170 -188 -273t-227 -103q-82 0 -126 54t-44 124q-93 -111 -158.5 -162t-138.5 -51
q-72 0 -120 47t-48 133zM111 74q0 -66 47 -66q26 0 56 15.5t65 46.5l63 61q31 31 70 80l61 78l59 80l50 67q6 10 16 10h4l4 -2q10 33 10 76q0 107 -86 107q-135 0 -277 -201t-142 -352zM410 982q2 53 56 78q33 -127 151 -141q86 0 196 98q41 -14 40 -47q-3 -57 -79.5 -113.5
t-177 -51.5t-144.5 64t-42 113zM407 1141q28 49 75 88.5t91 39.5q47 0 134.5 -44.5t136.5 -44.5q72 0 132 15q-87 -122 -167 -122q-51 0 -143 43t-134 43q-58 0 -125 -18z" />
    <glyph glyph-name=".notdef.122" unicode="&#x1eb6;" 
d="M0 -51q0 151 301 614q-123 8 -301 8q49 134 238 134q41 0 151 -13q229 332 428 559.5t264 227.5q54 0 140 -80q-68 -51 -194 -490.5t-126 -687.5q0 -162 72 -162q110 0 272 306l37 -39q-65 -174 -167.5 -279.5t-213.5 -105.5q-180 0 -180 317q0 100 27 254
q-105 16 -293 39q-191 -338 -361 -729q-94 49 -94 127zM520 668l136 -31.5t112 -24.5q74 353 217 686q-182 -143 -465 -630zM956 1781q2 53 56 78q33 -127 151 -141q86 0 196 98q41 -14 40 -47q-3 -57 -79.5 -113.5t-177 -51.5t-144.5 64t-42 113zM298 -319q0 37 47.5 76.5
t91.5 39.5q72 0 72 -68q0 -35 -32 -83.5t-82 -48.5q-49 0 -73 25.5t-24 58.5z" />
    <glyph glyph-name=".notdef.050" unicode="&#x1eb7;" horiz-adv-x="909" 
d="M-53 84q0 119 84 264.5t222 249.5t273 104q90 0 150.5 -46t60.5 -117q0 -95 -116 -99q73 -22 73 -59q0 -25 -58 -124t-58 -148q0 -74 61 -74q57 0 146 80t173 239l39 -39q-75 -170 -188 -273t-227 -103q-82 0 -126 54t-44 124q-93 -111 -158.5 -162t-138.5 -51
q-72 0 -120 47t-48 133zM111 74q0 -66 47 -66q26 0 56 15.5t65 46.5l63 61q31 31 70 80l61 78l59 80l50 67q6 10 16 10h4l4 -2q10 33 10 76q0 107 -86 107q-135 0 -277 -201t-142 -352zM410 982q2 53 56 78q33 -127 151 -141q86 0 196 98q41 -14 40 -47q-3 -57 -79.5 -113.5
t-177 -51.5t-144.5 64t-42 113zM126 -286q0 37 47.5 76.5t91.5 39.5q72 0 72 -68q0 -35 -32 -83.5t-82 -48.5q-49 0 -73 25.5t-24 58.5z" />
    <glyph glyph-name=".notdef.113" unicode="&#x1ea4;" 
d="M0 -51q0 151 301 614q-123 8 -301 8q49 134 238 134q41 0 151 -13q229 332 428 559.5t264 227.5q54 0 140 -80q-68 -51 -194 -490.5t-126 -687.5q0 -162 72 -162q110 0 272 306l37 -39q-65 -174 -167.5 -279.5t-213.5 -105.5q-180 0 -180 317q0 100 27 254
q-105 16 -293 39q-191 -338 -361 -729q-94 49 -94 127zM520 668l136 -31.5t112 -24.5q74 353 217 686q-182 -143 -465 -630zM936 1616q0 55 92.5 115.5t145.5 60.5q51 0 123.5 -78t72.5 -139q0 -53 -51 -80q-47 80 -147 170q-94 -31 -209 -106q-27 16 -27 57zM1386 1733
q0 41 76.5 138t134.5 97q53 0 61 -71q-174 -168 -223 -232q-23 11 -36 32.5t-13 35.5z" />
    <glyph glyph-name=".notdef.059" unicode="&#x1ea5;" horiz-adv-x="909" 
d="M-53 84q0 119 84 264.5t222 249.5t273 104q90 0 150.5 -46t60.5 -117q0 -95 -116 -99q73 -22 73 -61q0 -23 -58 -122t-58 -148q0 -74 61 -74q57 0 146 80t173 239l39 -39q-75 -170 -188 -273t-227 -103q-82 0 -126 54t-44 124q-93 -111 -158.5 -162t-138.5 -51
q-72 0 -120 47t-48 133zM111 74q0 -66 47 -66q26 0 56 15.5t65 46.5l63 61q31 31 70 80l61 78l59 80l50 67q6 10 16 10h4l4 -2q10 33 10 76q0 107 -86 107q-135 0 -277 -201t-142 -352zM387 841q0 56 92.5 116t145.5 60q51 0 123.5 -77.5t72.5 -139.5q0 -53 -51 -80
q-47 80 -147 170q-94 -30 -209 -106q-27 16 -27 57zM838 958q0 41 76.5 138t134.5 97q53 0 61 -71q-174 -168 -223 -232q-23 11 -36 32.5t-13 35.5z" />
    <glyph glyph-name=".notdef.112" unicode="&#x1ea6;" 
d="M0 -51q0 151 301 614q-123 8 -301 8q49 134 238 134q41 0 151 -13q229 332 428 559.5t264 227.5q54 0 140 -80q-68 -51 -194 -490.5t-126 -687.5q0 -162 72 -162q110 0 272 306l37 -39q-65 -174 -167.5 -279.5t-213.5 -105.5q-180 0 -180 317q0 100 27 254
q-105 16 -293 39q-191 -338 -361 -729q-94 49 -94 127zM520 668l136 -31.5t112 -24.5q74 353 217 686q-182 -143 -465 -630zM936 1616q0 55 92.5 115.5t145.5 60.5q51 0 123.5 -78t72.5 -139q0 -53 -51 -80q-47 80 -147 170q-94 -31 -209 -106q-27 16 -27 57zM1212 1920
q2 38 21.5 58.5t44.5 20.5q57 0 141 -94t84 -137q0 -18 -14.5 -41t-36.5 -33q-101 119 -240 226z" />
    <glyph glyph-name=".notdef.060" unicode="&#x1ea7;" horiz-adv-x="909" 
d="M-53 84q0 119 84 264.5t222 249.5t273 104q90 0 150.5 -46t60.5 -117q0 -95 -116 -99q73 -22 73 -61q0 -23 -58 -122t-58 -148q0 -74 61 -74q57 0 146 80t173 239l39 -39q-75 -170 -188 -273t-227 -103q-82 0 -126 54t-44 124q-93 -111 -158.5 -162t-138.5 -51
q-72 0 -120 47t-48 133zM111 74q0 -66 47 -66q26 0 56 15.5t65 46.5l63 61q31 31 70 80l61 78l59 80l50 67q6 10 16 10h4l4 -2q10 33 10 76q0 107 -86 107q-135 0 -277 -201t-142 -352zM387 841q0 56 92.5 116t145.5 60q51 0 123.5 -77.5t72.5 -139.5q0 -53 -51 -80
q-47 80 -147 170q-94 -30 -209 -106q-27 16 -27 57zM664 1145q2 38 21.5 58.5t44.5 20.5q57 0 141 -94t84 -137q0 -18 -14.5 -41t-36.5 -33q-101 119 -240 226z" />
    <glyph glyph-name=".notdef.114" unicode="&#x1ea8;" 
d="M0 -51q0 151 301 614q-123 8 -301 8q49 134 238 134q41 0 151 -13q229 332 428 559.5t264 227.5q54 0 140 -80q-68 -51 -194 -490.5t-126 -687.5q0 -162 72 -162q110 0 272 306l37 -39q-65 -174 -167.5 -279.5t-213.5 -105.5q-180 0 -180 317q0 100 27 254
q-105 16 -293 39q-191 -338 -361 -729q-94 49 -94 127zM520 668l136 -31.5t112 -24.5q74 353 217 686q-182 -143 -465 -630zM936 1616q0 55 92.5 115.5t145.5 60.5q51 0 123.5 -78t72.5 -139q0 -53 -51 -80q-47 80 -147 170q-94 -31 -209 -106q-27 16 -27 57zM1323 1918
q5 18 10 30.5t12.5 24t18 22t27.5 24.5q69 57 149 57q60 0 86 -31.5t9 -89.5q-11 -34 -33.5 -64t-49.5 -54l-51 -42q-12 -10 -16 -14t-6 -8t-4.5 -10t-11.5 -21q-2 -3 -1 -2t1.5 2.5t0.5 0t-3 -8.5q-4 -8 -7.5 -12.5l-7 -9l-8 -10t-10.5 -14.5q-17 9 -27 11t-15 4.5t-6 8
t1 22.5q1 5 1 8t1.5 7.5t5.5 12l12 21.5q9 9 20 17l18.5 16.5t18.5 17.5q26 23 48 52t32 59q8 31 2.5 47.5t-22.5 16.5q-30 0 -71 -37q-11 -10 -16.5 -17t-9 -13.5t-6 -14.5t-5.5 -21q-4 -11 -5.5 -29.5l-3.5 -44.5q-56 8 -72.5 29.5t-5.5 56.5z" />
    <glyph glyph-name=".notdef.058" unicode="&#x1ea9;" horiz-adv-x="909" 
d="M-53 84q0 119 84 264.5t222 249.5t273 104q90 0 150.5 -46t60.5 -117q0 -95 -116 -99q73 -22 73 -61q0 -23 -58 -122t-58 -148q0 -74 61 -74q57 0 146 80t173 239l39 -39q-75 -170 -188 -273t-227 -103q-82 0 -126 54t-44 124q-93 -111 -158.5 -162t-138.5 -51
q-72 0 -120 47t-48 133zM111 74q0 -66 47 -66q26 0 56 15.5t65 46.5l63 61q31 31 70 80l61 78l59 80l50 67q6 10 16 10h4l4 -2q10 33 10 76q0 107 -86 107q-135 0 -277 -201t-142 -352zM387 841q0 56 92.5 116t145.5 60q51 0 123.5 -77.5t72.5 -139.5q0 -53 -51 -80
q-47 80 -147 170q-94 -30 -209 -106q-27 16 -27 57zM774 1143q5 18 10 30.5t12.5 24t18 22t27.5 24.5q69 57 149 57q60 0 86 -31.5t9 -89.5q-11 -34 -33.5 -64t-49.5 -54l-51 -42q-12 -10 -16 -14t-6 -8t-4.5 -10t-11.5 -21q-2 -3 -1 -2t1.5 2.5t0.5 0t-3 -8.5
q-4 -8 -7.5 -12.5l-7 -9l-8 -10t-10.5 -14.5q-17 9 -27 11t-15 4.5t-6 8t1 22.5q1 5 1 8t1.5 7.5t5.5 12l12 21.5q9 9 20 17l18.5 16.5t18.5 17.5q26 23 48 52t32 59q8 31 2.5 47.5t-22.5 16.5q-30 0 -71 -37q-11 -10 -16.5 -17t-9 -13.5t-6 -14.5t-5.5 -21
q-4 -11 -5.5 -29.5l-3.5 -44.5q-56 8 -72.5 29.5t-5.5 56.5z" />
    <glyph glyph-name=".notdef.115" unicode="&#x1eaa;" 
d="M0 -51q0 151 301 614q-123 8 -301 8q49 134 238 134q41 0 151 -13q229 332 428 559.5t264 227.5q54 0 140 -80q-68 -51 -194 -490.5t-126 -687.5q0 -162 72 -162q110 0 272 306l37 -39q-65 -174 -167.5 -279.5t-213.5 -105.5q-180 0 -180 317q0 100 27 254
q-105 16 -293 39q-191 -338 -361 -729q-94 49 -94 127zM520 668l136 -31.5t112 -24.5q74 353 217 686q-182 -143 -465 -630zM936 1616q0 55 92.5 115.5t145.5 60.5q51 0 123.5 -78t72.5 -139q0 -53 -51 -80q-47 80 -147 170q-94 -31 -209 -106q-27 16 -27 57zM957 1901
q28 49 75 88.5t91 39.5q47 0 134.5 -44.5t136.5 -44.5q72 0 132 15q-87 -122 -167 -122q-51 0 -143 43t-134 43q-58 0 -125 -18z" />
    <glyph glyph-name=".notdef.057" unicode="&#x1eab;" horiz-adv-x="909" 
d="M-53 84q0 119 84 264.5t222 249.5t273 104q90 0 150.5 -46t60.5 -117q0 -95 -116 -99q73 -22 73 -61q0 -23 -58 -122t-58 -148q0 -74 61 -74q57 0 146 80t173 239l39 -39q-75 -170 -188 -273t-227 -103q-82 0 -126 54t-44 124q-93 -111 -158.5 -162t-138.5 -51
q-72 0 -120 47t-48 133zM111 74q0 -66 47 -66q26 0 56 15.5t65 46.5l63 61q31 31 70 80l61 78l59 80l50 67q6 10 16 10h4l4 -2q10 33 10 76q0 107 -86 107q-135 0 -277 -201t-142 -352zM387 841q0 56 92.5 116t145.5 60q51 0 123.5 -77.5t72.5 -139.5q0 -53 -51 -80
q-47 80 -147 170q-94 -30 -209 -106q-27 16 -27 57zM395 1130q28 49 75 88.5t91 39.5q47 0 134.5 -44.5t136.5 -44.5q72 0 132 15q-87 -122 -167 -122q-51 0 -143 43t-134 43q-58 0 -125 -18z" />
    <glyph glyph-name=".notdef.116" unicode="&#x1eac;" 
d="M0 -51q0 151 301 614q-123 8 -301 8q49 134 238 134q41 0 151 -13q229 332 428 559.5t264 227.5q54 0 140 -80q-68 -51 -194 -490.5t-126 -687.5q0 -162 72 -162q110 0 272 306l37 -39q-65 -174 -167.5 -279.5t-213.5 -105.5q-180 0 -180 317q0 100 27 254
q-105 16 -293 39q-191 -338 -361 -729q-94 49 -94 127zM520 668l136 -31.5t112 -24.5q74 353 217 686q-182 -143 -465 -630zM936 1616q0 55 92.5 115.5t145.5 60.5q51 0 123.5 -78t72.5 -139q0 -53 -51 -80q-47 80 -147 170q-94 -31 -209 -106q-27 16 -27 57zM298 -319
q0 37 47.5 76.5t91.5 39.5q72 0 72 -68q0 -35 -32 -83.5t-82 -48.5q-49 0 -73 25.5t-24 58.5z" />
    <glyph glyph-name=".notdef.056" unicode="&#x1ead;" horiz-adv-x="909" 
d="M-53 84q0 119 84 264.5t222 249.5t273 104q90 0 150.5 -46t60.5 -117q0 -95 -116 -99q73 -22 73 -61q0 -23 -58 -122t-58 -148q0 -74 61 -74q57 0 146 80t173 239l39 -39q-75 -170 -188 -273t-227 -103q-82 0 -126 54t-44 124q-93 -111 -158.5 -162t-138.5 -51
q-72 0 -120 47t-48 133zM111 74q0 -66 47 -66q26 0 56 15.5t65 46.5l63 61q31 31 70 80l61 78l59 80l50 67q6 10 16 10h4l4 -2q10 33 10 76q0 107 -86 107q-135 0 -277 -201t-142 -352zM387 841q0 56 92.5 116t145.5 60q51 0 123.5 -77.5t72.5 -139.5q0 -53 -51 -80
q-47 80 -147 170q-94 -30 -209 -106q-27 16 -27 57zM126 -286q0 37 47.5 76.5t91.5 39.5q72 0 72 -68q0 -35 -32 -83.5t-82 -48.5q-49 0 -73 25.5t-24 58.5z" />
    <glyph glyph-name=".notdef.127" unicode="&#x1eb8;" horiz-adv-x="1092" 
d="M-8 207q0 184 150.5 341t371.5 187q-147 129 -147 309q0 170 125.5 299.5t318.5 129.5q125 0 192.5 -60.5t67.5 -175.5q0 -117 -58.5 -216t-117.5 -99q-51 0 -98 84q180 147 180 274q0 59 -40 92t-108 33q-131 0 -205.5 -113.5t-74.5 -265.5q0 -215 151 -332
q-213 -32 -348 -180.5t-135 -310.5q0 -111 65.5 -200t200.5 -89q162 0 321 131t247 313l55 -34q-121 -228 -295 -365t-383 -137q-192 0 -314 110.5t-122 274.5zM281 -390q0 37 47.5 76.5t91.5 39.5q72 0 72 -68q0 -35 -32 -83.5t-82 -48.5q-49 0 -73 25.5t-24 58.5z" />
    <glyph glyph-name=".notdef.045" unicode="&#x1eb9;" horiz-adv-x="698" 
d="M-35 158q0 186 173 383.5t358 197.5q149 0 149 -137q0 -147 -159.5 -262t-356.5 -135q-4 -21 -4 -47q0 -21 3 -39.5t16.5 -50t49 -51t89.5 -19.5q125 0 255 101.5t210 252.5l40 -33q-81 -184 -234 -296.5t-316 -112.5q-129 0 -201 69.5t-72 178.5zM152 281
q118 14 250.5 118.5t132.5 212.5q0 39 -35 39q-90 0 -196.5 -118.5t-151.5 -251.5zM109 -286q0 37 47.5 76.5t91.5 39.5q72 0 72 -68q0 -35 -32 -83.5t-82 -48.5q-49 0 -73 25.5t-24 58.5z" />
    <glyph glyph-name=".notdef.125" unicode="&#x1eba;" horiz-adv-x="1092" 
d="M-8 207q0 184 150.5 341t371.5 187q-147 129 -147 309q0 170 125.5 299.5t318.5 129.5q125 0 192.5 -60.5t67.5 -175.5q0 -117 -58.5 -216t-117.5 -99q-51 0 -98 84q180 147 180 274q0 59 -40 92t-108 33q-131 0 -205.5 -113.5t-74.5 -265.5q0 -215 151 -332
q-213 -32 -348 -180.5t-135 -310.5q0 -111 65.5 -200t200.5 -89q162 0 321 131t247 313l55 -34q-121 -228 -295 -365t-383 -137q-192 0 -314 110.5t-122 274.5zM753 1786q5 18 10 30.5t12.5 24t18 22t27.5 24.5q69 57 149 57q60 0 86 -31.5t9 -89.5q-11 -34 -33.5 -64
t-49.5 -54l-51 -42q-12 -10 -16 -14t-6 -8t-4.5 -10t-11.5 -21q-2 -3 -1 -2t1.5 2.5t0.5 0t-3 -8.5q-4 -8 -7.5 -12.5l-7 -9l-8 -10t-10.5 -14.5q-17 9 -27 11t-15 4.5t-6 8t1 22.5q1 5 1 8t1.5 7.5t5.5 12l12 21.5q9 9 20 17l18.5 16.5t18.5 17.5q26 23 48 52t32 59
q8 31 2.5 47.5t-22.5 16.5q-30 0 -71 -37q-11 -10 -16.5 -17t-9 -13.5t-6 -14.5t-5.5 -21q-4 -11 -5.5 -29.5l-3.5 -44.5q-56 8 -72.5 29.5t-5.5 56.5z" />
    <glyph glyph-name=".notdef.047" unicode="&#x1ebb;" horiz-adv-x="698" 
d="M-35 158q0 186 173 383.5t358 197.5q149 0 149 -137q0 -147 -159.5 -262t-356.5 -135q-4 -21 -4 -47q0 -21 3 -39.5t16.5 -50t49 -51t89.5 -19.5q125 0 255 101.5t210 252.5l40 -33q-81 -184 -234 -296.5t-316 -112.5q-129 0 -201 69.5t-72 178.5zM152 281
q118 14 250.5 118.5t132.5 212.5q0 39 -35 39q-90 0 -196.5 -118.5t-151.5 -251.5zM370 1033q5 18 10 30.5t12.5 24t18 22t27.5 24.5q69 57 149 57q60 0 86 -31.5t9 -89.5q-11 -34 -33.5 -64t-49.5 -54l-51 -42q-12 -10 -16 -14t-6 -8t-4.5 -10t-11.5 -21q-2 -3 -1 -2
t1.5 2.5t0.5 0t-3 -8.5q-4 -8 -7.5 -12.5l-7 -9l-8 -10t-10.5 -14.5q-17 9 -27 11t-15 4.5t-6 8t1 22.5q1 5 1 8t1.5 7.5t5.5 12l12 21.5q9 9 20 17l18.5 16.5t18.5 17.5q26 23 48 52t32 59q8 31 2.5 47.5t-22.5 16.5q-30 0 -71 -37q-11 -10 -16.5 -17t-9 -13.5t-6 -14.5
t-5.5 -21q-4 -11 -5.5 -29.5l-3.5 -44.5q-56 8 -72.5 29.5t-5.5 56.5z" />
    <glyph glyph-name=".notdef.126" unicode="&#x1ebc;" horiz-adv-x="1092" 
d="M-8 207q0 184 150.5 341t371.5 187q-147 129 -147 309q0 170 125.5 299.5t318.5 129.5q125 0 192.5 -60.5t67.5 -175.5q0 -117 -58.5 -216t-117.5 -99q-51 0 -98 84q180 147 180 274q0 59 -40 92t-108 33q-131 0 -205.5 -113.5t-74.5 -265.5q0 -215 151 -332
q-213 -32 -348 -180.5t-135 -310.5q0 -111 65.5 -200t200.5 -89q162 0 321 131t247 313l55 -34q-121 -228 -295 -365t-383 -137q-192 0 -314 110.5t-122 274.5zM577 1656q28 49 75 88.5t91 39.5q47 0 134.5 -44.5t136.5 -44.5q72 0 132 15q-87 -122 -167 -122q-51 0 -143 43
t-134 43q-58 0 -125 -18z" />
    <glyph glyph-name=".notdef.046" unicode="&#x1ebd;" horiz-adv-x="698" 
d="M-35 158q0 186 173 383.5t358 197.5q149 0 149 -137q0 -147 -159.5 -262t-356.5 -135q-4 -21 -4 -47q0 -21 3 -39.5t16.5 -50t49 -51t89.5 -19.5q125 0 255 101.5t210 252.5l40 -33q-81 -184 -234 -296.5t-316 -112.5q-129 0 -201 69.5t-72 178.5zM152 281
q118 14 250.5 118.5t132.5 212.5q0 39 -35 39q-90 0 -196.5 -118.5t-151.5 -251.5zM246 867q28 49 75 88.5t91 39.5q47 0 134.5 -44.5t136.5 -44.5q72 0 132 15q-87 -122 -167 -122q-51 0 -143 43t-134 43q-58 0 -125 -18z" />
    <glyph glyph-name=".notdef.130" unicode="&#x1ebe;" horiz-adv-x="1092" 
d="M-8 207q0 184 150.5 341t371.5 187q-147 129 -147 309q0 170 125.5 299.5t318.5 129.5q125 0 192.5 -60.5t67.5 -175.5q0 -117 -58.5 -216t-117.5 -99q-51 0 -98 84q180 147 180 274q0 59 -40 92t-108 33q-131 0 -205.5 -113.5t-74.5 -265.5q0 -215 151 -332
q-213 -32 -348 -180.5t-135 -310.5q0 -111 65.5 -200t200.5 -89q162 0 321 131t247 313l55 -34q-121 -228 -295 -365t-383 -137q-192 0 -314 110.5t-122 274.5zM614 1633q0 55 92.5 115.5t145.5 60.5q51 0 124 -78t73 -139q0 -53 -52 -80q-47 80 -147 170q-94 -31 -209 -106
q-27 16 -27 57zM1065 1750q0 41 76.5 138t134.5 97q53 0 61 -71q-174 -168 -223 -232q-23 11 -36 32.5t-13 35.5z" />
    <glyph glyph-name=".notdef.042" unicode="&#x1ebf;" horiz-adv-x="698" 
d="M-35 158q0 186 173 383.5t358 197.5q149 0 149 -137q0 -147 -159.5 -262t-356.5 -135q-4 -21 -4 -47q0 -21 3 -39.5t16.5 -50t49 -51t89.5 -19.5q125 0 255 101.5t210 252.5l40 -33q-81 -184 -234 -296.5t-316 -112.5q-129 0 -201 69.5t-72 178.5zM152 281
q118 14 250.5 118.5t132.5 212.5q0 39 -35 39q-90 0 -196.5 -118.5t-151.5 -251.5zM292 880q0 56 92.5 116t145.5 60q51 0 123.5 -77.5t72.5 -139.5q0 -53 -51 -80q-47 80 -147 170q-94 -30 -209 -106q-27 16 -27 57zM742 997q0 41 76.5 138t134.5 97q53 0 61 -71
q-174 -168 -223 -232q-23 11 -36 32.5t-13 35.5z" />
    <glyph glyph-name=".notdef.129" unicode="&#x1ec0;" horiz-adv-x="1092" 
d="M-8 207q0 184 150.5 341t371.5 187q-147 129 -147 309q0 170 125.5 299.5t318.5 129.5q125 0 192.5 -60.5t67.5 -175.5q0 -117 -58.5 -216t-117.5 -99q-51 0 -98 84q180 147 180 274q0 59 -40 92t-108 33q-131 0 -205.5 -113.5t-74.5 -265.5q0 -215 151 -332
q-213 -32 -348 -180.5t-135 -310.5q0 -111 65.5 -200t200.5 -89q162 0 321 131t247 313l55 -34q-121 -228 -295 -365t-383 -137q-192 0 -314 110.5t-122 274.5zM614 1633q0 55 92.5 115.5t145.5 60.5q51 0 124 -78t73 -139q0 -53 -52 -80q-47 80 -147 170q-94 -31 -209 -106
q-27 16 -27 57zM892 1937q2 38 21.5 58.5t44.5 20.5q57 0 141 -94t84 -137q0 -18 -14.5 -41t-36.5 -33q-101 119 -240 226z" />
    <glyph glyph-name=".notdef.043" unicode="&#x1ec1;" horiz-adv-x="698" 
d="M-35 158q0 186 173 383.5t358 197.5q149 0 149 -137q0 -147 -159.5 -262t-356.5 -135q-4 -21 -4 -47q0 -21 3 -39.5t16.5 -50t49 -51t89.5 -19.5q125 0 255 101.5t210 252.5l40 -33q-81 -184 -234 -296.5t-316 -112.5q-129 0 -201 69.5t-72 178.5zM152 281
q118 14 250.5 118.5t132.5 212.5q0 39 -35 39q-90 0 -196.5 -118.5t-151.5 -251.5zM292 880q0 56 92.5 116t145.5 60q51 0 123.5 -77.5t72.5 -139.5q0 -53 -51 -80q-47 80 -147 170q-94 -30 -209 -106q-27 16 -27 57zM569 1184q2 38 21.5 58.5t44.5 20.5q57 0 141 -94
t84 -137q0 -18 -14.5 -41t-36.5 -33q-101 119 -240 226z" />
    <glyph glyph-name=".notdef.131" unicode="&#x1ec2;" horiz-adv-x="1092" 
d="M-8 207q0 184 150.5 341t371.5 187q-147 129 -147 309q0 170 125.5 299.5t318.5 129.5q125 0 192.5 -60.5t67.5 -175.5q0 -117 -58.5 -216t-117.5 -99q-51 0 -98 84q180 147 180 274q0 59 -40 92t-108 33q-131 0 -205.5 -113.5t-74.5 -265.5q0 -215 151 -332
q-213 -32 -348 -180.5t-135 -310.5q0 -111 65.5 -200t200.5 -89q162 0 321 131t247 313l55 -34q-121 -228 -295 -365t-383 -137q-192 0 -314 110.5t-122 274.5zM614 1633q0 55 92.5 115.5t145.5 60.5q51 0 124 -78t73 -139q0 -53 -52 -80q-47 80 -147 170q-94 -31 -209 -106
q-27 16 -27 57zM1004 1935q5 18 10 30.5t12.5 24t18 22t27.5 24.5q69 57 149 57q60 0 86 -31.5t9 -89.5q-11 -34 -33.5 -64t-49.5 -54l-51 -42q-12 -10 -16 -14t-6 -8t-4.5 -10t-11.5 -21q-2 -3 -1 -2t1.5 2.5t0.5 0t-3 -8.5q-4 -8 -7.5 -12.5l-7 -9l-8 -10t-10.5 -14.5
q-17 9 -27 11t-15 4.5t-6 8t1 22.5q1 5 1 8t1.5 7.5t5.5 12l12 21.5q9 9 20 17l18.5 16.5t18.5 17.5q26 23 48 52t32 59q8 31 2.5 47.5t-22.5 16.5q-30 0 -71 -37q-11 -10 -16.5 -17t-9 -13.5t-6 -14.5t-5.5 -21q-4 -11 -5.5 -29.5l-3.5 -44.5q-56 8 -72.5 29.5t-5.5 56.5z
" />
    <glyph glyph-name=".notdef.041" unicode="&#x1ec3;" horiz-adv-x="698" 
d="M-35 158q0 186 173 383.5t358 197.5q149 0 149 -137q0 -147 -159.5 -262t-356.5 -135q-4 -21 -4 -47q0 -21 3 -39.5t16.5 -50t49 -51t89.5 -19.5q125 0 255 101.5t210 252.5l40 -33q-81 -184 -234 -296.5t-316 -112.5q-129 0 -201 69.5t-72 178.5zM152 281
q118 14 250.5 118.5t132.5 212.5q0 39 -35 39q-90 0 -196.5 -118.5t-151.5 -251.5zM292 880q0 56 92.5 116t145.5 60q51 0 123.5 -77.5t72.5 -139.5q0 -53 -51 -80q-47 80 -147 170q-94 -30 -209 -106q-27 16 -27 57zM679 1182q5 18 10 30.5t12.5 24t18 22t27.5 24.5
q69 57 149 57q60 0 86 -31.5t9 -89.5q-11 -34 -33.5 -64t-49.5 -54l-51 -42q-12 -10 -16 -14t-6 -8t-4.5 -10t-11.5 -21q-2 -3 -1 -2t1.5 2.5t0.5 0t-3 -8.5q-4 -8 -7.5 -12.5l-7 -9l-8 -10t-10.5 -14.5q-17 9 -27 11t-15 4.5t-6 8t1 22.5q1 5 1 8t1.5 7.5t5.5 12l12 21.5
q9 9 20 17l18.5 16.5t18.5 17.5q26 23 48 52t32 59q8 31 2.5 47.5t-22.5 16.5q-30 0 -71 -37q-11 -10 -16.5 -17t-9 -13.5t-6 -14.5t-5.5 -21q-4 -11 -5.5 -29.5l-3.5 -44.5q-56 8 -72.5 29.5t-5.5 56.5z" />
    <glyph glyph-name=".notdef.132" unicode="&#x1ec4;" horiz-adv-x="1092" 
d="M-8 207q0 184 150.5 341t371.5 187q-147 129 -147 309q0 170 125.5 299.5t318.5 129.5q125 0 192.5 -60.5t67.5 -175.5q0 -117 -58.5 -216t-117.5 -99q-51 0 -98 84q180 147 180 274q0 59 -40 92t-108 33q-131 0 -205.5 -113.5t-74.5 -265.5q0 -215 151 -332
q-213 -32 -348 -180.5t-135 -310.5q0 -111 65.5 -200t200.5 -89q162 0 321 131t247 313l55 -34q-121 -228 -295 -365t-383 -137q-192 0 -314 110.5t-122 274.5zM614 1633q0 55 92.5 115.5t145.5 60.5q51 0 124 -78t73 -139q0 -53 -52 -80q-47 80 -147 170q-94 -31 -209 -106
q-27 16 -27 57zM621 1920q28 49 75 88.5t91 39.5q47 0 134.5 -44.5t136.5 -44.5q72 0 132 15q-87 -122 -167 -122q-51 0 -143 43t-134 43q-58 0 -125 -18z" />
    <glyph glyph-name=".notdef.040" unicode="&#x1ec5;" horiz-adv-x="698" 
d="M-35 158q0 186 173 383.5t358 197.5q149 0 149 -137q0 -147 -159.5 -262t-356.5 -135q-4 -21 -4 -47q0 -21 3 -39.5t16.5 -50t49 -51t89.5 -19.5q125 0 255 101.5t210 252.5l40 -33q-81 -184 -234 -296.5t-316 -112.5q-129 0 -201 69.5t-72 178.5zM152 281
q118 14 250.5 118.5t132.5 212.5q0 39 -35 39q-90 0 -196.5 -118.5t-151.5 -251.5zM292 880q0 56 92.5 116t145.5 60q51 0 123.5 -77.5t72.5 -139.5q0 -53 -51 -80q-47 80 -147 170q-94 -30 -209 -106q-27 16 -27 57zM300 1169q28 49 75 88.5t91 39.5q47 0 134.5 -44.5
t136.5 -44.5q72 0 132 15q-87 -122 -167 -122q-51 0 -143 43t-134 43q-58 0 -125 -18z" />
    <glyph glyph-name=".notdef.105" unicode="&#x1ec6;" horiz-adv-x="1092" 
d="M-8 207q0 184 150.5 341t371.5 187q-147 129 -147 309q0 170 125.5 299.5t318.5 129.5q125 0 192.5 -60.5t67.5 -175.5q0 -117 -58.5 -216t-117.5 -99q-51 0 -98 84q180 147 180 274q0 59 -40 92t-108 33q-131 0 -205.5 -113.5t-74.5 -265.5q0 -215 151 -332
q-213 -32 -348 -180.5t-135 -310.5q0 -111 65.5 -200t200.5 -89q162 0 321 131t247 313l55 -34q-121 -228 -295 -365t-383 -137q-192 0 -314 110.5t-122 274.5zM614 1633q0 55 92.5 115.5t145.5 60.5q51 0 124 -78t73 -139q0 -53 -52 -80q-47 80 -147 170q-94 -31 -209 -106
q-27 16 -27 57zM281 -390q0 37 47.5 76.5t91.5 39.5q72 0 72 -68q0 -35 -32 -83.5t-82 -48.5q-49 0 -73 25.5t-24 58.5z" />
    <glyph glyph-name=".notdef.039" unicode="&#x1ec7;" horiz-adv-x="698" 
d="M-35 158q0 186 173 383.5t358 197.5q149 0 149 -137q0 -147 -159.5 -262t-356.5 -135q-4 -21 -4 -47q0 -21 3 -39.5t16.5 -50t49 -51t89.5 -19.5q125 0 255 101.5t210 252.5l40 -33q-81 -184 -234 -296.5t-316 -112.5q-129 0 -201 69.5t-72 178.5zM152 281
q118 14 250.5 118.5t132.5 212.5q0 39 -35 39q-90 0 -196.5 -118.5t-151.5 -251.5zM292 880q0 56 92.5 116t145.5 60q51 0 123.5 -77.5t72.5 -139.5q0 -53 -51 -80q-47 80 -147 170q-94 -30 -209 -106q-27 16 -27 57zM109 -286q0 37 47.5 76.5t91.5 39.5q72 0 72 -68
q0 -35 -32 -83.5t-82 -48.5q-49 0 -73 25.5t-24 58.5z" />
    <glyph glyph-name=".notdef.102" unicode="&#x1ec8;" horiz-adv-x="1030" 
d="M-37 -180q6 63 34 103t81 58.5t105.5 24.5t131.5 6q84 181 205 710t148 607q-254 -4 -486 -49q21 102 128.5 147.5t326.5 45.5q246 0 594 -46q-101 -96 -238 -96q-155 0 -221 -2l-12 -61q-4 -25 -75 -413t-103 -519q-62 -246 -148 -328q27 -2 193 -18.5t270 -18.5
q-121 -114 -272 -114h-4q-285 0 -396.5 -6.5t-261.5 -30.5zM666 1786q5 18 10 30.5t12.5 24t18 22t27.5 24.5q69 57 149 57q60 0 86 -31.5t9 -89.5q-11 -34 -33.5 -64t-49.5 -54l-51 -42q-12 -10 -16 -14t-6 -8t-4.5 -10t-11.5 -21q-2 -3 -1 -2t1.5 2.5t0.5 0t-3 -8.5
q-4 -8 -7.5 -12.5l-7 -9l-8 -10t-10.5 -14.5q-17 9 -27 11t-15 4.5t-6 8t1 22.5q1 5 1 8t1.5 7.5t5.5 12l12 21.5q9 9 20 17l18.5 16.5t18.5 17.5q26 23 48 52t32 59q8 31 2.5 47.5t-22.5 16.5q-30 0 -71 -37q-11 -10 -16.5 -17t-9 -13.5t-6 -14.5t-5.5 -21
q-4 -11 -5.5 -29.5l-3.5 -44.5q-56 8 -72.5 29.5t-5.5 56.5z" />
    <glyph glyph-name=".notdef.036" unicode="&#x1ec9;" horiz-adv-x="500" 
d="M-16 121q0 82 43 216t116.5 246.5t145.5 112.5q26 0 43.5 -15t17.5 -44q0 -27 -52 -112t-105.5 -192.5t-53.5 -185.5q0 -63 22.5 -85.5t69.5 -22.5q162 0 322 313l31 -33q-72 -180 -182.5 -280t-237.5 -100q-86 0 -133 51t-47 131zM223 1033q5 18 10 30.5t12.5 24t18 22
t27.5 24.5q69 57 149 57q60 0 86 -31.5t9 -89.5q-11 -34 -33.5 -64t-49.5 -54l-51 -42q-12 -10 -16 -14t-6 -8t-4.5 -10t-11.5 -21q-2 -3 -1 -2t1.5 2.5t0.5 0t-3 -8.5q-4 -8 -7.5 -12.5l-7 -9l-8 -10t-10.5 -14.5q-17 9 -27 11t-15 4.5t-6 8t1 22.5q1 5 1 8t1.5 7.5t5.5 12
l12 21.5q9 9 20 17l18.5 16.5t18.5 17.5q26 23 48 52t32 59q8 31 2.5 47.5t-22.5 16.5q-30 0 -71 -37q-11 -10 -16.5 -17t-9 -13.5t-6 -14.5t-5.5 -21q-4 -11 -5.5 -29.5l-3.5 -44.5q-56 8 -72.5 29.5t-5.5 56.5z" />
    <glyph glyph-name=".notdef.100" unicode="&#x1eca;" horiz-adv-x="1030" 
d="M-37 -180q6 63 34 103t81 58.5t105.5 24.5t131.5 6q84 181 205 710t148 607q-254 -4 -486 -49q21 102 128.5 147.5t326.5 45.5q246 0 594 -46q-101 -96 -238 -96q-155 0 -221 -2l-12 -61q-4 -25 -75 -413t-103 -519q-62 -246 -148 -328q27 -2 193 -18.5t270 -18.5
q-121 -114 -272 -114h-4q-285 0 -396.5 -6.5t-261.5 -30.5zM213 -390q0 37 47.5 76.5t91.5 39.5q72 0 72 -68q0 -35 -32 -83.5t-82 -48.5q-49 0 -73 25.5t-24 58.5z" />
    <glyph glyph-name=".notdef.034" unicode="&#x1ecb;" horiz-adv-x="500" 
d="M-16 121q0 82 43 216t116.5 246.5t145.5 112.5q26 0 43.5 -15t17.5 -44q0 -27 -52 -112t-105.5 -192.5t-53.5 -185.5q0 -63 22.5 -85.5t69.5 -22.5q162 0 322 313l31 -33q-72 -180 -182.5 -280t-237.5 -100q-86 0 -133 51t-47 131zM303 942q0 47 52.5 83t111.5 36
q88 0 88 -76q0 -43 -47 -83t-102 -40q-44 0 -73.5 20.5t-29.5 59.5zM-23 -286q0 37 47.5 76.5t91.5 39.5q72 0 72 -68q0 -35 -32 -83.5t-82 -48.5q-49 0 -73 25.5t-24 58.5z" />
    <glyph glyph-name=".notdef.095" unicode="&#x1ecc;" horiz-adv-x="1341" 
d="M66 336q0 258 128 523t338.5 439.5t430.5 174.5q84 0 139 -58q-33 4 -60 4q-172 0 -352 -172t-295.5 -430t-115.5 -493q0 -177 70.5 -290.5t217.5 -113.5q135 0 259 104.5t206 265.5t131 348t49 357q0 113 -21.5 204t-70.5 91q-65 0 -152 -150.5t-114 -281.5
q-129 27 -129 119q0 110 141.5 253.5t257.5 143.5q58 0 99 -43t60.5 -115.5t27.5 -144.5t8 -149q0 -250 -80 -464t-203 -349.5t-265 -211t-275 -75.5q-185 0 -307.5 140t-122.5 374zM370 -390q0 37 47.5 76.5t91.5 39.5q72 0 72 -68q0 -35 -32 -83.5t-82 -48.5
q-49 0 -73 25.5t-24 58.5z" />
    <glyph glyph-name=".notdef.029" unicode="&#x1ecd;" horiz-adv-x="762" 
d="M-25 127q0 135 78 264t168 129q25 0 64 -16q12 94 66.5 155.5t152.5 61.5q82 0 121 -46t39 -120q0 -141 -136 -348q25 -12 58 -12q57 0 122.5 37.5t100.5 115.5l37 -26q-43 -99 -116 -150t-150 -51q-48 0 -103 18q-170 -205 -342 -205q-86 0 -123 55.5t-37 137.5z
M139 133q0 -94 70 -94q74 0 197 145q-117 103 -123 301q-39 -20 -91.5 -142t-52.5 -210zM399 451q0 -48 16.5 -108t43.5 -93q119 170 119 305q0 90 -58 90q-43 0 -82 -57.5t-39 -136.5zM-2 -286q0 37 47.5 76.5t91.5 39.5q72 0 72 -68q0 -35 -32 -83.5t-82 -48.5
q-49 0 -73 25.5t-24 58.5z" />
    <glyph glyph-name=".notdef.097" unicode="&#x1ece;" horiz-adv-x="1341" 
d="M66 336q0 258 128 523t338.5 439.5t430.5 174.5q84 0 139 -58q-33 4 -60 4q-172 0 -352 -172t-295.5 -430t-115.5 -493q0 -177 70.5 -290.5t217.5 -113.5q135 0 259 104.5t206 265.5t131 348t49 357q0 113 -21.5 204t-70.5 91q-65 0 -152 -150.5t-114 -281.5
q-129 27 -129 119q0 110 141.5 253.5t257.5 143.5q58 0 99 -43t60.5 -115.5t27.5 -144.5t8 -149q0 -250 -80 -464t-203 -349.5t-265 -211t-275 -75.5q-185 0 -307.5 140t-122.5 374zM930 1786q5 18 10 30.5t12.5 24t18 22t27.5 24.5q69 57 149 57q60 0 86 -31.5t9 -89.5
q-11 -34 -33.5 -64t-49.5 -54l-51 -42q-12 -10 -16 -14t-6 -8t-4.5 -10t-11.5 -21q-2 -3 -1 -2t1.5 2.5t0.5 0t-3 -8.5q-4 -8 -7.5 -12.5l-7 -9l-8 -10t-10.5 -14.5q-17 9 -27 11t-15 4.5t-6 8t1 22.5q1 5 1 8t1.5 7.5t5.5 12l12 21.5q9 9 20 17l18.5 16.5t18.5 17.5
q26 23 48 52t32 59q8 31 2.5 47.5t-22.5 16.5q-30 0 -71 -37q-11 -10 -16.5 -17t-9 -13.5t-6 -14.5t-5.5 -21q-4 -11 -5.5 -29.5l-3.5 -44.5q-56 8 -72.5 29.5t-5.5 56.5z" />
    <glyph glyph-name=".notdef.031" unicode="&#x1ecf;" horiz-adv-x="762" 
d="M-25 127q0 135 78 264t168 129q25 0 64 -16q12 94 66.5 155.5t152.5 61.5q82 0 121 -46t39 -120q0 -141 -136 -348q25 -12 58 -12q57 0 122.5 37.5t100.5 115.5l37 -26q-43 -99 -116 -150t-150 -51q-48 0 -103 18q-170 -205 -342 -205q-86 0 -123 55.5t-37 137.5z
M139 133q0 -94 70 -94q74 0 197 145q-117 103 -123 301q-39 -20 -91.5 -142t-52.5 -210zM399 451q0 -48 16.5 -108t43.5 -93q119 170 119 305q0 90 -58 90q-43 0 -82 -57.5t-39 -136.5zM420 1030q5 18 10 30.5t12.5 24t18 22t27.5 24.5q69 57 149 57q60 0 86 -31.5t9 -89.5
q-11 -34 -33.5 -64t-49.5 -54l-51 -42q-12 -10 -16 -14t-6 -8t-4.5 -10t-11.5 -21q-2 -3 -1 -2t1.5 2.5t0.5 0t-3 -8.5q-4 -8 -7.5 -12.5l-7 -9l-8 -10t-10.5 -14.5q-17 9 -27 11t-15 4.5t-6 8t1 22.5q1 5 1 8t1.5 7.5t5.5 12l12 21.5q9 9 20 17l18.5 16.5t18.5 17.5
q26 23 48 52t32 59q8 31 2.5 47.5t-22.5 16.5q-30 0 -71 -37q-11 -10 -16.5 -17t-9 -13.5t-6 -14.5t-5.5 -21q-4 -11 -5.5 -29.5l-3.5 -44.5q-56 8 -72.5 29.5t-5.5 56.5z" />
    <glyph glyph-name=".notdef.092" unicode="&#x1ed0;" horiz-adv-x="1341" 
d="M66 336q0 258 128 523t338.5 439.5t430.5 174.5q84 0 139 -58q-33 4 -60 4q-172 0 -352 -172t-295.5 -430t-115.5 -493q0 -177 70.5 -290.5t217.5 -113.5q135 0 259 104.5t206 265.5t131 348t49 357q0 113 -21.5 204t-70.5 91q-65 0 -152 -150.5t-114 -281.5
q-129 27 -129 119q0 110 141.5 253.5t257.5 143.5q58 0 99 -43t60.5 -115.5t27.5 -144.5t8 -149q0 -250 -80 -464t-203 -349.5t-265 -211t-275 -75.5q-185 0 -307.5 140t-122.5 374zM825 1630q0 55 92.5 115.5t145.5 60.5q51 0 123.5 -78t72.5 -139q0 -53 -51 -80
q-47 80 -147 170q-94 -31 -209 -106q-27 16 -27 57zM1277 1747q0 41 76.5 138t134.5 97q53 0 61 -71q-174 -168 -223 -232q-23 11 -36 32.5t-13 35.5z" />
    <glyph glyph-name=".notdef.026" unicode="&#x1ed1;" horiz-adv-x="762" 
d="M-25 127q0 135 78 264t168 129q25 0 64 -16q12 94 66.5 155.5t152.5 61.5q82 0 121 -46t39 -120q0 -141 -136 -348q25 -12 58 -12q57 0 122.5 37.5t100.5 115.5l37 -26q-43 -99 -116 -150t-150 -51q-48 0 -103 18q-170 -205 -342 -205q-86 0 -123 55.5t-37 137.5z
M139 133q0 -94 70 -94q74 0 197 145q-117 103 -123 301q-39 -20 -91.5 -142t-52.5 -210zM399 451q0 -48 16.5 -108t43.5 -93q119 170 119 305q0 90 -58 90q-43 0 -82 -57.5t-39 -136.5zM298 869q0 56 92.5 116t145.5 60q51 0 124 -77.5t73 -139.5q0 -53 -52 -80
q-47 80 -147 170q-94 -30 -209 -106q-27 16 -27 57zM749 986q0 41 76.5 138t134.5 97q53 0 61 -71q-174 -168 -223 -232q-23 11 -36 32.5t-13 35.5z" />
    <glyph glyph-name=".notdef.093" unicode="&#x1ed2;" horiz-adv-x="1341" 
d="M66 336q0 258 128 523t338.5 439.5t430.5 174.5q84 0 139 -58q-33 4 -60 4q-172 0 -352 -172t-295.5 -430t-115.5 -493q0 -177 70.5 -290.5t217.5 -113.5q135 0 259 104.5t206 265.5t131 348t49 357q0 113 -21.5 204t-70.5 91q-65 0 -152 -150.5t-114 -281.5
q-129 27 -129 119q0 110 141.5 253.5t257.5 143.5q58 0 99 -43t60.5 -115.5t27.5 -144.5t8 -149q0 -250 -80 -464t-203 -349.5t-265 -211t-275 -75.5q-185 0 -307.5 140t-122.5 374zM825 1630q0 55 92.5 115.5t145.5 60.5q51 0 123.5 -78t72.5 -139q0 -53 -51 -80
q-47 80 -147 170q-94 -31 -209 -106q-27 16 -27 57zM1103 1934q2 38 21.5 58.5t44.5 20.5q57 0 141 -94t84 -137q0 -18 -14.5 -41t-36.5 -33q-101 119 -240 226z" />
    <glyph glyph-name=".notdef.027" unicode="&#x1ed3;" horiz-adv-x="762" 
d="M-25 127q0 135 78 264t168 129q25 0 64 -16q12 94 66.5 155.5t152.5 61.5q82 0 121 -46t39 -120q0 -141 -136 -348q25 -12 58 -12q57 0 122.5 37.5t100.5 115.5l37 -26q-43 -99 -116 -150t-150 -51q-48 0 -103 18q-170 -205 -342 -205q-86 0 -123 55.5t-37 137.5z
M139 133q0 -94 70 -94q74 0 197 145q-117 103 -123 301q-39 -20 -91.5 -142t-52.5 -210zM399 451q0 -48 16.5 -108t43.5 -93q119 170 119 305q0 90 -58 90q-43 0 -82 -57.5t-39 -136.5zM298 869q0 56 92.5 116t145.5 60q51 0 124 -77.5t73 -139.5q0 -53 -52 -80
q-47 80 -147 170q-94 -30 -209 -106q-27 16 -27 57zM576 1173q2 38 21.5 58.5t44.5 20.5q57 0 141 -94t84 -137q0 -18 -14.5 -41t-36.5 -33q-101 119 -240 226z" />
    <glyph glyph-name=".notdef.091" unicode="&#x1ed4;" horiz-adv-x="1341" 
d="M66 336q0 258 128 523t338.5 439.5t430.5 174.5q84 0 139 -58q-33 4 -60 4q-172 0 -352 -172t-295.5 -430t-115.5 -493q0 -177 70.5 -290.5t217.5 -113.5q135 0 259 104.5t206 265.5t131 348t49 357q0 113 -21.5 204t-70.5 91q-65 0 -152 -150.5t-114 -281.5
q-129 27 -129 119q0 110 141.5 253.5t257.5 143.5q58 0 99 -43t60.5 -115.5t27.5 -144.5t8 -149q0 -250 -80 -464t-203 -349.5t-265 -211t-275 -75.5q-185 0 -307.5 140t-122.5 374zM825 1630q0 55 92.5 115.5t145.5 60.5q51 0 123.5 -78t72.5 -139q0 -53 -51 -80
q-47 80 -147 170q-94 -31 -209 -106q-27 16 -27 57zM1214 1932q5 18 10 30.5t12.5 24t18 22t27.5 24.5q69 57 149 57q60 0 86 -31.5t9 -89.5q-11 -34 -33.5 -64t-49.5 -54l-51 -42q-12 -10 -16 -14t-6 -8t-4.5 -10t-11.5 -21q-2 -3 -1 -2t1.5 2.5t0.5 0t-3 -8.5
q-4 -8 -7.5 -12.5l-7 -9l-8 -10t-10.5 -14.5q-17 9 -27 11t-15 4.5t-6 8t1 22.5q1 5 1 8t1.5 7.5t5.5 12l12 21.5q9 9 20 17l18.5 16.5t18.5 17.5q26 23 48 52t32 59q8 31 2.5 47.5t-22.5 16.5q-30 0 -71 -37q-11 -10 -16.5 -17t-9 -13.5t-6 -14.5t-5.5 -21
q-4 -11 -5.5 -29.5l-3.5 -44.5q-56 8 -72.5 29.5t-5.5 56.5z" />
    <glyph glyph-name=".notdef.025" unicode="&#x1ed5;" horiz-adv-x="762" 
d="M-25 127q0 135 78 264t168 129q25 0 64 -16q12 94 66.5 155.5t152.5 61.5q82 0 121 -46t39 -120q0 -141 -136 -348q25 -12 58 -12q57 0 122.5 37.5t100.5 115.5l37 -26q-43 -99 -116 -150t-150 -51q-48 0 -103 18q-170 -205 -342 -205q-86 0 -123 55.5t-37 137.5z
M139 133q0 -94 70 -94q74 0 197 145q-117 103 -123 301q-39 -20 -91.5 -142t-52.5 -210zM399 451q0 -48 16.5 -108t43.5 -93q119 170 119 305q0 90 -58 90q-43 0 -82 -57.5t-39 -136.5zM298 869q0 56 92.5 116t145.5 60q51 0 124 -77.5t73 -139.5q0 -53 -52 -80
q-47 80 -147 170q-94 -30 -209 -106q-27 16 -27 57zM685 1170q5 18 10 30.5t12.5 24t18 22t27.5 24.5q69 57 149 57q60 0 86 -31.5t9 -89.5q-11 -34 -33.5 -64t-49.5 -54l-51 -42q-12 -10 -16 -14t-6 -8t-4.5 -10t-11.5 -21q-2 -3 -1 -2t1.5 2.5t0.5 0t-3 -8.5
q-4 -8 -7.5 -12.5l-7 -9l-8 -10t-10.5 -14.5q-17 9 -27 11t-15 4.5t-6 8t1 22.5q1 5 1 8t1.5 7.5t5.5 12l12 21.5q9 9 20 17l18.5 16.5t18.5 17.5q26 23 48 52t32 59q8 31 2.5 47.5t-22.5 16.5q-30 0 -71 -37q-11 -10 -16.5 -17t-9 -13.5t-6 -14.5t-5.5 -21
q-4 -11 -5.5 -29.5l-3.5 -44.5q-56 8 -72.5 29.5t-5.5 56.5z" />
    <glyph glyph-name=".notdef.090" unicode="&#x1ed6;" horiz-adv-x="1341" 
d="M66 336q0 258 128 523t338.5 439.5t430.5 174.5q84 0 139 -58q-33 4 -60 4q-172 0 -352 -172t-295.5 -430t-115.5 -493q0 -177 70.5 -290.5t217.5 -113.5q135 0 259 104.5t206 265.5t131 348t49 357q0 113 -21.5 204t-70.5 91q-65 0 -152 -150.5t-114 -281.5
q-129 27 -129 119q0 110 141.5 253.5t257.5 143.5q58 0 99 -43t60.5 -115.5t27.5 -144.5t8 -149q0 -250 -80 -464t-203 -349.5t-265 -211t-275 -75.5q-185 0 -307.5 140t-122.5 374zM825 1630q0 55 92.5 115.5t145.5 60.5q51 0 123.5 -78t72.5 -139q0 -53 -51 -80
q-47 80 -147 170q-94 -31 -209 -106q-27 16 -27 57zM819 1923q28 49 75 88.5t91 39.5q47 0 134.5 -44.5t136.5 -44.5q72 0 132 15q-87 -122 -167 -122q-51 0 -143 43t-134 43q-58 0 -125 -18z" />
    <glyph glyph-name=".notdef.024" unicode="&#x1ed7;" horiz-adv-x="762" 
d="M-25 127q0 135 78 264t168 129q25 0 64 -16q12 94 66.5 155.5t152.5 61.5q82 0 121 -46t39 -120q0 -141 -136 -348q25 -12 58 -12q57 0 122.5 37.5t100.5 115.5l37 -26q-43 -99 -116 -150t-150 -51q-48 0 -103 18q-170 -205 -342 -205q-86 0 -123 55.5t-37 137.5z
M139 133q0 -94 70 -94q74 0 197 145q-117 103 -123 301q-39 -20 -91.5 -142t-52.5 -210zM399 451q0 -48 16.5 -108t43.5 -93q119 170 119 305q0 90 -58 90q-43 0 -82 -57.5t-39 -136.5zM298 869q0 56 92.5 116t145.5 60q51 0 124 -77.5t73 -139.5q0 -53 -52 -80
q-47 80 -147 170q-94 -30 -209 -106q-27 16 -27 57zM306 1158q28 49 75 88.5t91 39.5q47 0 134.5 -44.5t136.5 -44.5q72 0 132 15q-87 -122 -167 -122q-51 0 -143 43t-134 43q-58 0 -125 -18z" />
    <glyph glyph-name=".notdef.089" unicode="&#x1ed8;" horiz-adv-x="1341" 
d="M66 336q0 258 128 523t338.5 439.5t430.5 174.5q84 0 139 -58q-33 4 -60 4q-172 0 -352 -172t-295.5 -430t-115.5 -493q0 -177 70.5 -290.5t217.5 -113.5q135 0 259 104.5t206 265.5t131 348t49 357q0 113 -21.5 204t-70.5 91q-65 0 -152 -150.5t-114 -281.5
q-129 27 -129 119q0 110 141.5 253.5t257.5 143.5q58 0 99 -43t60.5 -115.5t27.5 -144.5t8 -149q0 -250 -80 -464t-203 -349.5t-265 -211t-275 -75.5q-185 0 -307.5 140t-122.5 374zM825 1630q0 55 92.5 115.5t145.5 60.5q51 0 123.5 -78t72.5 -139q0 -53 -51 -80
q-47 80 -147 170q-94 -31 -209 -106q-27 16 -27 57zM370 -390q0 37 47.5 76.5t91.5 39.5q72 0 72 -68q0 -35 -32 -83.5t-82 -48.5q-49 0 -73 25.5t-24 58.5z" />
    <glyph glyph-name=".notdef.023" unicode="&#x1ed9;" horiz-adv-x="762" 
d="M-25 127q0 135 78 264t168 129q25 0 64 -16q12 94 66.5 155.5t152.5 61.5q82 0 121 -46t39 -120q0 -141 -136 -348q25 -12 58 -12q57 0 122.5 37.5t100.5 115.5l37 -26q-43 -99 -116 -150t-150 -51q-48 0 -103 18q-170 -205 -342 -205q-86 0 -123 55.5t-37 137.5z
M139 133q0 -94 70 -94q74 0 197 145q-117 103 -123 301q-39 -20 -91.5 -142t-52.5 -210zM399 451q0 -48 16.5 -108t43.5 -93q119 170 119 305q0 90 -58 90q-43 0 -82 -57.5t-39 -136.5zM298 869q0 56 92.5 116t145.5 60q51 0 124 -77.5t73 -139.5q0 -53 -52 -80
q-47 80 -147 170q-94 -30 -209 -106q-27 16 -27 57zM-2 -286q0 37 47.5 76.5t91.5 39.5q72 0 72 -68q0 -35 -32 -83.5t-82 -48.5q-49 0 -73 25.5t-24 58.5z" />
    <glyph glyph-name=".notdef.075" unicode="&#x1eda;" horiz-adv-x="1341" 
d="M66 336q0 258 128 523t338.5 439.5t430.5 174.5q84 0 139 -58q-33 4 -60 4q-172 0 -352 -172t-295.5 -430t-115.5 -493q0 -177 70.5 -290.5t217.5 -113.5q135 0 259 104.5t206 265.5t131 348t49 357q0 113 -21.5 204t-70.5 91q-65 0 -152 -150.5t-114 -281.5
q-129 27 -129 119q0 110 141.5 253.5t257.5 143.5q58 0 99 -43t60.5 -115.5t27.5 -144.5t8 -149q0 -250 -80 -464t-203 -349.5t-265 -211t-275 -75.5q-185 0 -307.5 140t-122.5 374zM1343 1221q-70 -36 -143 22q6 10 42.5 61.5t42.5 60.5t30 47.5t34.5 57.5t25.5 52.5
t27 69.5q33 16 70 0.5t53 -52.5q29 -70 -36 -172.5t-146 -146.5zM914 1667q0 41 77 138t134 97q53 0 62 -71q-175 -168 -224 -232q-22 11 -35.5 32.5t-13.5 35.5z" />
    <glyph glyph-name=".notdef.009" unicode="&#x1edb;" horiz-adv-x="762" 
d="M-25 127q0 135 78 264t168 129q25 0 64 -16q12 94 66.5 155.5t152.5 61.5q82 0 121 -46t39 -120q0 -141 -136 -348q25 -12 58 -12q57 0 122.5 37.5t100.5 115.5l37 -26q-43 -99 -116 -150t-150 -51q-48 0 -103 18q-170 -205 -342 -205q-86 0 -123 55.5t-37 137.5z
M139 133q0 -94 70 -94q74 0 197 145q-117 103 -123 301q-39 -20 -91.5 -142t-52.5 -210zM399 451q0 -48 16.5 -108t43.5 -93q119 170 119 305q0 90 -58 90q-43 0 -82 -57.5t-39 -136.5zM694 422q-48 -25 -92 15q4 8 32.5 43.5t33 42l23 33t27 40.5l21.5 37t23 47
q22 12 46 1.5t32 -37.5q13 -48 -38 -119.5t-108 -102.5zM369 868q0 41 76.5 138.5t134.5 97.5q53 0 61 -72q-174 -168 -223 -231q-22 10 -35.5 31.5t-13.5 35.5z" />
    <glyph glyph-name=".notdef.076" unicode="&#x1edc;" horiz-adv-x="1341" 
d="M66 336q0 258 128 523t338.5 439.5t430.5 174.5q84 0 139 -58q-33 4 -60 4q-172 0 -352 -172t-295.5 -430t-115.5 -493q0 -177 70.5 -290.5t217.5 -113.5q135 0 259 104.5t206 265.5t131 348t49 357q0 113 -21.5 204t-70.5 91q-65 0 -152 -150.5t-114 -281.5
q-129 27 -129 119q0 110 141.5 253.5t257.5 143.5q58 0 99 -43t60.5 -115.5t27.5 -144.5t8 -149q0 -250 -80 -464t-203 -349.5t-265 -211t-275 -75.5q-185 0 -307.5 140t-122.5 374zM1343 1221q-70 -36 -143 22q6 10 42.5 61.5t42.5 60.5t30 47.5t34.5 57.5t25.5 52.5
t27 69.5q33 16 70 0.5t53 -52.5q29 -70 -36 -172.5t-146 -146.5zM860 1826q2 38 21.5 58.5t44.5 20.5q57 0 141 -94t84 -137q0 -18 -14.5 -41t-36.5 -33q-101 119 -240 226z" />
    <glyph glyph-name=".notdef.010" unicode="&#x1edd;" horiz-adv-x="762" 
d="M-25 127q0 135 78 264t168 129q25 0 64 -16q12 94 66.5 155.5t152.5 61.5q82 0 121 -46t39 -120q0 -141 -136 -348q25 -12 58 -12q57 0 122.5 37.5t100.5 115.5l37 -26q-43 -99 -116 -150t-150 -51q-48 0 -103 18q-170 -205 -342 -205q-86 0 -123 55.5t-37 137.5z
M139 133q0 -94 70 -94q74 0 197 145q-117 103 -123 301q-39 -20 -91.5 -142t-52.5 -210zM399 451q0 -48 16.5 -108t43.5 -93q119 170 119 305q0 90 -58 90q-43 0 -82 -57.5t-39 -136.5zM694 422q-48 -25 -92 15q4 8 32.5 43.5t33 42l23 33t27 40.5l21.5 37t23 47
q22 12 46 1.5t32 -37.5q13 -48 -38 -119.5t-108 -102.5zM336 1028q2 39 21.5 59.5t43.5 20.5q58 0 142 -94.5t84 -137.5q0 -18 -14.5 -40.5t-36.5 -33.5q-101 119 -240 226z" />
    <glyph glyph-name=".notdef.074" unicode="&#x1ede;" horiz-adv-x="1341" 
d="M66 336q0 258 128 523t338.5 439.5t430.5 174.5q84 0 139 -58q-33 4 -60 4q-172 0 -352 -172t-295.5 -430t-115.5 -493q0 -177 70.5 -290.5t217.5 -113.5q135 0 259 104.5t206 265.5t131 348t49 357q0 113 -21.5 204t-70.5 91q-65 0 -152 -150.5t-114 -281.5
q-129 27 -129 119q0 110 141.5 253.5t257.5 143.5q58 0 99 -43t60.5 -115.5t27.5 -144.5t8 -149q0 -250 -80 -464t-203 -349.5t-265 -211t-275 -75.5q-185 0 -307.5 140t-122.5 374zM1343 1221q-70 -36 -143 22q6 10 42.5 61.5t42.5 60.5t30 47.5t34.5 57.5t25.5 52.5
t27 69.5q33 16 70 0.5t53 -52.5q29 -70 -36 -172.5t-146 -146.5zM930 1786q5 18 10 30.5t12.5 24t18 22t27.5 24.5q69 57 149 57q60 0 86 -31.5t9 -89.5q-11 -34 -33.5 -64t-49.5 -54l-51 -42q-12 -10 -16 -14t-6 -8t-4.5 -10t-11.5 -21q-2 -3 -1 -2t1.5 2.5t0.5 0t-3 -8.5
q-4 -8 -7.5 -12.5l-7 -9l-8 -10t-10.5 -14.5q-17 9 -27 11t-15 4.5t-6 8t1 22.5q1 5 1 8t1.5 7.5t5.5 12l12 21.5q9 9 20 17l18.5 16.5t18.5 17.5q26 23 48 52t32 59q8 31 2.5 47.5t-22.5 16.5q-30 0 -71 -37q-11 -10 -16.5 -17t-9 -13.5t-6 -14.5t-5.5 -21
q-4 -11 -5.5 -29.5l-3.5 -44.5q-56 8 -72.5 29.5t-5.5 56.5z" />
    <glyph glyph-name=".notdef.008" unicode="&#x1edf;" horiz-adv-x="762" 
d="M-25 127q0 135 78 264t168 129q25 0 64 -16q12 94 66.5 155.5t152.5 61.5q82 0 121 -46t39 -120q0 -141 -136 -348q25 -12 58 -12q57 0 122.5 37.5t100.5 115.5l37 -26q-43 -99 -116 -150t-150 -51q-48 0 -103 18q-170 -205 -342 -205q-86 0 -123 55.5t-37 137.5z
M139 133q0 -94 70 -94q74 0 197 145q-117 103 -123 301q-39 -20 -91.5 -142t-52.5 -210zM399 451q0 -48 16.5 -108t43.5 -93q119 170 119 305q0 90 -58 90q-43 0 -82 -57.5t-39 -136.5zM694 422q-48 -25 -92 15q4 8 32.5 43.5t33 42l23 33t27 40.5l21.5 37t23 47
q22 12 46 1.5t32 -37.5q13 -48 -38 -119.5t-108 -102.5zM420 1030q5 18 10 30.5t12.5 24t18 22t27.5 24.5q69 57 149 57q60 0 86 -31.5t9 -89.5q-11 -34 -33.5 -64t-49.5 -54l-51 -42q-12 -10 -16 -14t-6 -8t-4.5 -10t-11.5 -21q-2 -3 -1 -2t1.5 2.5t0.5 0t-3 -8.5
q-4 -8 -7.5 -12.5l-7 -9l-8 -10t-10.5 -14.5q-17 9 -27 11t-15 4.5t-6 8t1 22.5q1 5 1 8t1.5 7.5t5.5 12l12 21.5q9 9 20 17l18.5 16.5t18.5 17.5q26 23 48 52t32 59q8 31 2.5 47.5t-22.5 16.5q-30 0 -71 -37q-11 -10 -16.5 -17t-9 -13.5t-6 -14.5t-5.5 -21
q-4 -11 -5.5 -29.5l-3.5 -44.5q-56 8 -72.5 29.5t-5.5 56.5z" />
    <glyph glyph-name=".notdef.073" unicode="&#x1ee0;" horiz-adv-x="1341" 
d="M66 336q0 258 128 523t338.5 439.5t430.5 174.5q84 0 139 -58q-33 4 -60 4q-172 0 -352 -172t-295.5 -430t-115.5 -493q0 -177 70.5 -290.5t217.5 -113.5q135 0 259 104.5t206 265.5t131 348t49 357q0 113 -21.5 204t-70.5 91q-65 0 -152 -150.5t-114 -281.5
q-129 27 -129 119q0 110 141.5 253.5t257.5 143.5q58 0 99 -43t60.5 -115.5t27.5 -144.5t8 -149q0 -250 -80 -464t-203 -349.5t-265 -211t-275 -75.5q-185 0 -307.5 140t-122.5 374zM1343 1221q-70 -36 -143 22q6 10 42.5 61.5t42.5 60.5t30 47.5t34.5 57.5t25.5 52.5
t27 69.5q33 16 70 0.5t53 -52.5q29 -70 -36 -172.5t-146 -146.5zM768 1656q28 49 75 88.5t91 39.5q47 0 134.5 -44.5t136.5 -44.5q72 0 132 15q-87 -122 -167 -122q-51 0 -143 43t-134 43q-58 0 -125 -18z" />
    <glyph glyph-name=".notdef.007" unicode="&#x1ee1;" horiz-adv-x="762" 
d="M-25 127q0 135 78 264t168 129q25 0 64 -16q12 94 66.5 155.5t152.5 61.5q82 0 121 -46t39 -120q0 -141 -136 -348q25 -12 58 -12q57 0 122.5 37.5t100.5 115.5l37 -26q-43 -99 -116 -150t-150 -51q-48 0 -103 18q-170 -205 -342 -205q-86 0 -123 55.5t-37 137.5z
M139 133q0 -94 70 -94q74 0 197 145q-117 103 -123 301q-39 -20 -91.5 -142t-52.5 -210zM399 451q0 -48 16.5 -108t43.5 -93q119 170 119 305q0 90 -58 90q-43 0 -82 -57.5t-39 -136.5zM694 422q-48 -25 -92 15q4 8 32.5 43.5t33 42l23 33t27 40.5l21.5 37t23 47
q22 12 46 1.5t32 -37.5q13 -48 -38 -119.5t-108 -102.5zM246 867q28 49 75 88.5t91 39.5q47 0 134.5 -44.5t136.5 -44.5q72 0 132 15q-87 -122 -167 -122q-51 0 -143 43t-134 43q-58 0 -125 -18z" />
    <glyph glyph-name=".notdef.072" unicode="&#x1ee2;" horiz-adv-x="1341" 
d="M66 336q0 258 128 523t338.5 439.5t430.5 174.5q84 0 139 -58q-33 4 -60 4q-172 0 -352 -172t-295.5 -430t-115.5 -493q0 -177 70.5 -290.5t217.5 -113.5q135 0 259 104.5t206 265.5t131 348t49 357q0 113 -21.5 204t-70.5 91q-65 0 -152 -150.5t-114 -281.5
q-129 27 -129 119q0 110 141.5 253.5t257.5 143.5q58 0 99 -43t60.5 -115.5t27.5 -144.5t8 -149q0 -250 -80 -464t-203 -349.5t-265 -211t-275 -75.5q-185 0 -307.5 140t-122.5 374zM1343 1221q-70 -36 -143 22q6 10 42.5 61.5t42.5 60.5t30 47.5t34.5 57.5t25.5 52.5
t27 69.5q33 16 70 0.5t53 -52.5q29 -70 -36 -172.5t-146 -146.5zM370 -390q0 37 47.5 76.5t91.5 39.5q72 0 72 -68q0 -35 -32 -83.5t-82 -48.5q-49 0 -73 25.5t-24 58.5z" />
    <glyph glyph-name=".notdef.006" unicode="&#x1ee3;" horiz-adv-x="762" 
d="M-25 127q0 135 78 264t168 129q25 0 64 -16q12 94 66.5 155.5t152.5 61.5q82 0 121 -46t39 -120q0 -141 -136 -348q25 -12 58 -12q57 0 122.5 37.5t100.5 115.5l37 -26q-43 -99 -116 -150t-150 -51q-48 0 -103 18q-170 -205 -342 -205q-86 0 -123 55.5t-37 137.5z
M139 133q0 -94 70 -94q74 0 197 145q-117 103 -123 301q-39 -20 -91.5 -142t-52.5 -210zM399 451q0 -48 16.5 -108t43.5 -93q119 170 119 305q0 90 -58 90q-43 0 -82 -57.5t-39 -136.5zM694 422q-48 -25 -92 15q4 8 32.5 43.5t33 42l23 33t27 40.5l21.5 37t23 47
q22 12 46 1.5t32 -37.5q13 -48 -38 -119.5t-108 -102.5zM-2 -286q0 37 47.5 76.5t91.5 39.5q72 0 72 -68q0 -35 -32 -83.5t-82 -48.5q-49 0 -73 25.5t-24 58.5z" />
    <glyph glyph-name=".notdef.084" unicode="&#x1ee4;" horiz-adv-x="1536" 
d="M68 1098q0 133 122.5 254t290.5 121q238 0 238 -265q0 -153 -123 -549q-117 -370 -117 -505q0 -224 170 -224q105 0 197 93.5t143 207t80 234.5l55 219l56 217q39 146 65 225l62 170q34 93 66 135t61 42q45 0 131 -80q-39 -29 -129 -262.5t-170 -542.5t-80 -498
q0 -125 42 -167t150 -42q-22 -37 -74.5 -60.5t-99.5 -23.5q-76 0 -130 66.5t-54 163.5q0 16 4 106q-170 -313 -436 -313q-137 0 -214 82t-77 229.5t123 526t123 546.5q0 185 -111 185q-96 0 -152.5 -111t-56.5 -207q0 -63 27 -131q-182 0 -182 158zM540 -390q0 37 47.5 76.5
t91.5 39.5q72 0 72 -68q0 -35 -32 -83.5t-82 -48.5q-49 0 -73 25.5t-24 58.5z" />
    <glyph glyph-name=".notdef.018" unicode="&#x1ee5;" horiz-adv-x="903" 
d="M-2 152q0 116 67.5 287t118.5 171q43 0 97 -53q-43 -63 -89.5 -182t-46.5 -205q0 -123 62 -123q53 0 131 101.5t132 206t99 204.5q123 -20 123 -70q0 -4 -32.5 -76.5t-64.5 -166.5t-32 -152q0 -71 53 -71h2q68 0 167.5 91t170.5 236l31 -24q-69 -166 -192 -276.5
t-238 -110.5q-39 0 -66.5 15t-42 35.5t-22.5 55.5t-9 59.5t-1 63.5q-45 -70 -78 -112t-84 -79.5t-98 -37.5q-68 0 -113 63.5t-45 149.5zM76 -286q0 37 47.5 76.5t91.5 39.5q72 0 72 -68q0 -35 -32 -83.5t-82 -48.5q-49 0 -73 25.5t-24 58.5z" />
    <glyph glyph-name=".notdef.086" unicode="&#x1ee6;" horiz-adv-x="1536" 
d="M68 1098q0 133 122.5 254t290.5 121q238 0 238 -265q0 -153 -123 -549q-117 -370 -117 -505q0 -224 170 -224q105 0 197 93.5t143 207t80 234.5l55 219l56 217q39 146 65 225l62 170q34 93 66 135t61 42q45 0 131 -80q-39 -29 -129 -262.5t-170 -542.5t-80 -498
q0 -125 42 -167t150 -42q-22 -37 -74.5 -60.5t-99.5 -23.5q-76 0 -130 66.5t-54 163.5q0 16 4 106q-170 -313 -436 -313q-137 0 -214 82t-77 229.5t123 526t123 546.5q0 185 -111 185q-96 0 -152.5 -111t-56.5 -207q0 -63 27 -131q-182 0 -182 158zM963 1786q5 18 10 30.5
t12.5 24t18 22t27.5 24.5q69 57 149 57q60 0 86 -31.5t9 -89.5q-11 -34 -33.5 -64t-49.5 -54l-51 -42q-12 -10 -16 -14t-6 -8t-4.5 -10t-11.5 -21q-2 -3 -1 -2t1.5 2.5t0.5 0t-3 -8.5q-4 -8 -7.5 -12.5l-7 -9l-8 -10t-10.5 -14.5q-17 9 -27 11t-15 4.5t-6 8t1 22.5q1 5 1 8
t1.5 7.5t5.5 12l12 21.5q9 9 20 17l18.5 16.5t18.5 17.5q26 23 48 52t32 59q8 31 2.5 47.5t-22.5 16.5q-30 0 -71 -37q-11 -10 -16.5 -17t-9 -13.5t-6 -14.5t-5.5 -21q-4 -11 -5.5 -29.5l-3.5 -44.5q-56 8 -72.5 29.5t-5.5 56.5z" />
    <glyph glyph-name=".notdef.020" unicode="&#x1ee7;" horiz-adv-x="903" 
d="M-2 152q0 116 67.5 287t118.5 171q43 0 97 -53q-43 -63 -89.5 -182t-46.5 -205q0 -123 62 -123q53 0 131 101.5t132 206t99 204.5q123 -20 123 -70q0 -4 -32.5 -76.5t-64.5 -166.5t-32 -152q0 -71 53 -71h2q68 0 167.5 91t170.5 236l31 -24q-69 -166 -192 -276.5
t-238 -110.5q-39 0 -66.5 15t-42 35.5t-22.5 55.5t-9 59.5t-1 63.5q-45 -70 -78 -112t-84 -79.5t-98 -37.5q-68 0 -113 63.5t-45 149.5zM366 912q5 18 10 30.5t12.5 24t18 22t27.5 24.5q69 57 149 57q60 0 86 -31.5t9 -89.5q-11 -34 -33.5 -64t-49.5 -54l-51 -42
q-12 -10 -16 -14t-6 -8t-4.5 -10t-11.5 -21q-2 -3 -1 -2t1.5 2.5t0.5 0t-3 -8.5q-4 -8 -7.5 -12.5l-7 -9l-8 -10t-10.5 -14.5q-17 9 -27 11t-15 4.5t-6 8t1 22.5q1 5 1 8t1.5 7.5t5.5 12l12 21.5q9 9 20 17l18.5 16.5t18.5 17.5q26 23 48 52t32 59q8 31 2.5 47.5t-22.5 16.5
q-30 0 -71 -37q-11 -10 -16.5 -17t-9 -13.5t-6 -14.5t-5.5 -21q-4 -11 -5.5 -29.5l-3.5 -44.5q-56 8 -72.5 29.5t-5.5 56.5z" />
    <glyph glyph-name=".notdef.081" unicode="&#x1ee8;" horiz-adv-x="1536" 
d="M68 1098q0 133 122.5 254t290.5 121q238 0 238 -265q0 -153 -123 -549q-117 -370 -117 -505q0 -224 170 -224q105 0 197 93.5t143 207t80 234.5l55 219l56 217q39 146 65 225l62 170q34 93 66 135t61 42q45 0 131 -80q-39 -29 -129 -262.5t-170 -542.5t-80 -498
q0 -125 42 -167t150 -42q-22 -37 -74.5 -60.5t-99.5 -23.5q-76 0 -130 66.5t-54 163.5q0 16 4 106q-170 -313 -436 -313q-137 0 -214 82t-77 229.5t123 526t123 546.5q0 185 -111 185q-96 0 -152.5 -111t-56.5 -207q0 -63 27 -131q-182 0 -182 158zM1601 1221
q-70 -36 -143 22q6 10 42.5 61.5t42.5 60.5t30 47.5t34.5 57.5t25.5 52.5t27 69.5q33 16 70 0.5t53 -52.5q29 -70 -36 -172.5t-146 -146.5zM920 1668q0 41 77 138t134 97q53 0 62 -71q-174 -168 -224 -232q-22 11 -35.5 32.5t-13.5 35.5z" />
    <glyph glyph-name=".notdef.015" unicode="&#x1ee9;" horiz-adv-x="903" 
d="M-2 152q0 116 67.5 287t118.5 171q43 0 97 -53q-43 -63 -89.5 -182t-46.5 -205q0 -123 62 -123q53 0 131 101.5t132 206t99 204.5q123 -20 123 -70q0 -4 -32.5 -76.5t-64.5 -166.5t-32 -152q0 -71 53 -71h2q68 0 167.5 91t170.5 236l31 -24q-69 -166 -192 -276.5
t-238 -110.5q-39 0 -66.5 15t-42 35.5t-22.5 55.5t-9 59.5t-1 63.5q-45 -70 -78 -112t-84 -79.5t-98 -37.5q-68 0 -113 63.5t-45 149.5zM712 422q-48 -25 -92 15q4 8 32.5 43.5t33 42l23 33t27 40.5l21.5 37t23 47q22 12 46 1.5t32 -37.5q13 -48 -38 -119.5t-108 -102.5z
M362 772q0 41 77 138.5t134 97.5q54 0 62 -72q-174 -168 -223 -231q-23 10 -36.5 31.5t-13.5 35.5z" />
    <glyph glyph-name=".notdef.082" unicode="&#x1eea;" horiz-adv-x="1536" 
d="M68 1098q0 133 122.5 254t290.5 121q238 0 238 -265q0 -153 -123 -549q-117 -370 -117 -505q0 -224 170 -224q105 0 197 93.5t143 207t80 234.5l55 219l56 217q39 146 65 225l62 170q34 93 66 135t61 42q45 0 131 -80q-39 -29 -129 -262.5t-170 -542.5t-80 -498
q0 -125 42 -167t150 -42q-22 -37 -74.5 -60.5t-99.5 -23.5q-76 0 -130 66.5t-54 163.5q0 16 4 106q-170 -313 -436 -313q-137 0 -214 82t-77 229.5t123 526t123 546.5q0 185 -111 185q-96 0 -152.5 -111t-56.5 -207q0 -63 27 -131q-182 0 -182 158zM1601 1221
q-70 -36 -143 22q6 10 42.5 61.5t42.5 60.5t30 47.5t34.5 57.5t25.5 52.5t27 69.5q33 16 70 0.5t53 -52.5q29 -70 -36 -172.5t-146 -146.5zM858 1826q2 38 21.5 58.5t44.5 20.5q57 0 141 -94t84 -137q0 -18 -14.5 -41t-36.5 -33q-100 119 -240 226z" />
    <glyph glyph-name=".notdef.016" unicode="&#x1eeb;" horiz-adv-x="903" 
d="M-2 152q0 116 67.5 287t118.5 171q43 0 97 -53q-43 -63 -89.5 -182t-46.5 -205q0 -123 62 -123q53 0 131 101.5t132 206t99 204.5q123 -20 123 -70q0 -4 -32.5 -76.5t-64.5 -166.5t-32 -152q0 -71 53 -71h2q68 0 167.5 91t170.5 236l31 -24q-69 -166 -192 -276.5
t-238 -110.5q-39 0 -66.5 15t-42 35.5t-22.5 55.5t-9 59.5t-1 63.5q-45 -70 -78 -112t-84 -79.5t-98 -37.5q-68 0 -113 63.5t-45 149.5zM712 422q-48 -25 -92 15q4 8 32.5 43.5t33 42l23 33t27 40.5l21.5 37t23 47q22 12 46 1.5t32 -37.5q13 -48 -38 -119.5t-108 -102.5z
M289 931q2 39 21.5 59.5t43.5 20.5q58 0 141.5 -94t83.5 -137q0 -19 -14 -41.5t-37 -32.5q-100 119 -239 225z" />
    <glyph glyph-name=".notdef.080" unicode="&#x1eec;" horiz-adv-x="1536" 
d="M68 1098q0 133 122.5 254t290.5 121q238 0 238 -265q0 -153 -123 -549q-117 -370 -117 -505q0 -224 170 -224q105 0 197 93.5t143 207t80 234.5l55 219l56 217q39 146 65 225l62 170q34 93 66 135t61 42q45 0 131 -80q-39 -29 -129 -262.5t-170 -542.5t-80 -498
q0 -125 42 -167t150 -42q-22 -37 -74.5 -60.5t-99.5 -23.5q-76 0 -130 66.5t-54 163.5q0 16 4 106q-170 -313 -436 -313q-137 0 -214 82t-77 229.5t123 526t123 546.5q0 185 -111 185q-96 0 -152.5 -111t-56.5 -207q0 -63 27 -131q-182 0 -182 158zM1601 1221
q-70 -36 -143 22q6 10 42.5 61.5t42.5 60.5t30 47.5t34.5 57.5t25.5 52.5t27 69.5q33 16 70 0.5t53 -52.5q29 -70 -36 -172.5t-146 -146.5zM963 1786q5 18 10 30.5t12.5 24t18 22t27.5 24.5q69 57 149 57q60 0 86 -31.5t9 -89.5q-11 -34 -33.5 -64t-49.5 -54l-51 -42
q-12 -10 -16 -14t-6 -8t-4.5 -10t-11.5 -21q-2 -3 -1 -2t1.5 2.5t0.5 0t-3 -8.5q-4 -8 -7.5 -12.5l-7 -9l-8 -10t-10.5 -14.5q-17 9 -27 11t-15 4.5t-6 8t1 22.5q1 5 1 8t1.5 7.5t5.5 12l12 21.5q9 9 20 17l18.5 16.5t18.5 17.5q26 23 48 52t32 59q8 31 2.5 47.5t-22.5 16.5
q-30 0 -71 -37q-11 -10 -16.5 -17t-9 -13.5t-6 -14.5t-5.5 -21q-4 -11 -5.5 -29.5l-3.5 -44.5q-56 8 -72.5 29.5t-5.5 56.5z" />
    <glyph glyph-name=".notdef.014" unicode="&#x1eed;" horiz-adv-x="903" 
d="M-2 152q0 116 67.5 287t118.5 171q43 0 97 -53q-43 -63 -89.5 -182t-46.5 -205q0 -123 62 -123q53 0 131 101.5t132 206t99 204.5q123 -20 123 -70q0 -4 -32.5 -76.5t-64.5 -166.5t-32 -152q0 -71 53 -71h2q68 0 167.5 91t170.5 236l31 -24q-69 -166 -192 -276.5
t-238 -110.5q-39 0 -66.5 15t-42 35.5t-22.5 55.5t-9 59.5t-1 63.5q-45 -70 -78 -112t-84 -79.5t-98 -37.5q-68 0 -113 63.5t-45 149.5zM712 422q-48 -25 -92 15q4 8 32.5 43.5t33 42l23 33t27 40.5l21.5 37t23 47q22 12 46 1.5t32 -37.5q13 -48 -38 -119.5t-108 -102.5z
M366 912q5 18 10 30.5t12.5 24t18 22t27.5 24.5q69 57 149 57q60 0 86 -31.5t9 -89.5q-11 -34 -33.5 -64t-49.5 -54l-51 -42q-12 -10 -16 -14t-6 -8t-4.5 -10t-11.5 -21q-2 -3 -1 -2t1.5 2.5t0.5 0t-3 -8.5q-4 -8 -7.5 -12.5l-7 -9l-8 -10t-10.5 -14.5q-17 9 -27 11t-15 4.5
t-6 8t1 22.5q1 5 1 8t1.5 7.5t5.5 12l12 21.5q9 9 20 17l18.5 16.5t18.5 17.5q26 23 48 52t32 59q8 31 2.5 47.5t-22.5 16.5q-30 0 -71 -37q-11 -10 -16.5 -17t-9 -13.5t-6 -14.5t-5.5 -21q-4 -11 -5.5 -29.5l-3.5 -44.5q-56 8 -72.5 29.5t-5.5 56.5z" />
    <glyph glyph-name=".notdef.079" unicode="&#x1eee;" horiz-adv-x="1536" 
d="M68 1098q0 133 122.5 254t290.5 121q238 0 238 -265q0 -153 -123 -549q-117 -370 -117 -505q0 -224 170 -224q105 0 197 93.5t143 207t80 234.5l55 219l56 217q39 146 65 225l62 170q34 93 66 135t61 42q45 0 131 -80q-39 -29 -129 -262.5t-170 -542.5t-80 -498
q0 -125 42 -167t150 -42q-22 -37 -74.5 -60.5t-99.5 -23.5q-76 0 -130 66.5t-54 163.5q0 16 4 106q-170 -313 -436 -313q-137 0 -214 82t-77 229.5t123 526t123 546.5q0 185 -111 185q-96 0 -152.5 -111t-56.5 -207q0 -63 27 -131q-182 0 -182 158zM1601 1221
q-70 -36 -143 22q6 10 42.5 61.5t42.5 60.5t30 47.5t34.5 57.5t25.5 52.5t27 69.5q33 16 70 0.5t53 -52.5q29 -70 -36 -172.5t-146 -146.5zM758 1656q28 49 75 88.5t91 39.5q47 0 134.5 -44.5t136.5 -44.5q72 0 132 15q-87 -122 -167 -122q-51 0 -143 43t-134 43
q-58 0 -125 -18z" />
    <glyph glyph-name=".notdef.013" unicode="&#x1eef;" horiz-adv-x="903" 
d="M-2 152q0 116 67.5 287t118.5 171q43 0 97 -53q-43 -63 -89.5 -182t-46.5 -205q0 -123 62 -123q53 0 131 101.5t132 206t99 204.5q123 -20 123 -70q0 -4 -32.5 -76.5t-64.5 -166.5t-32 -152q0 -71 53 -71h2q68 0 167.5 91t170.5 236l31 -24q-69 -166 -192 -276.5
t-238 -110.5q-39 0 -66.5 15t-42 35.5t-22.5 55.5t-9 59.5t-1 63.5q-45 -70 -78 -112t-84 -79.5t-98 -37.5q-68 0 -113 63.5t-45 149.5zM712 422q-48 -25 -92 15q4 8 32.5 43.5t33 42l23 33t27 40.5l21.5 37t23 47q22 12 46 1.5t32 -37.5q13 -48 -38 -119.5t-108 -102.5z
M211 782q28 49 75 88.5t91 39.5q47 0 134.5 -44.5t136.5 -44.5q72 0 132 15q-87 -122 -167 -122q-51 0 -143 43t-134 43q-58 0 -125 -18z" />
    <glyph glyph-name=".notdef.078" unicode="&#x1ef0;" horiz-adv-x="1536" 
d="M68 1098q0 133 122.5 254t290.5 121q238 0 238 -265q0 -153 -123 -549q-117 -370 -117 -505q0 -224 170 -224q105 0 197 93.5t143 207t80 234.5l55 219l56 217q39 146 65 225l62 170q34 93 66 135t61 42q45 0 131 -80q-39 -29 -129 -262.5t-170 -542.5t-80 -498
q0 -125 42 -167t150 -42q-22 -37 -74.5 -60.5t-99.5 -23.5q-76 0 -130 66.5t-54 163.5q0 16 4 106q-170 -313 -436 -313q-137 0 -214 82t-77 229.5t123 526t123 546.5q0 185 -111 185q-96 0 -152.5 -111t-56.5 -207q0 -63 27 -131q-182 0 -182 158zM1601 1221
q-70 -36 -143 22q6 10 42.5 61.5t42.5 60.5t30 47.5t34.5 57.5t25.5 52.5t27 69.5q33 16 70 0.5t53 -52.5q29 -70 -36 -172.5t-146 -146.5zM540 -390q0 37 47.5 76.5t91.5 39.5q72 0 72 -68q0 -35 -32 -83.5t-82 -48.5q-49 0 -73 25.5t-24 58.5z" />
    <glyph glyph-name=".notdef.012" unicode="&#x1ef1;" horiz-adv-x="903" 
d="M-2 152q0 116 67.5 287t118.5 171q43 0 97 -53q-43 -63 -89.5 -182t-46.5 -205q0 -123 62 -123q53 0 131 101.5t132 206t99 204.5q123 -20 123 -70q0 -4 -32.5 -76.5t-64.5 -166.5t-32 -152q0 -71 53 -71h2q68 0 167.5 91t170.5 236l31 -24q-69 -166 -192 -276.5
t-238 -110.5q-39 0 -66.5 15t-42 35.5t-22.5 55.5t-9 59.5t-1 63.5q-45 -70 -78 -112t-84 -79.5t-98 -37.5q-68 0 -113 63.5t-45 149.5zM712 422q-48 -25 -92 15q4 8 32.5 43.5t33 42l23 33t27 40.5l21.5 37t23 47q22 12 46 1.5t32 -37.5q13 -48 -38 -119.5t-108 -102.5z
M76 -286q0 37 47.5 76.5t91.5 39.5q72 0 72 -68q0 -35 -32 -83.5t-82 -48.5q-49 0 -73 25.5t-24 58.5z" />
    <glyph glyph-name=".notdef.071" unicode="&#x1ef2;" horiz-adv-x="1446" 
d="M66 1098q0 133 121.5 255t291.5 122q117 0 178.5 -63.5t61.5 -162.5q0 -71 -57 -276q-74 -264 -74 -373q0 -192 143 -192h2q131 0 244 140t184 351l41 135l49 158q21 65 48.5 136t58.5 109t61 38q62 0 140 -78q-107 -164 -160 -325t-178 -677q-31 -127 -59.5 -219
t-82 -204.5t-116 -184.5t-160.5 -121t-217 -49q-131 0 -213 53.5t-82 149.5q0 65 41 115.5t114 66.5q-22 -100 -22 -139q0 -174 186 -174q115 0 198 67.5t128 183t71.5 224t48 241t38.5 183.5q-181 -291 -428 -291q-129 0 -190.5 71.5t-61.5 190.5q0 103 65.5 348.5
t65.5 333.5q0 148 -111 148q-100 0 -155.5 -105.5t-55.5 -228.5q0 -49 25 -115q-182 0 -182 158zM883 1825q2 38 21.5 58.5t44.5 20.5q57 0 141 -94t84 -137q0 -18 -14.5 -41t-36.5 -33q-101 119 -240 226z" />
    <glyph glyph-name=".notdef.005" unicode="&#x1ef3;" horiz-adv-x="819" 
d="M-41 -440q0 49 28.5 96t61.5 80t101.5 72.5t105.5 56.5l111 55q34 88 98 320q-158 -224 -295 -224q-68 0 -121 41t-53 129q0 111 69.5 279t118.5 168q21 0 62 -21.5t49 -46.5q-39 -53 -85 -178t-46 -197q0 -75 57 -75h2q115 0 271 247q2 5 9 47t15 70.5t37 56t70 27.5
q8 0 65 -8q-2 -51 -48 -223t-107 -336q233 96 329 346l35 -29q-78 -256 -391 -395q-207 -491 -410 -491q-57 0 -98 33.5t-41 99.5zM39 -440q0 -58 39 -58q43 0 112.5 87t137.5 241q-289 -145 -289 -270zM289 931q2 39 21.5 59.5t43.5 20.5q58 0 141.5 -94t83.5 -137
q0 -19 -14 -41.5t-37 -32.5q-100 119 -239 225z" />
    <glyph glyph-name=".notdef.067" unicode="&#x1ef4;" horiz-adv-x="1446" 
d="M66 1098q0 133 121.5 255t291.5 122q117 0 178.5 -63.5t61.5 -162.5q0 -71 -57 -276q-74 -264 -74 -373q0 -192 143 -192h2q131 0 244 140t184 351l41 135l49 158q21 65 48.5 136t58.5 109t61 38q62 0 140 -78q-107 -164 -160 -325t-178 -677q-31 -127 -59.5 -219
t-82 -204.5t-116 -184.5t-160.5 -121t-217 -49q-131 0 -213 53.5t-82 149.5q0 65 41 115.5t114 66.5q-22 -100 -22 -139q0 -174 186 -174q115 0 198 67.5t128 183t71.5 224t48 241t38.5 183.5q-181 -291 -428 -291q-129 0 -190.5 71.5t-61.5 190.5q0 103 65.5 348.5
t65.5 333.5q0 148 -111 148q-100 0 -155.5 -105.5t-55.5 -228.5q0 -49 25 -115q-182 0 -182 158zM558 59q0 37 47.5 76.5t91.5 39.5q72 0 72 -68q0 -35 -32 -83.5t-82 -48.5q-49 0 -73 25.5t-24 58.5z" />
    <glyph glyph-name=".notdef.001" unicode="&#x1ef5;" horiz-adv-x="819" 
d="M-41 -440q0 49 28.5 96t61.5 80t101.5 72.5t105.5 56.5l111 55q34 88 98 320q-158 -224 -295 -224q-68 0 -121 41t-53 129q0 111 69.5 279t118.5 168q21 0 62 -21.5t49 -46.5q-39 -53 -85 -178t-46 -197q0 -75 57 -75h2q115 0 271 247q2 5 9 47t15 70.5t37 56t70 27.5
q8 0 65 -8q-2 -51 -48 -223t-107 -336q233 96 329 346l35 -29q-78 -256 -391 -395q-207 -491 -410 -491q-57 0 -98 33.5t-41 99.5zM39 -440q0 -58 39 -58q43 0 112.5 87t137.5 241q-289 -145 -289 -270zM496 -286q0 37 47.5 76.5t91.5 39.5q72 0 72 -68q0 -35 -32 -83.5
t-82 -48.5q-49 0 -73 25.5t-24 58.5z" />
    <glyph glyph-name=".notdef.069" unicode="&#x1ef6;" horiz-adv-x="1446" 
d="M66 1098q0 133 121.5 255t291.5 122q117 0 178.5 -63.5t61.5 -162.5q0 -71 -57 -276q-74 -264 -74 -373q0 -192 143 -192h2q131 0 244 140t184 351l41 135l49 158q21 65 48.5 136t58.5 109t61 38q62 0 140 -78q-107 -164 -160 -325t-178 -677q-31 -127 -59.5 -219
t-82 -204.5t-116 -184.5t-160.5 -121t-217 -49q-131 0 -213 53.5t-82 149.5q0 65 41 115.5t114 66.5q-22 -100 -22 -139q0 -174 186 -174q115 0 198 67.5t128 183t71.5 224t48 241t38.5 183.5q-181 -291 -428 -291q-129 0 -190.5 71.5t-61.5 190.5q0 103 65.5 348.5
t65.5 333.5q0 148 -111 148q-100 0 -155.5 -105.5t-55.5 -228.5q0 -49 25 -115q-182 0 -182 158zM930 1786q5 18 10 30.5t12.5 24t18 22t27.5 24.5q69 57 149 57q60 0 86 -31.5t9 -89.5q-11 -34 -33.5 -64t-49.5 -54l-51 -42q-12 -10 -16 -14t-6 -8t-4.5 -10t-11.5 -21
q-2 -3 -1 -2t1.5 2.5t0.5 0t-3 -8.5q-4 -8 -7.5 -12.5l-7 -9l-8 -10t-10.5 -14.5q-17 9 -27 11t-15 4.5t-6 8t1 22.5q1 5 1 8t1.5 7.5t5.5 12l12 21.5q9 9 20 17l18.5 16.5t18.5 17.5q26 23 48 52t32 59q8 31 2.5 47.5t-22.5 16.5q-30 0 -71 -37q-11 -10 -16.5 -17t-9 -13.5
t-6 -14.5t-5.5 -21q-4 -11 -5.5 -29.5l-3.5 -44.5q-56 8 -72.5 29.5t-5.5 56.5z" />
    <glyph glyph-name=".notdef.003" unicode="&#x1ef7;" horiz-adv-x="819" 
d="M-41 -440q0 49 28.5 96t61.5 80t101.5 72.5t105.5 56.5l111 55q34 88 98 320q-158 -224 -295 -224q-68 0 -121 41t-53 129q0 111 69.5 279t118.5 168q21 0 62 -21.5t49 -46.5q-39 -53 -85 -178t-46 -197q0 -75 57 -75h2q115 0 271 247q2 5 9 47t15 70.5t37 56t70 27.5
q8 0 65 -8q-2 -51 -48 -223t-107 -336q233 96 329 346l35 -29q-78 -256 -391 -395q-207 -491 -410 -491q-57 0 -98 33.5t-41 99.5zM39 -440q0 -58 39 -58q43 0 112.5 87t137.5 241q-289 -145 -289 -270zM366 912q5 18 10 30.5t12.5 24t18 22t27.5 24.5q69 57 149 57
q60 0 86 -31.5t9 -89.5q-11 -34 -33.5 -64t-49.5 -54l-51 -42q-12 -10 -16 -14t-6 -8t-4.5 -10t-11.5 -21q-2 -3 -1 -2t1.5 2.5t0.5 0t-3 -8.5q-4 -8 -7.5 -12.5l-7 -9l-8 -10t-10.5 -14.5q-17 9 -27 11t-15 4.5t-6 8t1 22.5q1 5 1 8t1.5 7.5t5.5 12l12 21.5q9 9 20 17
l18.5 16.5t18.5 17.5q26 23 48 52t32 59q8 31 2.5 47.5t-22.5 16.5q-30 0 -71 -37q-11 -10 -16.5 -17t-9 -13.5t-6 -14.5t-5.5 -21q-4 -11 -5.5 -29.5l-3.5 -44.5q-56 8 -72.5 29.5t-5.5 56.5z" />
    <glyph glyph-name=".notdef.068" unicode="&#x1ef8;" horiz-adv-x="1446" 
d="M66 1098q0 133 121.5 255t291.5 122q117 0 178.5 -63.5t61.5 -162.5q0 -71 -57 -276q-74 -264 -74 -373q0 -192 143 -192h2q131 0 244 140t184 351l41 135l49 158q21 65 48.5 136t58.5 109t61 38q62 0 140 -78q-107 -164 -160 -325t-178 -677q-31 -127 -59.5 -219
t-82 -204.5t-116 -184.5t-160.5 -121t-217 -49q-131 0 -213 53.5t-82 149.5q0 65 41 115.5t114 66.5q-22 -100 -22 -139q0 -174 186 -174q115 0 198 67.5t128 183t71.5 224t48 241t38.5 183.5q-181 -291 -428 -291q-129 0 -190.5 71.5t-61.5 190.5q0 103 65.5 348.5
t65.5 333.5q0 148 -111 148q-100 0 -155.5 -105.5t-55.5 -228.5q0 -49 25 -115q-182 0 -182 158zM758 1656q28 49 75 88.5t91 39.5q47 0 134.5 -44.5t136.5 -44.5q72 0 132 15q-87 -122 -167 -122q-51 0 -143 43t-134 43q-58 0 -125 -18z" />
    <glyph glyph-name=".notdef.002" unicode="&#x1ef9;" horiz-adv-x="819" 
d="M-41 -440q0 49 28.5 96t61.5 80t101.5 72.5t105.5 56.5l111 55q34 88 98 320q-158 -224 -295 -224q-68 0 -121 41t-53 129q0 111 69.5 279t118.5 168q21 0 62 -21.5t49 -46.5q-39 -53 -85 -178t-46 -197q0 -75 57 -75h2q115 0 271 247q2 5 9 47t15 70.5t37 56t70 27.5
q8 0 65 -8q-2 -51 -48 -223t-107 -336q233 96 329 346l35 -29q-78 -256 -391 -395q-207 -491 -410 -491q-57 0 -98 33.5t-41 99.5zM39 -440q0 -58 39 -58q43 0 112.5 87t137.5 241q-289 -145 -289 -270zM211 782q28 49 75 88.5t91 39.5q47 0 134.5 -44.5t136.5 -44.5
q72 0 132 15q-87 -122 -167 -122q-51 0 -143 43t-134 43q-58 0 -125 -18z" />
    <glyph glyph-name="sterling" unicode="&#xa3;" horiz-adv-x="1415" 
d="M-20 82q0 102 167 102q101 0 259 -41q57 103 90 195q-222 -27 -244 -31q8 164 293 172l18 60q-49 6 -149 6q-80 0 -138 -6q0 57 100.5 99t229.5 42l43 127q-98 33 -155.5 93.5t-57.5 127.5q0 66 47 122t123 56q-39 -51 -39 -133q0 -131 107 -194q43 133 85 230t97 185
t123 134.5t147 46.5q86 0 156 -51.5t70 -170.5q0 -73 -32 -153t-93.5 -154t-171 -121t-246.5 -47q-23 -59 -35 -104l103 -12q67 -9 122.5 -12t116.5 -3q-49 -65 -110.5 -79.5t-274.5 -18.5l-29 -74q23 -2 157 -15.5t218 -15.5q-49 -65 -114.5 -79.5t-311.5 -18.5
q-69 -160 -123 -235q398 -119 541 -119q90 0 182 45q-77 -215 -245 -215q-43 0 -94.5 10t-117 33.5t-109.5 41t-125 53.5t-111 48q-111 -117 -238 -117q-100 0 -165.5 62.5t-65.5 128.5zM43 63q0 -26 44 -63t95 -37q82 0 160 86q-145 53 -217 53q-82 0 -82 -39zM831 846
q111 8 202 93t134 184.5t43 179.5q0 92 -67 92q-43 0 -84 -41t-82 -126t-72 -167t-74 -215z" />
    <glyph glyph-name="yen" unicode="&#xa5;" horiz-adv-x="1778" 
d="M244 1098q0 133 122.5 255t290.5 122q119 0 180.5 -66t61.5 -156q0 -63 -65.5 -299.5t-65.5 -351.5q0 -194 141 -194q90 0 178.5 79.5t145.5 182t108 229.5q134 576 258 576q25 0 66 -22.5t72 -55.5q-99 -154 -161.5 -342.5t-118.5 -434t-95 -370.5q53 -2 141 -9.5
t103 -7.5q-123 -83 -271 -83l-35 -99q74 -2 248 -14l62 -4q-123 -86 -260 -86h-95q-157 -330 -473 -330q-133 0 -223 54.5t-90 150.5q0 119 158 174q-21 -78 -21 -139q0 -72 48 -116t132 -44q193 0 320 250q-158 0 -322 -25q47 123 365 131l33 97q-248 -5 -402 -27
q27 76 135.5 103.5t292.5 29.5q11 39 31.5 165t32.5 189q-191 -313 -426 -313q-127 0 -189.5 69.5t-62.5 190.5q0 107 65.5 351.5t65.5 330.5q0 156 -113 156q-98 0 -154.5 -107.5t-56.5 -220.5q0 -68 27 -127q-184 0 -184 158z" />
  </font>
</defs>
</svg>
